<svg width="150" height="31" viewBox="0 0 150 31" fill="none" xmlns="http://www.w3.org/2000/svg">
<g filter="url(#filter0_i_2_3)">
<path d="M0.818182 24V0.727272H3.63636V11.0909H16.0455V0.727272H18.8636V24H16.0455V13.5909H3.63636V24H0.818182ZM31.233 24.3636C29.6572 24.3636 28.2746 23.9886 27.0852 23.2386C25.9034 22.4886 24.9792 21.4394 24.3125 20.0909C23.6534 18.7424 23.3239 17.1667 23.3239 15.3636C23.3239 13.5455 23.6534 11.9583 24.3125 10.6023C24.9792 9.24621 25.9034 8.19318 27.0852 7.44318C28.2746 6.69318 29.6572 6.31818 31.233 6.31818C32.8087 6.31818 34.1875 6.69318 35.3693 7.44318C36.5587 8.19318 37.483 9.24621 38.142 10.6023C38.8087 11.9583 39.142 13.5455 39.142 15.3636C39.142 17.1667 38.8087 18.7424 38.142 20.0909C37.483 21.4394 36.5587 22.4886 35.3693 23.2386C34.1875 23.9886 32.8087 24.3636 31.233 24.3636ZM31.233 21.9545C32.4299 21.9545 33.4148 21.6477 34.1875 21.0341C34.9602 20.4205 35.5322 19.6136 35.9034 18.6136C36.2746 17.6136 36.4602 16.5303 36.4602 15.3636C36.4602 14.197 36.2746 13.1098 35.9034 12.1023C35.5322 11.0947 34.9602 10.2803 34.1875 9.65909C33.4148 9.03788 32.4299 8.72727 31.233 8.72727C30.036 8.72727 29.0511 9.03788 28.2784 9.65909C27.5057 10.2803 26.9337 11.0947 26.5625 12.1023C26.1913 13.1098 26.0057 14.197 26.0057 15.3636C26.0057 16.5303 26.1913 17.6136 26.5625 18.6136C26.9337 19.6136 27.5057 20.4205 28.2784 21.0341C29.0511 21.6477 30.036 21.9545 31.233 21.9545ZM45.9176 0.727272V24H43.2358V0.727272H45.9176ZM53.5114 0.727272V24H50.8295V0.727272H53.5114ZM60.1506 30.5455C59.696 30.5455 59.2907 30.5076 58.9347 30.4318C58.5786 30.3636 58.3324 30.2955 58.196 30.2273L58.8778 27.8636C59.5294 28.0303 60.1051 28.0909 60.6051 28.0455C61.1051 28 61.5483 27.7765 61.9347 27.375C62.3286 26.9811 62.6884 26.3409 63.0142 25.4545L63.5142 24.0909L57.0597 6.54545H59.9688L64.7869 20.4545H64.9688L69.7869 6.54545H72.696L65.2869 26.5455C64.9536 27.447 64.5407 28.1932 64.0483 28.7841C63.5559 29.3826 62.9839 29.8258 62.3324 30.1136C61.6884 30.4015 60.9612 30.5455 60.1506 30.5455ZM76.5994 24V0.727272H84.7358C86.357 0.727272 87.6941 1.00758 88.7472 1.56818C89.8002 2.12121 90.5843 2.86742 91.0994 3.80682C91.6146 4.73864 91.8722 5.77273 91.8722 6.90909C91.8722 7.90909 91.6941 8.73485 91.3381 9.38636C90.9896 10.0379 90.5275 10.553 89.9517 10.9318C89.3835 11.3106 88.7661 11.5909 88.0994 11.7727V12C88.8116 12.0455 89.5275 12.2955 90.2472 12.75C90.9669 13.2045 91.5691 13.8561 92.054 14.7045C92.5388 15.553 92.7812 16.5909 92.7812 17.8182C92.7812 18.9848 92.5161 20.0341 91.9858 20.9659C91.4555 21.8977 90.6184 22.6364 89.4744 23.1818C88.3305 23.7273 86.8419 24 85.0085 24H76.5994ZM79.4176 21.5H85.0085C86.8494 21.5 88.1563 21.1439 88.929 20.4318C89.7093 19.7121 90.0994 18.8409 90.0994 17.8182C90.0994 17.0303 89.8987 16.303 89.4972 15.6364C89.0956 14.9621 88.5237 14.4242 87.7812 14.0227C87.0388 13.6136 86.16 13.4091 85.1449 13.4091H79.4176V21.5ZM79.4176 10.9545H84.6449C85.4934 10.9545 86.2585 10.7879 86.9403 10.4545C87.6297 10.1212 88.1752 9.65151 88.5767 9.04545C88.9858 8.43939 89.1903 7.72727 89.1903 6.90909C89.1903 5.88636 88.8343 5.01894 88.1222 4.30682C87.41 3.58712 86.2813 3.22727 84.7358 3.22727H79.4176V10.9545ZM104.139 24.3636C102.563 24.3636 101.181 23.9886 99.9915 23.2386C98.8097 22.4886 97.8854 21.4394 97.2188 20.0909C96.5597 18.7424 96.2301 17.1667 96.2301 15.3636C96.2301 13.5455 96.5597 11.9583 97.2188 10.6023C97.8854 9.24621 98.8097 8.19318 99.9915 7.44318C101.181 6.69318 102.563 6.31818 104.139 6.31818C105.715 6.31818 107.094 6.69318 108.276 7.44318C109.465 8.19318 110.389 9.24621 111.048 10.6023C111.715 11.9583 112.048 13.5455 112.048 15.3636C112.048 17.1667 111.715 18.7424 111.048 20.0909C110.389 21.4394 109.465 22.4886 108.276 23.2386C107.094 23.9886 105.715 24.3636 104.139 24.3636ZM104.139 21.9545C105.336 21.9545 106.321 21.6477 107.094 21.0341C107.866 20.4205 108.438 19.6136 108.81 18.6136C109.181 17.6136 109.366 16.5303 109.366 15.3636C109.366 14.197 109.181 13.1098 108.81 12.1023C108.438 11.0947 107.866 10.2803 107.094 9.65909C106.321 9.03788 105.336 8.72727 104.139 8.72727C102.942 8.72727 101.957 9.03788 101.185 9.65909C100.412 10.2803 99.84 11.0947 99.4688 12.1023C99.0975 13.1098 98.9119 14.197 98.9119 15.3636C98.9119 16.5303 99.0975 17.6136 99.4688 18.6136C99.84 19.6136 100.412 20.4205 101.185 21.0341C101.957 21.6477 102.942 21.9545 104.139 21.9545ZM123.233 24.3636C121.657 24.3636 120.275 23.9886 119.085 23.2386C117.903 22.4886 116.979 21.4394 116.312 20.0909C115.653 18.7424 115.324 17.1667 115.324 15.3636C115.324 13.5455 115.653 11.9583 116.312 10.6023C116.979 9.24621 117.903 8.19318 119.085 7.44318C120.275 6.69318 121.657 6.31818 123.233 6.31818C124.809 6.31818 126.188 6.69318 127.369 7.44318C128.559 8.19318 129.483 9.24621 130.142 10.6023C130.809 11.9583 131.142 13.5455 131.142 15.3636C131.142 17.1667 130.809 18.7424 130.142 20.0909C129.483 21.4394 128.559 22.4886 127.369 23.2386C126.188 23.9886 124.809 24.3636 123.233 24.3636ZM123.233 21.9545C124.43 21.9545 125.415 21.6477 126.188 21.0341C126.96 20.4205 127.532 19.6136 127.903 18.6136C128.275 17.6136 128.46 16.5303 128.46 15.3636C128.46 14.197 128.275 13.1098 127.903 12.1023C127.532 11.0947 126.96 10.2803 126.188 9.65909C125.415 9.03788 124.43 8.72727 123.233 8.72727C122.036 8.72727 121.051 9.03788 120.278 9.65909C119.506 10.2803 118.934 11.0947 118.562 12.1023C118.191 13.1098 118.006 14.197 118.006 15.3636C118.006 16.5303 118.191 17.6136 118.562 18.6136C118.934 19.6136 119.506 20.4205 120.278 21.0341C121.051 21.6477 122.036 21.9545 123.233 21.9545ZM137.736 17.6364L137.69 14.3182H138.236L145.872 6.54545H149.19L141.054 14.7727H140.827L137.736 17.6364ZM135.236 24V0.727272H137.918V24H135.236ZM146.327 24L139.509 15.3636L141.418 13.5L149.736 24H146.327Z" fill="black"/>
</g>
<defs>
<filter id="filter0_i_2_3" x="-3.18182" y="0.727272" width="152.918" height="33.8182" filterUnits="userSpaceOnUse" color-interpolation-filters="sRGB">
<feFlood flood-opacity="0" result="BackgroundImageFix"/>
<feBlend mode="normal" in="SourceGraphic" in2="BackgroundImageFix" result="shape"/>
<feColorMatrix in="SourceAlpha" type="matrix" values="0 0 0 0 0 0 0 0 0 0 0 0 0 0 0 0 0 0 127 0" result="hardAlpha"/>
<feOffset dx="-120" dy="4"/>
<feGaussianBlur stdDeviation="2"/>
<feComposite in2="hardAlpha" operator="arithmetic" k2="-1" k3="1"/>
<feColorMatrix type="matrix" values="0 0 0 0 0 0 0 0 0 0 0 0 0 0 0 0 0 0 0.25 0"/>
<feBlend mode="normal" in2="shape" result="effect1_innerShadow_2_3"/>
</filter>
</defs>
</svg>
