<svg width="205" height="45" viewBox="0 0 205 45" fill="none" xmlns="http://www.w3.org/2000/svg">
<path d="M14 0H205V43.5747L14 45V0Z" fill="#1B1616"/>
<path d="M20.8182 31V7.72727H23.6364V18.0909H36.0455V7.72727H38.8636V31H36.0455V20.5909H23.6364V31H20.8182ZM51.233 31.3636C49.6572 31.3636 48.2746 30.9886 47.0852 30.2386C45.9034 29.4886 44.9792 28.4394 44.3125 27.0909C43.6534 25.7424 43.3239 24.1667 43.3239 22.3636C43.3239 20.5455 43.6534 18.9583 44.3125 17.6023C44.9792 16.2462 45.9034 15.1932 47.0852 14.4432C48.2746 13.6932 49.6572 13.3182 51.233 13.3182C52.8087 13.3182 54.1875 13.6932 55.3693 14.4432C56.5587 15.1932 57.483 16.2462 58.142 17.6023C58.8087 18.9583 59.142 20.5455 59.142 22.3636C59.142 24.1667 58.8087 25.7424 58.142 27.0909C57.483 28.4394 56.5587 29.4886 55.3693 30.2386C54.1875 30.9886 52.8087 31.3636 51.233 31.3636ZM51.233 28.9545C52.4299 28.9545 53.4148 28.6477 54.1875 28.0341C54.9602 27.4205 55.5322 26.6136 55.9034 25.6136C56.2746 24.6136 56.4602 23.5303 56.4602 22.3636C56.4602 21.197 56.2746 20.1098 55.9034 19.1023C55.5322 18.0947 54.9602 17.2803 54.1875 16.6591C53.4148 16.0379 52.4299 15.7273 51.233 15.7273C50.036 15.7273 49.0511 16.0379 48.2784 16.6591C47.5057 17.2803 46.9337 18.0947 46.5625 19.1023C46.1913 20.1098 46.0057 21.197 46.0057 22.3636C46.0057 23.5303 46.1913 24.6136 46.5625 25.6136C46.9337 26.6136 47.5057 27.4205 48.2784 28.0341C49.0511 28.6477 50.036 28.9545 51.233 28.9545ZM63.5994 31V7.72727H66.4176V28.5H77.2358V31H63.5994ZM81.5994 31V7.72727H84.4176V28.5H95.2358V31H81.5994ZM98.7756 37.5455C98.321 37.5455 97.9157 37.5076 97.5597 37.4318C97.2036 37.3636 96.9574 37.2955 96.821 37.2273L97.5028 34.8636C98.1544 35.0303 98.7301 35.0909 99.2301 35.0455C99.7301 35 100.173 34.7765 100.56 34.375C100.954 33.9811 101.313 33.3409 101.639 32.4545L102.139 31.0909L95.6847 13.5455H98.5938L103.412 27.4545H103.594L108.412 13.5455H111.321L103.912 33.5455C103.579 34.447 103.166 35.1932 102.673 35.7841C102.181 36.3826 101.609 36.8258 100.957 37.1136C100.313 37.4015 99.5862 37.5455 98.7756 37.5455ZM115.224 31V7.72727H123.361C124.982 7.72727 126.319 8.00758 127.372 8.56818C128.425 9.12121 129.209 9.86742 129.724 10.8068C130.24 11.7386 130.497 12.7727 130.497 13.9091C130.497 14.9091 130.319 15.7348 129.963 16.3864C129.615 17.0379 129.152 17.553 128.577 17.9318C128.009 18.3106 127.391 18.5909 126.724 18.7727V19C127.437 19.0455 128.152 19.2955 128.872 19.75C129.592 20.2045 130.194 20.8561 130.679 21.7045C131.164 22.553 131.406 23.5909 131.406 24.8182C131.406 25.9848 131.141 27.0341 130.611 27.9659C130.08 28.8977 129.243 29.6364 128.099 30.1818C126.955 30.7273 125.467 31 123.634 31H115.224ZM118.043 28.5H123.634C125.474 28.5 126.781 28.1439 127.554 27.4318C128.334 26.7121 128.724 25.8409 128.724 24.8182C128.724 24.0303 128.524 23.303 128.122 22.6364C127.721 21.9621 127.149 21.4242 126.406 21.0227C125.664 20.6136 124.785 20.4091 123.77 20.4091H118.043V28.5ZM118.043 17.9545H123.27C124.118 17.9545 124.884 17.7879 125.565 17.4545C126.255 17.1212 126.8 16.6515 127.202 16.0455C127.611 15.4394 127.815 14.7273 127.815 13.9091C127.815 12.8864 127.459 12.0189 126.747 11.3068C126.035 10.5871 124.906 10.2273 123.361 10.2273H118.043V17.9545ZM142.764 31.3636C141.188 31.3636 139.806 30.9886 138.616 30.2386C137.435 29.4886 136.51 28.4394 135.844 27.0909C135.185 25.7424 134.855 24.1667 134.855 22.3636C134.855 20.5455 135.185 18.9583 135.844 17.6023C136.51 16.2462 137.435 15.1932 138.616 14.4432C139.806 13.6932 141.188 13.3182 142.764 13.3182C144.34 13.3182 145.719 13.6932 146.901 14.4432C148.09 15.1932 149.014 16.2462 149.673 17.6023C150.34 18.9583 150.673 20.5455 150.673 22.3636C150.673 24.1667 150.34 25.7424 149.673 27.0909C149.014 28.4394 148.09 29.4886 146.901 30.2386C145.719 30.9886 144.34 31.3636 142.764 31.3636ZM142.764 28.9545C143.961 28.9545 144.946 28.6477 145.719 28.0341C146.491 27.4205 147.063 26.6136 147.435 25.6136C147.806 24.6136 147.991 23.5303 147.991 22.3636C147.991 21.197 147.806 20.1098 147.435 19.1023C147.063 18.0947 146.491 17.2803 145.719 16.6591C144.946 16.0379 143.961 15.7273 142.764 15.7273C141.567 15.7273 140.582 16.0379 139.81 16.6591C139.037 17.2803 138.465 18.0947 138.094 19.1023C137.723 20.1098 137.537 21.197 137.537 22.3636C137.537 23.5303 137.723 24.6136 138.094 25.6136C138.465 26.6136 139.037 27.4205 139.81 28.0341C140.582 28.6477 141.567 28.9545 142.764 28.9545ZM161.858 31.3636C160.282 31.3636 158.9 30.9886 157.71 30.2386C156.528 29.4886 155.604 28.4394 154.938 27.0909C154.278 25.7424 153.949 24.1667 153.949 22.3636C153.949 20.5455 154.278 18.9583 154.938 17.6023C155.604 16.2462 156.528 15.1932 157.71 14.4432C158.9 13.6932 160.282 13.3182 161.858 13.3182C163.434 13.3182 164.813 13.6932 165.994 14.4432C167.184 15.1932 168.108 16.2462 168.767 17.6023C169.434 18.9583 169.767 20.5455 169.767 22.3636C169.767 24.1667 169.434 25.7424 168.767 27.0909C168.108 28.4394 167.184 29.4886 165.994 30.2386C164.813 30.9886 163.434 31.3636 161.858 31.3636ZM161.858 28.9545C163.055 28.9545 164.04 28.6477 164.812 28.0341C165.585 27.4205 166.157 26.6136 166.528 25.6136C166.9 24.6136 167.085 23.5303 167.085 22.3636C167.085 21.197 166.9 20.1098 166.528 19.1023C166.157 18.0947 165.585 17.2803 164.812 16.6591C164.04 16.0379 163.055 15.7273 161.858 15.7273C160.661 15.7273 159.676 16.0379 158.903 16.6591C158.131 17.2803 157.559 18.0947 157.188 19.1023C156.816 20.1098 156.631 21.197 156.631 22.3636C156.631 23.5303 156.816 24.6136 157.188 25.6136C157.559 26.6136 158.131 27.4205 158.903 28.0341C159.676 28.6477 160.661 28.9545 161.858 28.9545ZM176.361 24.6364L176.315 21.3182H176.861L184.497 13.5455H187.815L179.679 21.7727H179.452L176.361 24.6364ZM173.861 31V7.72727H176.543V31H173.861ZM184.952 31L178.134 22.3636L180.043 20.5L188.361 31H184.952Z" fill="#BCFB37"/>
<path d="M20.8182 31H16.8182V35H20.8182V31ZM20.8182 7.72727V3.72727H16.8182V7.72727H20.8182ZM23.6364 7.72727H27.6364V3.72727H23.6364V7.72727ZM23.6364 18.0909H19.6364V22.0909H23.6364V18.0909ZM36.0455 18.0909V22.0909H40.0455V18.0909H36.0455ZM36.0455 7.72727V3.72727H32.0455V7.72727H36.0455ZM38.8636 7.72727H42.8636V3.72727H38.8636V7.72727ZM38.8636 31V35H42.8636V31H38.8636ZM36.0455 31H32.0455V35H36.0455V31ZM36.0455 20.5909H40.0455V16.5909H36.0455V20.5909ZM23.6364 20.5909V16.5909H19.6364V20.5909H23.6364ZM23.6364 31V35H27.6364V31H23.6364ZM24.8182 31V7.72727H16.8182V31H24.8182ZM20.8182 11.7273H23.6364V3.72727H20.8182V11.7273ZM19.6364 7.72727V18.0909H27.6364V7.72727H19.6364ZM23.6364 22.0909H36.0455V14.0909H23.6364V22.0909ZM40.0455 18.0909V7.72727H32.0455V18.0909H40.0455ZM36.0455 11.7273H38.8636V3.72727H36.0455V11.7273ZM34.8636 7.72727V31H42.8636V7.72727H34.8636ZM38.8636 27H36.0455V35H38.8636V27ZM40.0455 31V20.5909H32.0455V31H40.0455ZM36.0455 16.5909H23.6364V24.5909H36.0455V16.5909ZM19.6364 20.5909V31H27.6364V20.5909H19.6364ZM23.6364 27H20.8182V35H23.6364V27ZM47.0852 30.2386L44.9419 33.616L44.9517 33.6221L47.0852 30.2386ZM44.3125 27.0909L40.7188 28.8474L40.7228 28.8555L40.7268 28.8636L44.3125 27.0909ZM44.3125 17.6023L40.7228 15.8375L40.7189 15.8456L40.7149 15.8537L44.3125 17.6023ZM47.0852 14.4432L44.9517 11.0597L44.9419 11.0659L47.0852 14.4432ZM55.3693 14.4432L53.226 17.8205L53.2358 17.8267L55.3693 14.4432ZM58.142 17.6023L54.5445 19.3508L54.5484 19.3589L54.5524 19.367L58.142 17.6023ZM58.142 27.0909L54.5563 25.3182L54.5523 25.3263L54.5483 25.3344L58.142 27.0909ZM55.3693 30.2386L53.2358 26.8551L53.226 26.8613L55.3693 30.2386ZM54.1875 28.0341L51.7 24.9016L51.7 24.9016L54.1875 28.0341ZM55.9034 25.6136L59.6534 27.0057L59.6534 27.0057L55.9034 25.6136ZM55.9034 19.1023L59.6568 17.7195L59.6568 17.7194L55.9034 19.1023ZM54.1875 16.6591L56.6937 13.5416L56.6937 13.5416L54.1875 16.6591ZM48.2784 16.6591L45.7722 13.5416L45.7722 13.5416L48.2784 16.6591ZM46.5625 19.1023L42.8091 17.7194L42.8091 17.7195L46.5625 19.1023ZM46.5625 25.6136L42.8125 27.0057L42.8125 27.0057L46.5625 25.6136ZM48.2784 28.0341L50.7659 24.9016L50.7659 24.9016L48.2784 28.0341ZM51.233 27.3636C50.3185 27.3636 49.6944 27.1551 49.2188 26.8551L44.9517 33.6221C46.8548 34.8222 48.9959 35.3636 51.233 35.3636V27.3636ZM49.2285 26.8613C48.7117 26.5334 48.2653 26.0608 47.8982 25.3182L40.7268 28.8636C41.693 30.818 43.0951 32.4439 44.9419 33.616L49.2285 26.8613ZM47.9062 25.3344C47.563 24.6321 47.3239 23.6789 47.3239 22.3636H39.3239C39.3239 24.6544 39.7439 26.8527 40.7188 28.8474L47.9062 25.3344ZM47.3239 22.3636C47.3239 21.0282 47.5648 20.0612 47.9101 19.3508L40.7149 15.8537C39.742 17.8554 39.3239 20.0627 39.3239 22.3636H47.3239ZM47.9022 19.367C48.271 18.6168 48.7173 18.1449 49.2285 17.8205L44.9419 11.0659C43.0895 12.2415 41.6873 13.8757 40.7228 15.8375L47.9022 19.367ZM49.2188 17.8267C49.6944 17.5267 50.3185 17.3182 51.233 17.3182V9.31818C48.9959 9.31818 46.8548 9.85964 44.9517 11.0597L49.2188 17.8267ZM51.233 17.3182C52.1479 17.3182 52.7633 17.5268 53.226 17.8205L57.5126 11.0659C55.6117 9.85952 53.4695 9.31818 51.233 9.31818V17.3182ZM53.2358 17.8267C53.7484 18.1499 54.1869 18.6151 54.5445 19.3508L61.7396 15.8537C60.779 13.8773 59.369 12.2364 57.5029 11.0597L53.2358 17.8267ZM54.5524 19.367C54.8997 20.0734 55.142 21.0345 55.142 22.3636H63.142C63.142 20.0564 62.7177 17.8432 61.7317 15.8375L54.5524 19.367ZM55.142 22.3636C55.142 23.6726 54.9016 24.6199 54.5563 25.3182L61.7278 28.8636C62.7159 26.865 63.142 24.6607 63.142 22.3636H55.142ZM54.5483 25.3344C54.1925 26.0624 53.7541 26.5283 53.2358 26.8551L57.5029 33.6221C59.3634 32.4489 60.7734 30.8164 61.7358 28.8474L54.5483 25.3344ZM53.226 26.8613C52.7633 27.155 52.1479 27.3636 51.233 27.3636V35.3636C53.4695 35.3636 55.6117 34.8223 57.5126 33.616L53.226 26.8613ZM51.233 32.9545C53.1346 32.9545 55.0536 32.4541 56.675 31.1665L51.7 24.9016C51.7175 24.8877 51.7224 24.8921 51.6796 24.9055C51.6283 24.9214 51.4912 24.9545 51.233 24.9545V32.9545ZM56.675 31.1665C58.0657 30.0622 59.0494 28.6327 59.6534 27.0057L52.1534 24.2216C52.015 24.5946 51.8548 24.7787 51.7 24.9016L56.675 31.1665ZM59.6534 27.0057C60.2048 25.5203 60.4602 23.9609 60.4602 22.3636H52.4602C52.4602 23.0997 52.3445 23.707 52.1534 24.2216L59.6534 27.0057ZM60.4602 22.3636C60.4602 20.766 60.2047 19.2066 59.6568 17.7195L52.15 20.4851C52.3446 21.0131 52.4602 21.628 52.4602 22.3636H60.4602ZM59.6568 17.7194C59.0564 16.0898 58.0784 14.6548 56.6937 13.5416L51.6813 19.7766C51.842 19.9058 52.008 20.0996 52.15 20.4851L59.6568 17.7194ZM56.6937 13.5416C55.0718 12.2376 53.1459 11.7273 51.233 11.7273V19.7273C51.4868 19.7273 51.6192 19.7602 51.6662 19.775C51.7047 19.7871 51.6982 19.7902 51.6813 19.7766L56.6937 13.5416ZM51.233 11.7273C49.3201 11.7273 47.3942 12.2376 45.7722 13.5416L50.7846 19.7766C50.7677 19.7902 50.7612 19.7871 50.7997 19.775C50.8467 19.7602 50.9791 19.7273 51.233 19.7273V11.7273ZM45.7722 13.5416C44.3875 14.6548 43.4095 16.0898 42.8091 17.7194L50.3159 20.4851C50.4579 20.0996 50.6239 19.9058 50.7846 19.7766L45.7722 13.5416ZM42.8091 17.7195C42.2612 19.2066 42.0057 20.766 42.0057 22.3636H50.0057C50.0057 21.628 50.1214 21.0131 50.3159 20.4851L42.8091 17.7195ZM42.0057 22.3636C42.0057 23.9609 42.2611 25.5203 42.8125 27.0057L50.3125 24.2216C50.1214 23.707 50.0057 23.0997 50.0057 22.3636H42.0057ZM42.8125 27.0057C43.4165 28.6327 44.4002 30.0622 45.7909 31.1665L50.7659 24.9016C50.6112 24.7787 50.4509 24.5946 50.3125 24.2216L42.8125 27.0057ZM45.7909 31.1665C47.4123 32.4541 49.3313 32.9545 51.233 32.9545V24.9545C50.9747 24.9545 50.8376 24.9214 50.7863 24.9055C50.7435 24.8921 50.7484 24.8877 50.7659 24.9016L45.7909 31.1665ZM63.5994 31H59.5994V35H63.5994V31ZM63.5994 7.72727V3.72727H59.5994V7.72727H63.5994ZM66.4176 7.72727H70.4176V3.72727H66.4176V7.72727ZM66.4176 28.5H62.4176V32.5H66.4176V28.5ZM77.2358 28.5H81.2358V24.5H77.2358V28.5ZM77.2358 31V35H81.2358V31H77.2358ZM67.5994 31V7.72727H59.5994V31H67.5994ZM63.5994 11.7273H66.4176V3.72727H63.5994V11.7273ZM62.4176 7.72727V28.5H70.4176V7.72727H62.4176ZM66.4176 32.5H77.2358V24.5H66.4176V32.5ZM73.2358 28.5V31H81.2358V28.5H73.2358ZM77.2358 27H63.5994V35H77.2358V27ZM81.5994 31H77.5994V35H81.5994V31ZM81.5994 7.72727V3.72727H77.5994V7.72727H81.5994ZM84.4176 7.72727H88.4176V3.72727H84.4176V7.72727ZM84.4176 28.5H80.4176V32.5H84.4176V28.5ZM95.2358 28.5H99.2358V24.5H95.2358V28.5ZM95.2358 31V35H99.2358V31H95.2358ZM85.5994 31V7.72727H77.5994V31H85.5994ZM81.5994 11.7273H84.4176V3.72727H81.5994V11.7273ZM80.4176 7.72727V28.5H88.4176V7.72727H80.4176ZM84.4176 32.5H95.2358V24.5H84.4176V32.5ZM91.2358 28.5V31H99.2358V28.5H91.2358ZM95.2358 27H81.5994V35H95.2358V27ZM97.5597 37.4318L98.3921 33.5194L98.3521 33.5109L98.312 33.5032L97.5597 37.4318ZM96.821 37.2273L92.9777 36.1186L92.0553 39.3165L95.0322 40.805L96.821 37.2273ZM97.5028 34.8636L98.4942 30.9884L94.735 30.0268L93.6595 33.755L97.5028 34.8636ZM99.2301 35.0455L98.868 31.0619L98.868 31.0619L99.2301 35.0455ZM100.56 34.375L97.7312 31.5466L97.704 31.5738L97.6774 31.6015L100.56 34.375ZM101.639 32.4545L105.394 33.8344L105.395 33.8316L101.639 32.4545ZM102.139 31.0909L105.895 32.4679L106.4 31.0886L105.893 29.7099L102.139 31.0909ZM95.6847 13.5455V9.54545H89.9511L91.9306 14.9265L95.6847 13.5455ZM98.5938 13.5455L102.373 12.2362L101.441 9.54545H98.5938V13.5455ZM103.412 27.4545L99.6323 28.7638L100.564 31.4545H103.412V27.4545ZM103.594 27.4545V31.4545H106.441L107.373 28.7638L103.594 27.4545ZM108.412 13.5455V9.54545H105.564L104.632 12.2362L108.412 13.5455ZM111.321 13.5455L115.072 14.935L117.068 9.54545H111.321V13.5455ZM103.912 33.5455L100.161 32.1559L100.16 32.1583L103.912 33.5455ZM102.673 35.7841L99.6004 33.2234L99.5924 33.233L99.5844 33.2426L102.673 35.7841ZM100.957 37.1136L99.3407 33.4549L99.3328 33.4584L99.3249 33.4619L100.957 37.1136ZM98.7756 33.5455C98.535 33.5455 98.4169 33.5247 98.3921 33.5194L96.7272 41.3442C97.4146 41.4905 98.1071 41.5455 98.7756 41.5455V33.5455ZM98.312 33.5032C98.2 33.4818 98.1616 33.4708 98.1755 33.4746C98.1843 33.4771 98.2244 33.4883 98.2869 33.5106C98.3448 33.5312 98.461 33.5751 98.6099 33.6496L95.0322 40.805C95.712 41.1449 96.4493 41.2919 96.8074 41.3604L98.312 33.5032ZM100.664 38.3359L101.346 35.9723L93.6595 33.755L92.9777 36.1186L100.664 38.3359ZM96.5115 38.7388C97.4642 38.9826 98.5133 39.1271 99.5923 39.029L98.868 31.0619C98.9137 31.0577 98.9089 31.0631 98.842 31.0561C98.7752 31.049 98.6611 31.0311 98.4942 30.9884L96.5115 38.7388ZM99.5923 39.029C101.158 38.8867 102.467 38.1617 103.442 37.1485L97.6774 31.6015C97.759 31.5166 97.909 31.3869 98.1364 31.2722C98.3696 31.1546 98.6226 31.0842 98.868 31.0619L99.5923 39.029ZM103.388 37.2034C104.383 36.2089 104.988 34.9372 105.394 33.8344L97.8847 31.0747C97.7758 31.3711 97.6889 31.5491 97.6381 31.6394C97.5839 31.7359 97.6032 31.6746 97.7312 31.5466L103.388 37.2034ZM105.395 33.8316L105.895 32.4679L98.3837 29.7139L97.8837 31.0775L105.395 33.8316ZM105.893 29.7099L99.4387 12.1644L91.9306 14.9265L98.3852 32.4719L105.893 29.7099ZM95.6847 17.5455H98.5938V9.54545H95.6847V17.5455ZM94.8141 14.8547L99.6323 28.7638L107.192 26.1453L102.373 12.2362L94.8141 14.8547ZM103.412 31.4545H103.594V23.4545H103.412V31.4545ZM107.373 28.7638L112.192 14.8547L104.632 12.2362L99.8141 26.1453L107.373 28.7638ZM108.412 17.5455H111.321V9.54545H108.412V17.5455ZM107.57 12.1559L100.161 32.1559L107.663 34.935L115.072 14.935L107.57 12.1559ZM100.16 32.1583C99.9469 32.735 99.739 33.057 99.6004 33.2234L105.746 38.3448C106.592 37.3293 107.21 36.1589 107.664 34.9327L100.16 32.1583ZM99.5844 33.2426C99.4532 33.4022 99.3719 33.4411 99.3407 33.4549L102.574 40.7724C103.846 40.2104 104.909 39.363 105.762 38.3255L99.5844 33.2426ZM99.3249 33.4619C99.2657 33.4884 99.1071 33.5455 98.7756 33.5455V41.5455C100.065 41.5455 101.361 41.3146 102.59 40.7653L99.3249 33.4619ZM115.224 31H111.224V35H115.224V31ZM115.224 7.72727V3.72727H111.224V7.72727H115.224ZM127.372 8.56818L125.492 12.099L125.502 12.1043L125.512 12.1095L127.372 8.56818ZM129.724 10.8068L126.217 12.7302L126.224 12.7421L129.724 10.8068ZM129.963 16.3864L126.453 14.4681L126.444 14.4839L126.436 14.4998L129.963 16.3864ZM128.577 17.9318L126.378 14.5902L126.368 14.5969L126.358 14.6036L128.577 17.9318ZM126.724 18.7727L125.672 14.9137L122.724 15.7175V18.7727H126.724ZM126.724 19H122.724V22.7528L126.47 22.9919L126.724 19ZM128.872 19.75L126.736 23.132L126.736 23.132L128.872 19.75ZM130.611 27.9659L134.087 29.9444L134.087 29.9444L130.611 27.9659ZM128.099 30.1818L126.378 26.5713L126.378 26.5713L128.099 30.1818ZM118.043 28.5H114.043V32.5H118.043V28.5ZM127.554 27.4318L130.265 30.3732L130.266 30.3721L127.554 27.4318ZM128.122 22.6364L124.685 24.683L124.69 24.6915L124.696 24.7001L128.122 22.6364ZM126.406 21.0227L124.476 24.5261L124.49 24.5337L124.503 24.5411L126.406 21.0227ZM118.043 20.4091V16.4091H114.043V20.4091H118.043ZM118.043 17.9545H114.043V21.9545H118.043V17.9545ZM125.565 17.4545L123.824 13.8534L123.816 13.8572L123.809 13.861L125.565 17.4545ZM127.202 16.0455L123.886 13.8076L123.877 13.8219L123.867 13.8363L127.202 16.0455ZM126.747 11.3068L123.904 14.1202L123.911 14.1278L123.919 14.1352L126.747 11.3068ZM118.043 10.2273V6.22727H114.043V10.2273H118.043ZM119.224 31V7.72727H111.224V31H119.224ZM115.224 11.7273H123.361V3.72727H115.224V11.7273ZM123.361 11.7273C124.551 11.7273 125.188 11.937 125.492 12.099L129.252 5.03737C127.45 4.0781 125.413 3.72727 123.361 3.72727V11.7273ZM125.512 12.1095C125.949 12.3387 126.121 12.5552 126.217 12.7301L133.232 8.88349C132.297 7.17968 130.902 5.90371 129.232 5.02685L125.512 12.1095ZM126.224 12.7421C126.389 13.0417 126.497 13.4027 126.497 13.9091H134.497C134.497 12.1428 134.09 10.4356 133.225 8.8715L126.224 12.7421ZM126.497 13.9091C126.497 14.4617 126.395 14.5736 126.453 14.4681L133.473 18.3046C134.243 16.8961 134.497 15.3565 134.497 13.9091H126.497ZM126.436 14.4998C126.403 14.562 126.381 14.5868 126.378 14.5903C126.375 14.5928 126.375 14.5927 126.377 14.5914C126.378 14.59 126.379 14.5895 126.378 14.5902L130.775 21.2735C131.948 20.5018 132.85 19.4691 133.49 18.273L126.436 14.4998ZM126.358 14.6036C126.152 14.741 125.929 14.8436 125.672 14.9137L127.777 22.6318C128.853 22.3382 129.865 21.8802 130.796 21.26L126.358 14.6036ZM122.724 18.7727V19H130.724V18.7727H122.724ZM126.47 22.9919C126.441 22.99 126.44 22.9853 126.477 22.998C126.516 23.0116 126.602 23.0473 126.736 23.132L131.008 16.368C129.831 15.6248 128.477 15.1037 126.979 15.0081L126.47 22.9919ZM126.736 23.132C126.826 23.1884 126.997 23.324 127.206 23.6891L134.152 19.72C133.391 18.3881 132.358 17.2207 131.008 16.368L126.736 23.132ZM127.206 23.6891C127.268 23.7971 127.406 24.1115 127.406 24.8182H135.406C135.406 23.0704 135.06 21.3089 134.152 19.72L127.206 23.6891ZM127.406 24.8182C127.406 25.354 127.292 25.711 127.134 25.9874L134.087 29.9444C134.991 28.3572 135.406 26.6156 135.406 24.8182H127.406ZM127.134 25.9874C127.078 26.0868 126.921 26.3121 126.378 26.5713L129.821 33.7924C131.565 32.9607 133.083 31.7087 134.087 29.9444L127.134 25.9874ZM126.378 26.5713C125.957 26.7721 125.117 27 123.634 27V35C125.816 35 127.954 34.6825 129.821 33.7924L126.378 26.5713ZM123.634 27H115.224V35H123.634V27ZM118.043 32.5H123.634V24.5H118.043V32.5ZM123.634 32.5C125.789 32.5 128.368 32.1216 130.265 30.3732L124.843 24.4904C125.045 24.3046 125.151 24.3169 124.943 24.3736C124.73 24.4317 124.317 24.5 123.634 24.5V32.5ZM130.266 30.3721C131.832 28.9276 132.724 27.0049 132.724 24.8182H124.724C124.724 24.8183 124.725 24.7934 124.734 24.7498C124.743 24.7054 124.758 24.6548 124.781 24.6038C124.831 24.4925 124.879 24.4576 124.842 24.4915L130.266 30.3721ZM132.724 24.8182C132.724 23.3126 132.33 21.8704 131.549 20.5727L124.696 24.7001C124.706 24.7172 124.711 24.7284 124.714 24.7342C124.716 24.74 124.717 24.7436 124.718 24.7462C124.719 24.7481 124.724 24.7679 124.724 24.8182H132.724ZM131.559 20.5897C130.76 19.2487 129.636 18.2222 128.309 17.5043L124.503 24.5411C124.661 24.6263 124.681 24.6755 124.685 24.683L131.559 20.5897ZM128.337 17.5194C126.896 16.7258 125.327 16.4091 123.77 16.4091V24.4091C124.243 24.4091 124.431 24.5015 124.476 24.5261L128.337 17.5194ZM123.77 16.4091H118.043V24.4091H123.77V16.4091ZM114.043 20.4091V28.5H122.043V20.4091H114.043ZM118.043 21.9545H123.27V13.9545H118.043V21.9545ZM123.27 21.9545C124.655 21.9545 126.032 21.679 127.322 21.0481L123.809 13.861C123.735 13.8968 123.582 13.9545 123.27 13.9545V21.9545ZM127.307 21.0557C128.606 20.4271 129.717 19.4917 130.536 18.2546L123.867 13.8363C123.866 13.838 123.867 13.8358 123.871 13.8314C123.875 13.827 123.879 13.8234 123.881 13.8212C123.884 13.819 123.882 13.8207 123.875 13.8257C123.867 13.8307 123.851 13.8405 123.824 13.8534L127.307 21.0557ZM130.517 18.2833C131.424 16.9391 131.815 15.4264 131.815 13.9091H123.815C123.815 13.9831 123.806 13.9907 123.817 13.9525C123.823 13.9344 123.831 13.9103 123.844 13.8829C123.857 13.8554 123.871 13.8298 123.886 13.8076L130.517 18.2833ZM131.815 13.9091C131.815 11.844 131.051 9.95363 129.576 8.47839L123.919 14.1352C123.927 14.1433 123.918 14.1357 123.901 14.1108C123.884 14.0853 123.865 14.051 123.848 14.0104C123.831 13.9699 123.822 13.9352 123.818 13.9116C123.813 13.8889 123.815 13.8862 123.815 13.9091H131.815ZM129.591 8.4934C127.812 6.69551 125.422 6.22727 123.361 6.22727V14.2273C123.839 14.2273 124.079 14.2849 124.152 14.3082C124.205 14.3253 124.074 14.2918 123.904 14.1202L129.591 8.4934ZM123.361 6.22727H118.043V14.2273H123.361V6.22727ZM114.043 10.2273V17.9545H122.043V10.2273H114.043ZM138.616 30.2386L136.473 33.616L136.483 33.6221L138.616 30.2386ZM135.844 27.0909L132.25 28.8474L132.254 28.8555L132.258 28.8636L135.844 27.0909ZM135.844 17.6023L132.254 15.8375L132.25 15.8456L132.246 15.8537L135.844 17.6023ZM138.616 14.4432L136.483 11.0597L136.473 11.0659L138.616 14.4432ZM146.901 14.4432L144.757 17.8205L144.767 17.8267L146.901 14.4432ZM149.673 17.6023L146.076 19.3508L146.08 19.3589L146.084 19.367L149.673 17.6023ZM149.673 27.0909L146.088 25.3182L146.084 25.3263L146.08 25.3344L149.673 27.0909ZM146.901 30.2386L144.767 26.8551L144.757 26.8613L146.901 30.2386ZM145.719 28.0341L143.231 24.9016L143.231 24.9016L145.719 28.0341ZM147.435 25.6136L151.185 27.0057L151.185 27.0057L147.435 25.6136ZM147.435 19.1023L151.188 17.7195L151.188 17.7194L147.435 19.1023ZM145.719 16.6591L148.225 13.5416L148.225 13.5416L145.719 16.6591ZM139.81 16.6591L137.303 13.5416L137.303 13.5416L139.81 16.6591ZM138.094 19.1023L134.34 17.7194L134.34 17.7195L138.094 19.1023ZM138.094 25.6136L134.344 27.0057L134.344 27.0057L138.094 25.6136ZM139.81 28.0341L142.297 24.9016L142.297 24.9016L139.81 28.0341ZM142.764 27.3636C141.85 27.3636 141.226 27.1551 140.75 26.8551L136.483 33.6221C138.386 34.8222 140.527 35.3636 142.764 35.3636V27.3636ZM140.76 26.8613C140.243 26.5334 139.797 26.0608 139.429 25.3182L132.258 28.8636C133.224 30.818 134.626 32.4439 136.473 33.616L140.76 26.8613ZM139.437 25.3344C139.094 24.6321 138.855 23.6789 138.855 22.3636H130.855C130.855 24.6544 131.275 26.8527 132.25 28.8474L139.437 25.3344ZM138.855 22.3636C138.855 21.0282 139.096 20.0612 139.441 19.3508L132.246 15.8537C131.273 17.8554 130.855 20.0627 130.855 22.3636H138.855ZM139.433 19.367C139.802 18.6168 140.249 18.1449 140.76 17.8205L136.473 11.0659C134.621 12.2415 133.219 13.8757 132.254 15.8375L139.433 19.367ZM140.75 17.8267C141.226 17.5267 141.85 17.3182 142.764 17.3182V9.31818C140.527 9.31818 138.386 9.85964 136.483 11.0597L140.75 17.8267ZM142.764 17.3182C143.679 17.3182 144.295 17.5268 144.757 17.8205L149.044 11.0659C147.143 9.85952 145.001 9.31818 142.764 9.31818V17.3182ZM144.767 17.8267C145.28 18.1499 145.718 18.6151 146.076 19.3508L153.271 15.8537C152.31 13.8773 150.9 12.2364 149.034 11.0597L144.767 17.8267ZM146.084 19.367C146.431 20.0734 146.673 21.0345 146.673 22.3636H154.673C154.673 20.0564 154.249 17.8432 153.263 15.8375L146.084 19.367ZM146.673 22.3636C146.673 23.6726 146.433 24.6199 146.088 25.3182L153.259 28.8636C154.247 26.865 154.673 24.6607 154.673 22.3636H146.673ZM146.08 25.3344C145.724 26.0624 145.285 26.5283 144.767 26.8551L149.034 33.6221C150.895 32.4489 152.305 30.8164 153.267 28.8474L146.08 25.3344ZM144.757 26.8613C144.295 27.155 143.679 27.3636 142.764 27.3636V35.3636C145.001 35.3636 147.143 34.8223 149.044 33.616L144.757 26.8613ZM142.764 32.9545C144.666 32.9545 146.585 32.4541 148.206 31.1665L143.231 24.9016C143.249 24.8877 143.254 24.8921 143.211 24.9055C143.16 24.9214 143.022 24.9545 142.764 24.9545V32.9545ZM148.206 31.1665C149.597 30.0622 150.581 28.6327 151.185 27.0057L143.685 24.2216C143.546 24.5946 143.386 24.7787 143.231 24.9016L148.206 31.1665ZM151.185 27.0057C151.736 25.5203 151.991 23.9609 151.991 22.3636H143.991C143.991 23.0997 143.876 23.707 143.685 24.2216L151.185 27.0057ZM151.991 22.3636C151.991 20.766 151.736 19.2066 151.188 17.7195L143.681 20.4851C143.876 21.0131 143.991 21.628 143.991 22.3636H151.991ZM151.188 17.7194C150.588 16.0898 149.61 14.6548 148.225 13.5416L143.213 19.7766C143.373 19.9058 143.539 20.0996 143.681 20.4851L151.188 17.7194ZM148.225 13.5416C146.603 12.2376 144.677 11.7273 142.764 11.7273V19.7273C143.018 19.7273 143.15 19.7602 143.197 19.775C143.236 19.7871 143.229 19.7902 143.213 19.7766L148.225 13.5416ZM142.764 11.7273C140.851 11.7273 138.925 12.2376 137.303 13.5416L142.316 19.7766C142.299 19.7902 142.292 19.7871 142.331 19.775C142.378 19.7602 142.51 19.7273 142.764 19.7273V11.7273ZM137.303 13.5416C135.919 14.6548 134.941 16.0898 134.34 17.7194L141.847 20.4851C141.989 20.0996 142.155 19.9058 142.316 19.7766L137.303 13.5416ZM134.34 17.7195C133.792 19.2066 133.537 20.766 133.537 22.3636H141.537C141.537 21.628 141.653 21.0131 141.847 20.4851L134.34 17.7195ZM133.537 22.3636C133.537 23.9609 133.792 25.5203 134.344 27.0057L141.844 24.2216C141.653 23.707 141.537 23.0997 141.537 22.3636H133.537ZM134.344 27.0057C134.948 28.6327 135.931 30.0622 137.322 31.1665L142.297 24.9016C142.142 24.7787 141.982 24.5946 141.844 24.2216L134.344 27.0057ZM137.322 31.1665C138.944 32.4541 140.863 32.9545 142.764 32.9545V24.9545C142.506 24.9545 142.369 24.9214 142.318 24.9055C142.275 24.8921 142.28 24.8877 142.297 24.9016L137.322 31.1665ZM157.71 30.2386L155.567 33.616L155.577 33.6221L157.71 30.2386ZM154.938 27.0909L151.344 28.8474L151.348 28.8555L151.352 28.8636L154.938 27.0909ZM154.938 17.6023L151.348 15.8375L151.344 15.8456L151.34 15.8537L154.938 17.6023ZM157.71 14.4432L155.577 11.0597L155.567 11.0659L157.71 14.4432ZM165.994 14.4432L163.851 17.8205L163.861 17.8267L165.994 14.4432ZM168.767 17.6023L165.169 19.3508L165.173 19.3589L165.177 19.367L168.767 17.6023ZM168.767 27.0909L165.181 25.3182L165.177 25.3263L165.173 25.3344L168.767 27.0909ZM165.994 30.2386L163.861 26.8551L163.851 26.8613L165.994 30.2386ZM164.812 28.0341L162.325 24.9016L162.325 24.9016L164.812 28.0341ZM166.528 25.6136L170.278 27.0057L170.278 27.0057L166.528 25.6136ZM166.528 19.1023L170.282 17.7195L170.282 17.7194L166.528 19.1023ZM164.812 16.6591L167.319 13.5416L167.319 13.5416L164.812 16.6591ZM158.903 16.6591L156.397 13.5416L156.397 13.5416L158.903 16.6591ZM157.188 19.1023L153.434 17.7194L153.434 17.7195L157.188 19.1023ZM157.188 25.6136L153.438 27.0057L153.438 27.0057L157.188 25.6136ZM158.903 28.0341L161.391 24.9016L161.391 24.9016L158.903 28.0341ZM161.858 27.3636C160.943 27.3636 160.319 27.1551 159.844 26.8551L155.577 33.6221C157.48 34.8222 159.621 35.3636 161.858 35.3636V27.3636ZM159.854 26.8613C159.337 26.5334 158.89 26.0608 158.523 25.3182L151.352 28.8636C152.318 30.818 153.72 32.4439 155.567 33.616L159.854 26.8613ZM158.531 25.3344C158.188 24.6321 157.949 23.6789 157.949 22.3636H149.949C149.949 24.6544 150.369 26.8527 151.344 28.8474L158.531 25.3344ZM157.949 22.3636C157.949 21.0282 158.19 20.0612 158.535 19.3508L151.34 15.8537C150.367 17.8554 149.949 20.0627 149.949 22.3636H157.949ZM158.527 19.367C158.896 18.6168 159.342 18.1449 159.854 17.8205L155.567 11.0659C153.714 12.2415 152.312 13.8757 151.348 15.8375L158.527 19.367ZM159.844 17.8267C160.319 17.5267 160.943 17.3182 161.858 17.3182V9.31818C159.621 9.31818 157.48 9.85964 155.577 11.0597L159.844 17.8267ZM161.858 17.3182C162.773 17.3182 163.388 17.5268 163.851 17.8205L168.138 11.0659C166.237 9.85952 164.094 9.31818 161.858 9.31818V17.3182ZM163.861 17.8267C164.373 18.1499 164.812 18.6151 165.169 19.3508L172.365 15.8537C171.404 13.8773 169.994 12.2364 168.128 11.0597L163.861 17.8267ZM165.177 19.367C165.525 20.0734 165.767 21.0345 165.767 22.3636H173.767C173.767 20.0564 173.343 17.8432 172.357 15.8375L165.177 19.367ZM165.767 22.3636C165.767 23.6726 165.527 24.6199 165.181 25.3182L172.353 28.8636C173.341 26.865 173.767 24.6607 173.767 22.3636H165.767ZM165.173 25.3344C164.818 26.0624 164.379 26.5283 163.861 26.8551L168.128 33.6221C169.988 32.4489 171.398 30.8164 172.361 28.8474L165.173 25.3344ZM163.851 26.8613C163.388 27.155 162.773 27.3636 161.858 27.3636V35.3636C164.094 35.3636 166.237 34.8223 168.138 33.616L163.851 26.8613ZM161.858 32.9545C163.76 32.9545 165.679 32.4541 167.3 31.1665L162.325 24.9016C162.343 24.8877 162.347 24.8921 162.305 24.9055C162.253 24.9214 162.116 24.9545 161.858 24.9545V32.9545ZM167.3 31.1665C168.691 30.0622 169.674 28.6327 170.278 27.0057L162.778 24.2216C162.64 24.5946 162.48 24.7787 162.325 24.9016L167.3 31.1665ZM170.278 27.0057C170.83 25.5203 171.085 23.9609 171.085 22.3636H163.085C163.085 23.0997 162.969 23.707 162.778 24.2216L170.278 27.0057ZM171.085 22.3636C171.085 20.766 170.83 19.2066 170.282 17.7195L162.775 20.4851C162.97 21.0131 163.085 21.628 163.085 22.3636H171.085ZM170.282 17.7194C169.681 16.0898 168.703 14.6548 167.319 13.5416L162.306 19.7766C162.467 19.9058 162.633 20.0996 162.775 20.4851L170.282 17.7194ZM167.319 13.5416C165.697 12.2376 163.771 11.7273 161.858 11.7273V19.7273C162.112 19.7273 162.244 19.7602 162.291 19.775C162.33 19.7871 162.323 19.7902 162.306 19.7766L167.319 13.5416ZM161.858 11.7273C159.945 11.7273 158.019 12.2376 156.397 13.5416L161.41 19.7766C161.393 19.7902 161.386 19.7871 161.425 19.775C161.472 19.7602 161.604 19.7273 161.858 19.7273V11.7273ZM156.397 13.5416C155.012 14.6548 154.035 16.0898 153.434 17.7194L160.941 20.4851C161.083 20.0996 161.249 19.9058 161.41 19.7766L156.397 13.5416ZM153.434 17.7195C152.886 19.2066 152.631 20.766 152.631 22.3636H160.631C160.631 21.628 160.746 21.0131 160.941 20.4851L153.434 17.7195ZM152.631 22.3636C152.631 23.9609 152.886 25.5203 153.438 27.0057L160.937 24.2216C160.746 23.707 160.631 23.0997 160.631 22.3636H152.631ZM153.438 27.0057C154.041 28.6327 155.025 30.0622 156.416 31.1665L161.391 24.9016C161.236 24.7787 161.076 24.5946 160.937 24.2216L153.438 27.0057ZM156.416 31.1665C158.037 32.4541 159.956 32.9545 161.858 32.9545V24.9545C161.6 24.9545 161.463 24.9214 161.411 24.9055C161.368 24.8921 161.373 24.8877 161.391 24.9016L156.416 31.1665ZM176.361 24.6364L172.361 24.6912L172.484 33.6807L179.079 27.5706L176.361 24.6364ZM176.315 21.3182V17.3182H172.26L172.316 21.373L176.315 21.3182ZM176.861 21.3182V25.3182H178.538L179.714 24.1215L176.861 21.3182ZM184.497 13.5455V9.54545H182.82L181.644 10.7422L184.497 13.5455ZM187.815 13.5455L190.659 16.3581L197.397 9.54545H187.815V13.5455ZM179.679 21.7727V25.7727H181.349L182.523 24.5854L179.679 21.7727ZM179.452 21.7727V17.7727H177.884L176.733 18.8385L179.452 21.7727ZM173.861 31H169.861V35H173.861V31ZM173.861 7.72727V3.72727H169.861V7.72727H173.861ZM176.543 7.72727H180.543V3.72727H176.543V7.72727ZM176.543 31V35H180.543V31H176.543ZM184.952 31L181.812 33.4786L183.013 35H184.952V31ZM178.134 22.3636L175.339 19.5013L172.763 22.0163L174.994 24.8422L178.134 22.3636ZM180.043 20.5L183.178 18.0161L180.423 14.5387L177.248 17.6377L180.043 20.5ZM188.361 31V35H196.633L191.496 28.5161L188.361 31ZM180.36 24.5816L180.315 21.2634L172.316 21.373L172.361 24.6912L180.36 24.5816ZM176.315 25.3182H176.861V17.3182H176.315V25.3182ZM179.714 24.1215L187.351 16.3487L181.644 10.7422L174.007 18.5149L179.714 24.1215ZM184.497 17.5455H187.815V9.54545H184.497V17.5455ZM184.971 10.7328L176.835 18.9601L182.523 24.5854L190.659 16.3581L184.971 10.7328ZM179.679 17.7727H179.452V25.7727H179.679V17.7727ZM176.733 18.8385L173.642 21.7021L179.079 27.5706L182.17 24.707L176.733 18.8385ZM177.861 31V7.72727H169.861V31H177.861ZM173.861 11.7273H176.543V3.72727H173.861V11.7273ZM172.543 7.72727V31H180.543V7.72727H172.543ZM176.543 27H173.861V35H176.543V27ZM188.091 28.5214L181.273 19.8851L174.994 24.8422L181.812 33.4786L188.091 28.5214ZM180.928 25.2259L182.837 23.3623L177.248 17.6377L175.339 19.5013L180.928 25.2259ZM176.907 22.9839L185.225 33.4839L191.496 28.5161L183.178 18.0161L176.907 22.9839ZM188.361 27H184.952V35H188.361V27Z" fill="black" fill-opacity="0.85"/>
</svg>
