<svg width="177" height="112" viewBox="0 0 177 112" fill="none" xmlns="http://www.w3.org/2000/svg">
<g filter="url(#filter0_f_2_15)">
<ellipse cx="88.5" cy="56" rx="85.5" ry="53" fill="#021045" fill-opacity="0.94"/>
<path d="M170 56C170 68.7427 161.655 80.8997 146.85 90.0769C132.106 99.2165 111.486 105 88.5 105C65.5135 105 44.8939 99.2165 30.1498 90.0769C15.3451 80.8997 7 68.7427 7 56C7 43.2573 15.3451 31.1003 30.1498 21.9231C44.8939 12.7836 65.5135 7 88.5 7C111.486 7 132.106 12.7836 146.85 21.9231C161.655 31.1003 170 43.2573 170 56Z" stroke="black" stroke-width="8"/>
</g>
<path d="M42.1074 25.4668C44.2949 25.5449 45.9941 25.584 47.2051 25.584C48.416 25.584 50.1152 25.5449 52.3027 25.4668C52.3418 25.623 52.3613 25.7305 52.3613 25.7891C52.3613 25.8574 52.3418 25.9795 52.3027 26.1553C51.8535 26.1943 51.4873 26.2383 51.2041 26.2871C50.9307 26.3262 50.5889 26.3945 50.1787 26.4922C49.7783 26.5898 49.4707 26.7314 49.2559 26.917C49.041 27.0928 48.9287 27.3076 48.9189 27.5615C48.792 30.4814 48.7285 33.2012 48.7285 35.7207C49.8125 35.7598 51.4531 35.7793 53.6504 35.7793C55.4473 35.7793 57.249 35.75 59.0557 35.6914C59.0166 32.0586 58.9678 29.3486 58.9092 27.5615C58.8994 27.3076 58.7871 27.0928 58.5723 26.917C58.3574 26.7314 58.0449 26.5898 57.6348 26.4922C57.2246 26.3945 56.8779 26.3262 56.5947 26.2871C56.3213 26.2383 55.96 26.1943 55.5107 26.1553C55.4717 25.9795 55.4521 25.8574 55.4521 25.7891C55.4521 25.7305 55.4717 25.623 55.5107 25.4668C57.7178 25.5449 59.417 25.584 60.6084 25.584C61.8096 25.584 63.5137 25.5449 65.7207 25.4668C65.7598 25.623 65.7793 25.7305 65.7793 25.7891C65.7793 25.8574 65.7598 25.9795 65.7207 26.1553C65.2715 26.1943 64.9053 26.2383 64.6221 26.2871C64.3486 26.3262 64.0068 26.3945 63.5967 26.4922C63.1865 26.5898 62.874 26.7314 62.6592 26.917C62.4443 27.0928 62.332 27.3076 62.3223 27.5615C62.2246 29.9932 62.1758 32.9033 62.1758 36.292C62.1758 39.6611 62.2246 42.5615 62.3223 44.9932C62.332 45.2471 62.4443 45.4668 62.6592 45.6523C62.874 45.8281 63.1865 45.9648 63.5967 46.0625C64.0068 46.1602 64.3486 46.2334 64.6221 46.2822C64.9053 46.3213 65.2715 46.3604 65.7207 46.3994C65.7598 46.5557 65.7793 46.6875 65.7793 46.7949C65.7793 46.873 65.7598 46.9707 65.7207 47.0879C64.0605 47.0293 62.3564 47 60.6084 47C58.8604 47 57.1611 47.0293 55.5107 47.0879C55.4717 46.9707 55.4521 46.873 55.4521 46.7949C55.4521 46.6289 55.4717 46.4971 55.5107 46.3994C55.96 46.3604 56.3262 46.3213 56.6094 46.2822C56.8926 46.2334 57.2393 46.1602 57.6494 46.0625C58.0596 45.9648 58.3721 45.8281 58.5869 45.6523C58.8018 45.4668 58.9092 45.2471 58.9092 44.9932C58.9873 41.5068 59.0361 38.8652 59.0557 37.0684C57.249 37.0098 55.4473 36.9805 53.6504 36.9805C52.5371 36.9805 50.8965 37 48.7285 37.0391C48.7285 39.1191 48.7822 41.7705 48.8896 44.9932C48.8994 45.2471 49.0117 45.4668 49.2266 45.6523C49.4414 45.8281 49.749 45.9648 50.1494 46.0625C50.5596 46.1602 50.9014 46.2334 51.1748 46.2822C51.458 46.3213 51.8242 46.3604 52.2734 46.3994C52.3125 46.5947 52.332 46.7266 52.332 46.7949C52.332 46.873 52.3125 46.9707 52.2734 47.0879C50.6133 47.0293 48.9141 47 47.1758 47C45.418 47 43.7188 47.0293 42.0781 47.0879C42.0391 46.9707 42.0195 46.873 42.0195 46.7949C42.0195 46.6289 42.0391 46.4971 42.0781 46.3994C42.5273 46.3604 42.8887 46.3213 43.1621 46.2822C43.4453 46.2334 43.7871 46.1602 44.1875 46.0625C44.5977 45.9648 44.9102 45.8281 45.125 45.6523C45.3398 45.4668 45.4521 45.2471 45.4619 44.9932C45.5791 41.9365 45.6377 38.8555 45.6377 35.75C45.6377 32.5859 45.5889 29.8564 45.4912 27.5615C45.4814 27.3076 45.3691 27.0928 45.1543 26.917C44.9395 26.7314 44.627 26.5898 44.2168 26.4922C43.8164 26.3945 43.4746 26.3262 43.1914 26.2871C42.918 26.2383 42.5566 26.1943 42.1074 26.1553C42.0684 25.9795 42.0488 25.8574 42.0488 25.7891C42.0488 25.6914 42.0684 25.584 42.1074 25.4668ZM74.9346 33.6846C75.9014 33.6846 76.7705 33.8555 77.542 34.1973C78.3232 34.5391 78.9873 35.0127 79.5342 35.6182C80.0811 36.2236 80.501 36.9512 80.7939 37.8008C81.0869 38.6406 81.2334 39.5586 81.2334 40.5547C81.2334 42.5859 80.6621 44.2363 79.5195 45.5059C78.3867 46.7852 76.8584 47.4248 74.9346 47.4248C73.9775 47.4248 73.1084 47.2588 72.3271 46.9268C71.5557 46.585 70.8965 46.1113 70.3496 45.5059C69.8027 44.8906 69.3779 44.1631 69.0752 43.3232C68.7822 42.4834 68.6357 41.5605 68.6357 40.5547C68.6357 39.5586 68.7822 38.6406 69.0752 37.8008C69.3682 36.9512 69.7832 36.2236 70.3203 35.6182C70.8672 35.0127 71.5312 34.5391 72.3125 34.1973C73.0938 33.8555 73.9678 33.6846 74.9346 33.6846ZM74.9346 34.6367C73.9385 34.6367 73.1426 35.1201 72.5469 36.0869C71.9609 37.0537 71.668 38.543 71.668 40.5547C71.668 42.5664 71.9609 44.0557 72.5469 45.0225C73.1426 45.9795 73.9385 46.458 74.9346 46.458C75.9307 46.458 76.7217 45.9746 77.3076 45.0078C77.9033 44.041 78.2012 42.5566 78.2012 40.5547C78.2012 39.5488 78.123 38.6748 77.9668 37.9326C77.8105 37.1904 77.5908 36.5752 77.3076 36.0869C77.0244 35.5986 76.6826 35.2373 76.2822 35.0029C75.8818 34.7588 75.4326 34.6367 74.9346 34.6367ZM84.1777 25.4668C86.3652 25.5449 88.0645 25.584 89.2754 25.584C90.4863 25.584 92.1855 25.5449 94.373 25.4668C94.4121 25.623 94.4316 25.7305 94.4316 25.7891C94.4316 25.8574 94.4121 25.9795 94.373 26.1553C93.9238 26.1943 93.5576 26.2383 93.2744 26.2871C93.001 26.3262 92.6592 26.3945 92.249 26.4922C91.8486 26.5898 91.541 26.7314 91.3262 26.917C91.1113 27.0928 90.999 27.3076 90.9893 27.5615C90.8623 30.8818 90.7988 33.9727 90.7988 36.834C90.7988 38.3086 90.8525 41.3994 90.96 46.1064H95.4863C96.9219 46.0088 98.2061 45.7988 99.3389 45.4766C100.472 45.1543 101.414 44.7441 102.166 44.2461C102.928 43.7383 103.553 43.2158 104.041 42.6787C104.539 42.1318 104.969 41.5215 105.33 40.8477C105.584 40.9453 105.75 41.0771 105.828 41.2432C105.428 41.9854 105.115 42.5859 104.891 43.0449C104.676 43.5039 104.437 44.1094 104.173 44.8613C103.919 45.6035 103.753 46.3164 103.675 47H90.96C88.3135 47 86.043 47.0293 84.1484 47.0879C84.1094 46.9707 84.0898 46.873 84.0898 46.7949C84.0898 46.7266 84.1094 46.5947 84.1484 46.3994C84.5977 46.3604 84.959 46.3213 85.2324 46.2822C85.5156 46.2334 85.8574 46.1602 86.2578 46.0625C86.668 45.9648 86.9805 45.8281 87.1953 45.6523C87.4102 45.4668 87.5225 45.2471 87.5322 44.9932C87.6494 41.9365 87.708 38.8555 87.708 35.75C87.708 32.5859 87.6592 29.8564 87.5615 27.5615C87.5518 27.3076 87.4395 27.0928 87.2246 26.917C87.0098 26.7314 86.6973 26.5898 86.2871 26.4922C85.8867 26.3945 85.5449 26.3262 85.2617 26.2871C84.9883 26.2383 84.627 26.1943 84.1777 26.1553C84.1387 25.9795 84.1191 25.8574 84.1191 25.7891C84.1191 25.6914 84.1387 25.584 84.1777 25.4668ZM107.586 25.4668C109.773 25.5449 111.473 25.584 112.684 25.584C113.895 25.584 115.594 25.5449 117.781 25.4668C117.82 25.623 117.84 25.7305 117.84 25.7891C117.84 25.8574 117.82 25.9795 117.781 26.1553C117.332 26.1943 116.966 26.2383 116.683 26.2871C116.409 26.3262 116.067 26.3945 115.657 26.4922C115.257 26.5898 114.949 26.7314 114.734 26.917C114.52 27.0928 114.407 27.3076 114.397 27.5615C114.271 30.8818 114.207 33.9727 114.207 36.834C114.207 38.3086 114.261 41.3994 114.368 46.1064H118.895C120.33 46.0088 121.614 45.7988 122.747 45.4766C123.88 45.1543 124.822 44.7441 125.574 44.2461C126.336 43.7383 126.961 43.2158 127.449 42.6787C127.947 42.1318 128.377 41.5215 128.738 40.8477C128.992 40.9453 129.158 41.0771 129.236 41.2432C128.836 41.9854 128.523 42.5859 128.299 43.0449C128.084 43.5039 127.845 44.1094 127.581 44.8613C127.327 45.6035 127.161 46.3164 127.083 47H114.368C111.722 47 109.451 47.0293 107.557 47.0879C107.518 46.9707 107.498 46.873 107.498 46.7949C107.498 46.7266 107.518 46.5947 107.557 46.3994C108.006 46.3604 108.367 46.3213 108.641 46.2822C108.924 46.2334 109.266 46.1602 109.666 46.0625C110.076 45.9648 110.389 45.8281 110.604 45.6523C110.818 45.4668 110.931 45.2471 110.94 44.9932C111.058 41.9365 111.116 38.8555 111.116 35.75C111.116 32.5859 111.067 29.8564 110.97 27.5615C110.96 27.3076 110.848 27.0928 110.633 26.917C110.418 26.7314 110.105 26.5898 109.695 26.4922C109.295 26.3945 108.953 26.3262 108.67 26.2871C108.396 26.2383 108.035 26.1943 107.586 26.1553C107.547 25.9795 107.527 25.8574 107.527 25.7891C107.527 25.6914 107.547 25.584 107.586 25.4668ZM128.855 34.0068C130.145 34.0654 131.448 34.0947 132.767 34.0947C133.968 34.0947 135.198 34.0654 136.458 34.0068C136.497 34.1631 136.517 34.2852 136.517 34.373C136.517 34.4316 136.497 34.5391 136.458 34.6953C136.165 34.7148 135.931 34.7393 135.755 34.7686C135.579 34.7881 135.35 34.8271 135.066 34.8857C134.793 34.9443 134.583 35.0322 134.437 35.1494C134.3 35.2666 134.231 35.4082 134.231 35.5742C134.231 35.6621 134.271 35.8428 134.349 36.1162L137.322 43.5137H137.41L140.237 36.1162C140.335 35.8721 140.384 35.6621 140.384 35.4863C140.384 35.0371 139.822 34.7734 138.699 34.6953C138.66 34.5391 138.641 34.4316 138.641 34.373C138.641 34.2852 138.66 34.1631 138.699 34.0068C139.842 34.0654 140.555 34.0947 140.838 34.0947C141.658 34.0947 142.698 34.0654 143.958 34.0068C143.997 34.124 144.017 34.2266 144.017 34.3145C144.017 34.373 143.997 34.5 143.958 34.6953C142.737 34.7441 141.946 35.2178 141.585 36.1162L137.059 46.9414H137.088L135.462 51.2041C134.856 52.7861 134.29 53.8555 133.763 54.4121C133.245 54.9688 132.581 55.2471 131.771 55.2471C131.116 55.2471 130.569 55.0518 130.13 54.6611C129.7 54.2705 129.485 53.7578 129.485 53.123C129.485 52.5469 129.646 52.0928 129.969 51.7607C130.291 51.4287 130.691 51.2627 131.17 51.2627C131.609 51.2627 131.946 51.3945 132.181 51.6582C132.425 51.9219 132.547 52.2197 132.547 52.5518C132.547 53.0205 132.337 53.3916 131.917 53.665C131.966 53.8799 132.127 53.9873 132.4 53.9873C132.713 53.9873 133.006 53.8066 133.279 53.4453C133.553 53.0938 133.909 52.3369 134.349 51.1748L135.975 47L131.404 36.1162C131.297 35.8721 131.146 35.6621 130.95 35.4863C130.755 35.3008 130.516 35.1592 130.232 35.0615C129.959 34.9541 129.729 34.8809 129.544 34.8418C129.358 34.793 129.129 34.7441 128.855 34.6953C128.816 34.6172 128.797 34.5098 128.797 34.373C128.797 34.2266 128.816 34.1045 128.855 34.0068ZM33.1426 65.4961C34.7832 65.5547 36.4922 65.584 38.2695 65.584C39.1094 65.584 39.9102 65.5645 40.6719 65.5254C41.4336 65.4863 41.8242 65.4668 41.8438 65.4668C42.3711 65.4668 42.8545 65.4814 43.2939 65.5107C43.7432 65.5303 44.2461 65.5791 44.8027 65.6572C45.3691 65.7354 45.8721 65.8428 46.3115 65.9795C46.751 66.1162 47.1904 66.3066 47.6299 66.5508C48.0791 66.7949 48.4502 67.083 48.7432 67.415C49.0459 67.7471 49.29 68.1572 49.4756 68.6455C49.6611 69.1338 49.7539 69.6807 49.7539 70.2861C49.7539 72.0732 48.6846 73.416 46.5459 74.3145V74.4316C48.1475 74.7246 49.4854 75.3887 50.5596 76.4238C51.6436 77.459 52.1855 78.7822 52.1855 80.3936C52.1855 81.2529 52.0293 82.0293 51.7168 82.7227C51.4141 83.4062 51.0234 83.9727 50.5449 84.4219C50.0664 84.8711 49.4658 85.2617 48.7432 85.5938C48.0205 85.9258 47.3174 86.1797 46.6338 86.3555C45.9502 86.5312 45.1641 86.6729 44.2754 86.7803C43.3965 86.8779 42.6445 86.9414 42.0195 86.9707C41.3945 86.9902 40.6963 87 39.9248 87C37.2783 87 35.0078 87.0293 33.1133 87.0879C33.0742 86.9707 33.0547 86.873 33.0547 86.7949C33.0547 86.7266 33.0742 86.5947 33.1133 86.3994C33.4062 86.3701 33.6406 86.3457 33.8164 86.3262C33.9922 86.3066 34.2314 86.2725 34.5342 86.2236C34.8467 86.1748 35.0957 86.1211 35.2812 86.0625C35.4766 85.9941 35.6768 85.9111 35.8818 85.8135C36.0869 85.7158 36.2383 85.5986 36.3359 85.4619C36.4434 85.3252 36.4971 85.1689 36.4971 84.9932C36.6143 81.9365 36.6729 78.8555 36.6729 75.75C36.6729 72.5859 36.624 69.8564 36.5264 67.5615C36.5166 67.3076 36.4043 67.0928 36.1895 66.917C35.9844 66.7412 35.6719 66.6045 35.252 66.5068C34.832 66.4092 34.4951 66.3457 34.2412 66.3164C33.9873 66.2773 33.6211 66.2334 33.1426 66.1846C33.1035 66.0088 33.084 65.8867 33.084 65.8184C33.084 65.7598 33.1035 65.6523 33.1426 65.4961ZM39.7637 75.75V76.834L39.9248 86.0039C40.5791 86.0039 41.1602 85.9941 41.668 85.9746C42.1758 85.9453 42.7324 85.8867 43.3379 85.7988C43.9434 85.7012 44.4707 85.5742 44.9199 85.418C45.3691 85.2617 45.8184 85.0469 46.2676 84.7734C46.7168 84.4902 47.083 84.1582 47.3662 83.7773C47.6494 83.3965 47.8789 82.9277 48.0547 82.3711C48.2305 81.8047 48.3184 81.1699 48.3184 80.4668C48.3184 79.7832 48.2061 79.1729 47.9814 78.6357C47.7568 78.0889 47.4395 77.6348 47.0293 77.2734C46.6289 76.9023 46.1357 76.5947 45.5498 76.3506C44.9736 76.1064 44.3438 75.9307 43.6602 75.8232C42.9863 75.7158 42.249 75.6621 41.4482 75.6621C40.8916 75.6621 40.3301 75.6914 39.7637 75.75ZM39.9541 66.5068L39.7637 74.8564C43.748 74.8564 45.7402 73.333 45.7402 70.2861C45.7402 68.958 45.3252 67.9814 44.4951 67.3564C43.6748 66.7314 42.5811 66.4189 41.2139 66.4189C40.9111 66.4189 40.4912 66.4482 39.9541 66.5068ZM77.3955 73.6846C78.3623 73.6846 79.2314 73.8555 80.0029 74.1973C80.7842 74.5391 81.4482 75.0127 81.9951 75.6182C82.542 76.2236 82.9619 76.9512 83.2549 77.8008C83.5479 78.6406 83.6943 79.5586 83.6943 80.5547C83.6943 82.5859 83.123 84.2363 81.9805 85.5059C80.8477 86.7852 79.3193 87.4248 77.3955 87.4248C76.4385 87.4248 75.5693 87.2588 74.7881 86.9268C74.0166 86.585 73.3574 86.1113 72.8105 85.5059C72.2637 84.8906 71.8389 84.1631 71.5361 83.3232C71.2432 82.4834 71.0967 81.5605 71.0967 80.5547C71.0967 79.5586 71.2432 78.6406 71.5361 77.8008C71.8291 76.9512 72.2441 76.2236 72.7812 75.6182C73.3281 75.0127 73.9922 74.5391 74.7734 74.1973C75.5547 73.8555 76.4287 73.6846 77.3955 73.6846ZM77.3955 74.6367C76.3994 74.6367 75.6035 75.1201 75.0078 76.0869C74.4219 77.0537 74.1289 78.543 74.1289 80.5547C74.1289 82.5664 74.4219 84.0557 75.0078 85.0225C75.6035 85.9795 76.3994 86.458 77.3955 86.458C78.3916 86.458 79.1826 85.9746 79.7686 85.0078C80.3643 84.041 80.6621 82.5566 80.6621 80.5547C80.6621 79.5488 80.584 78.6748 80.4277 77.9326C80.2715 77.1904 80.0518 76.5752 79.7686 76.0869C79.4854 75.5986 79.1436 75.2373 78.7432 75.0029C78.3428 74.7588 77.8936 74.6367 77.3955 74.6367ZM101.39 73.6846C102.356 73.6846 103.226 73.8555 103.997 74.1973C104.778 74.5391 105.442 75.0127 105.989 75.6182C106.536 76.2236 106.956 76.9512 107.249 77.8008C107.542 78.6406 107.688 79.5586 107.688 80.5547C107.688 82.5859 107.117 84.2363 105.975 85.5059C104.842 86.7852 103.313 87.4248 101.39 87.4248C100.433 87.4248 99.5635 87.2588 98.7822 86.9268C98.0107 86.585 97.3516 86.1113 96.8047 85.5059C96.2578 84.8906 95.833 84.1631 95.5303 83.3232C95.2373 82.4834 95.0908 81.5605 95.0908 80.5547C95.0908 79.5586 95.2373 78.6406 95.5303 77.8008C95.8232 76.9512 96.2383 76.2236 96.7754 75.6182C97.3223 75.0127 97.9863 74.5391 98.7676 74.1973C99.5488 73.8555 100.423 73.6846 101.39 73.6846ZM101.39 74.6367C100.394 74.6367 99.5977 75.1201 99.002 76.0869C98.416 77.0537 98.123 78.543 98.123 80.5547C98.123 82.5664 98.416 84.0557 99.002 85.0225C99.5977 85.9795 100.394 86.458 101.39 86.458C102.386 86.458 103.177 85.9746 103.763 85.0078C104.358 84.041 104.656 82.5566 104.656 80.5547C104.656 79.5488 104.578 78.6748 104.422 77.9326C104.266 77.1904 104.046 76.5752 103.763 76.0869C103.479 75.5986 103.138 75.2373 102.737 75.0029C102.337 74.7588 101.888 74.6367 101.39 74.6367ZM135.271 86.3994C136.131 86.3115 136.561 86.082 136.561 85.7109C136.561 85.4961 136.453 85.2568 136.238 84.9932L132.239 79.8662H131.521C131.521 82.2002 131.551 83.9092 131.609 84.9932C131.609 85.2471 131.673 85.4668 131.8 85.6523C131.937 85.8281 132.132 85.9648 132.386 86.0625C132.649 86.1602 132.864 86.2334 133.03 86.2822C133.206 86.3213 133.436 86.3604 133.719 86.3994C133.777 86.5166 133.807 86.6387 133.807 86.7656C133.807 86.8926 133.777 87 133.719 87.0879C132.43 87.0293 131.209 87 130.057 87C128.865 87 127.625 87.0293 126.336 87.0879C126.297 86.9316 126.277 86.8242 126.277 86.7656C126.277 86.7168 126.297 86.5947 126.336 86.3994C126.658 86.3604 126.917 86.3213 127.112 86.2822C127.317 86.2334 127.571 86.1602 127.874 86.0625C128.187 85.9648 128.421 85.8281 128.577 85.6523C128.733 85.4668 128.816 85.2471 128.826 84.9932C128.865 84.0264 128.88 80.9795 128.87 75.8525C128.86 70.7158 128.855 67.8398 128.855 67.2246C128.299 66.9023 127.361 66.7021 126.043 66.624C125.994 66.4971 125.97 66.3799 125.97 66.2725C125.97 66.1748 125.994 66.0625 126.043 65.9355C127.898 65.7598 129.544 65.3594 130.979 64.7344C131.243 64.8418 131.414 64.9736 131.492 65.1299L131.521 78.9287H132.283L135.242 76.1162C135.428 75.9014 135.521 75.6816 135.521 75.457C135.521 75.0469 135.057 74.793 134.129 74.6953C134.09 74.5391 134.07 74.4316 134.07 74.373C134.07 74.2852 134.09 74.1631 134.129 74.0068C135.398 74.0654 136.409 74.0947 137.161 74.0947C137.981 74.0947 139.021 74.0654 140.281 74.0068C140.32 74.124 140.34 74.2266 140.34 74.3145C140.34 74.373 140.32 74.5 140.281 74.6953C139.412 74.793 138.694 74.9395 138.128 75.1348C137.562 75.3203 137.049 75.6475 136.59 76.1162L134.261 78.4746L139.417 84.9932C140.003 85.7549 140.882 86.2236 142.054 86.3994C142.093 86.5947 142.112 86.7266 142.112 86.7949C142.112 86.873 142.093 86.9707 142.054 87.0879C140.794 87.0293 139.656 87 138.641 87C137.654 87 136.531 87.0293 135.271 87.0879C135.232 86.9316 135.213 86.8145 135.213 86.7363C135.213 86.668 135.232 86.5557 135.271 86.3994Z" fill="black"/>
<path d="M42.1074 25.4668L42.3216 19.4706L37.835 19.3104L36.4153 23.5694L42.1074 25.4668ZM52.3027 25.4668L58.1236 24.0116L56.945 19.2972L52.0886 19.4706L52.3027 25.4668ZM52.3027 26.1553L52.8225 32.1327L57.2055 31.7516L58.1599 27.4569L52.3027 26.1553ZM51.2041 26.2871L52.0526 32.2268L52.1383 32.2146L52.2235 32.1999L51.2041 26.2871ZM50.1787 26.4922L48.789 20.6554L48.773 20.6592L48.757 20.6631L50.1787 26.4922ZM49.2559 26.917L53.0553 31.5607L53.1171 31.5101L53.1776 31.4579L49.2559 26.917ZM48.9189 27.5615L54.9133 27.8221L54.9139 27.8071L54.9145 27.7921L48.9189 27.5615ZM48.7285 35.7207H42.7285V41.5084L48.5124 41.7168L48.7285 35.7207ZM59.0557 35.6914L59.2502 41.6883L65.1184 41.4979L65.0553 35.6269L59.0557 35.6914ZM58.9092 27.5615L64.906 27.3649L64.9054 27.3479L64.9047 27.3309L58.9092 27.5615ZM58.5723 26.917L54.6505 31.4579L54.711 31.5101L54.7728 31.5607L58.5723 26.917ZM56.5947 26.2871L55.54 32.1937L55.6571 32.2146L55.7749 32.2308L56.5947 26.2871ZM55.5107 26.1553L49.6536 27.4569L50.608 31.7516L54.991 32.1327L55.5107 26.1553ZM55.5107 25.4668L55.723 19.4706L50.8681 19.2987L49.6899 24.0116L55.5107 25.4668ZM65.7207 25.4668L71.5416 24.0116L70.3633 19.2987L65.5084 19.4706L65.7207 25.4668ZM65.7207 26.1553L66.2405 32.1327L70.6234 31.7516L71.5778 27.4569L65.7207 26.1553ZM64.6221 26.2871L65.4706 32.2268L65.5562 32.2146L65.6415 32.1999L64.6221 26.2871ZM62.6592 26.917L66.4586 31.5607L66.5204 31.5101L66.5809 31.4579L62.6592 26.917ZM62.3223 27.5615L68.3174 27.8023L68.3178 27.7921L62.3223 27.5615ZM62.3223 44.9932L68.3178 44.7626L68.3174 44.7524L62.3223 44.9932ZM62.6592 45.6523L58.7375 50.1933L58.7979 50.2455L58.8598 50.2961L62.6592 45.6523ZM64.6221 46.2822L63.5673 52.1888L63.6844 52.2097L63.8022 52.226L64.6221 46.2822ZM65.7207 46.3994L71.5416 44.9442L70.5037 40.7927L66.2405 40.422L65.7207 46.3994ZM65.7207 47.0879L65.5091 53.0842L69.9937 53.2424L71.4128 48.9853L65.7207 47.0879ZM55.5107 47.0879L49.8186 48.9853L51.238 53.2434L55.7236 53.0841L55.5107 47.0879ZM55.5107 46.3994L54.991 40.422L51.3115 40.7419L49.9399 44.1711L55.5107 46.3994ZM56.6094 46.2822L57.4292 52.226L57.5293 52.2122L57.6288 52.195L56.6094 46.2822ZM58.5869 45.6523L62.3863 50.2961L62.4482 50.2455L62.5086 50.1933L58.5869 45.6523ZM58.9092 44.9932L52.9107 44.8587L52.9092 44.9259V44.9932H58.9092ZM59.0557 37.0684L65.0553 37.1336L65.1191 31.2619L59.2502 31.0715L59.0557 37.0684ZM48.7285 37.0391L48.6204 31.04L42.7285 31.1462V37.0391H48.7285ZM48.8896 44.9932L42.893 45.1931L42.8935 45.2084L42.8941 45.2238L48.8896 44.9932ZM49.2266 45.6523L45.3048 50.1933L45.3653 50.2455L45.4271 50.2961L49.2266 45.6523ZM50.1494 46.0625L48.7277 51.8916L48.7437 51.8955L48.7597 51.8993L50.1494 46.0625ZM51.1748 46.2822L50.1201 52.1888L50.2372 52.2097L50.355 52.226L51.1748 46.2822ZM52.2734 46.3994L58.1569 45.2227L57.2747 40.8117L52.7932 40.422L52.2734 46.3994ZM52.2734 47.0879L52.0618 53.0842L56.5465 53.2424L57.9655 48.9853L52.2734 47.0879ZM42.0781 47.0879L36.386 48.9853L37.8057 53.2443L42.2923 53.0841L42.0781 47.0879ZM42.0781 46.3994L41.5583 40.422L37.8789 40.7419L36.5073 44.1711L42.0781 46.3994ZM43.1621 46.2822L44.0106 52.2219L44.0963 52.2097L44.1816 52.195L43.1621 46.2822ZM44.1875 46.0625L42.7978 40.2257L42.7818 40.2295L42.7658 40.2334L44.1875 46.0625ZM45.125 45.6523L48.9244 50.2961L48.9863 50.2455L49.0467 50.1933L45.125 45.6523ZM45.4619 44.9932L51.4575 45.2238L51.4575 45.223L45.4619 44.9932ZM45.4912 27.5615L39.4956 27.7921L39.4961 27.8044L39.4966 27.8166L45.4912 27.5615ZM45.1543 26.917L41.2326 31.4579L41.293 31.5101L41.3549 31.5607L45.1543 26.917ZM44.2168 26.4922L42.7951 32.3213L42.8111 32.3252L42.8271 32.329L44.2168 26.4922ZM43.1914 26.2871L42.1367 32.1937L42.2538 32.2146L42.3716 32.2308L43.1914 26.2871ZM42.1074 26.1553L36.2503 27.4569L37.2047 31.7516L41.5876 32.1327L42.1074 26.1553ZM41.8933 31.463C44.1052 31.542 45.8876 31.584 47.2051 31.584V19.584C46.1007 19.584 44.4847 19.5479 42.3216 19.4706L41.8933 31.463ZM47.2051 31.584C48.5226 31.584 50.305 31.542 52.5169 31.463L52.0886 19.4706C49.9255 19.5479 48.3094 19.584 47.2051 19.584V31.584ZM46.4819 26.922C46.4812 26.9194 46.4773 26.9034 46.4712 26.8764C46.4655 26.8505 46.4553 26.8027 46.4435 26.7379C46.4323 26.6762 46.4146 26.5718 46.3988 26.437C46.3843 26.3143 46.3613 26.084 46.3613 25.7891H58.3613C58.3613 24.8855 58.1434 24.0909 58.1236 24.0116L46.4819 26.922ZM46.3613 25.7891C46.3613 25.5391 46.3781 25.3442 46.389 25.2382C46.4008 25.1229 46.4139 25.0347 46.422 24.9839C46.4376 24.8865 46.4497 24.8353 46.4456 24.8537L58.1599 27.4569C58.1885 27.3281 58.3613 26.6028 58.3613 25.7891H46.3613ZM51.783 20.1778C51.2488 20.2243 50.6987 20.2857 50.1847 20.3743L52.2235 32.1999C52.2759 32.1908 52.4582 32.1644 52.8225 32.1327L51.783 20.1778ZM50.3556 20.3474C49.8323 20.4222 49.2955 20.5348 48.789 20.6554L51.5684 32.329C51.7168 32.2937 51.8326 32.2685 51.9194 32.2512C51.9621 32.2426 51.9948 32.2366 52.0182 32.2325C52.0418 32.2284 52.0529 32.2268 52.0526 32.2268L50.3556 20.3474ZM48.757 20.6631C47.8204 20.8915 46.5194 21.3524 45.3341 22.3761L53.1776 31.4579C52.422 32.1105 51.7362 32.2882 51.6004 32.3213L48.757 20.6631ZM45.4564 22.2732C44.0493 23.4245 43.0058 25.1886 42.9234 27.3309L54.9145 27.7921C54.8869 28.5107 54.7039 29.2701 54.3279 29.9895C53.9584 30.6962 53.4841 31.2099 53.0553 31.5607L45.4564 22.2732ZM42.9246 27.3009C42.7945 30.2943 42.7285 33.1019 42.7285 35.7207H54.7285C54.7285 33.3005 54.7895 30.6686 54.9133 27.8221L42.9246 27.3009ZM48.5124 41.7168C49.709 41.7599 51.4382 41.7793 53.6504 41.7793V29.7793C51.468 29.7793 49.916 29.7596 48.9446 29.7246L48.5124 41.7168ZM53.6504 41.7793C55.5125 41.7793 57.3791 41.7489 59.2502 41.6883L58.8612 29.6946C57.119 29.7511 55.382 29.7793 53.6504 29.7793V41.7793ZM65.0553 35.6269C65.0162 31.9851 64.9668 29.2209 64.906 27.3649L52.9124 27.7581C52.9687 29.4764 53.017 32.1321 53.056 35.7559L65.0553 35.6269ZM64.9047 27.3309C64.8223 25.1886 63.7788 23.4245 62.3717 22.2732L54.7728 31.5607C54.344 31.2099 53.8697 30.6962 53.5003 29.9895C53.1242 29.2701 52.9413 28.5107 52.9136 27.7921L64.9047 27.3309ZM62.494 22.3761C61.2836 21.3307 59.9519 20.8762 59.0245 20.6554L56.245 32.329C56.158 32.3083 55.9622 32.2554 55.7004 32.1368C55.4382 32.018 55.0576 31.8095 54.6505 31.4579L62.494 22.3761ZM59.0245 20.6554C58.5054 20.5318 57.9559 20.4181 57.4146 20.3434L55.7749 32.2308C55.8 32.2343 55.9438 32.2573 56.245 32.329L59.0245 20.6554ZM57.6495 20.3805C57.1246 20.2868 56.5636 20.2242 56.0305 20.1778L54.991 32.1327C55.1626 32.1476 55.2954 32.1616 55.3943 32.1736C55.4961 32.186 55.5404 32.1937 55.54 32.1937L57.6495 20.3805ZM61.3679 24.8537C61.3638 24.8353 61.3758 24.8865 61.3914 24.9839C61.3996 25.0347 61.4127 25.1229 61.4245 25.2382C61.4354 25.3442 61.4521 25.5391 61.4521 25.7891H49.4521C49.4521 26.6028 49.625 27.3281 49.6536 27.4569L61.3679 24.8537ZM61.4521 25.7891C61.4521 26.084 61.4292 26.3143 61.4147 26.437C61.3989 26.5718 61.3812 26.6762 61.37 26.7379C61.3582 26.8027 61.348 26.8505 61.3422 26.8764C61.3362 26.9034 61.3323 26.9194 61.3316 26.922L49.6899 24.0116C49.67 24.0909 49.4521 24.8855 49.4521 25.7891H61.4521ZM55.2985 31.463C57.5276 31.5419 59.3102 31.584 60.6084 31.584V19.584C59.5238 19.584 57.908 19.5479 55.723 19.4706L55.2985 31.463ZM60.6084 31.584C61.916 31.584 63.7032 31.542 65.933 31.463L65.5084 19.4706C63.3242 19.5479 61.7032 19.584 60.6084 19.584V31.584ZM59.8998 26.922C59.8992 26.9194 59.8952 26.9034 59.8892 26.8764C59.8835 26.8505 59.8732 26.8027 59.8614 26.7379C59.8502 26.6762 59.8326 26.5718 59.8167 26.437C59.8023 26.3143 59.7793 26.084 59.7793 25.7891H71.7793C71.7793 24.8855 71.5614 24.0909 71.5416 24.0116L59.8998 26.922ZM59.7793 25.7891C59.7793 25.5391 59.7961 25.3442 59.8069 25.2382C59.8188 25.1229 59.8319 25.0347 59.84 24.9839C59.8556 24.8865 59.8677 24.8353 59.8636 24.8537L71.5778 27.4569C71.6064 27.3281 71.7793 26.6028 71.7793 25.7891H59.7793ZM65.2009 20.1778C64.6668 20.2243 64.1167 20.2857 63.6026 20.3743L65.6415 32.1999C65.6938 32.1908 65.8762 32.1644 66.2405 32.1327L65.2009 20.1778ZM63.7735 20.3474C63.2502 20.4222 62.7135 20.5348 62.207 20.6554L64.9864 32.329C65.1348 32.2937 65.2506 32.2685 65.3373 32.2512C65.3801 32.2426 65.4128 32.2366 65.4362 32.2325C65.4598 32.2284 65.4708 32.2268 65.4706 32.2268L63.7735 20.3474ZM62.207 20.6554C61.2795 20.8762 59.9478 21.3307 58.7375 22.3761L66.5809 31.4579C66.1738 31.8095 65.7932 32.018 65.5311 32.1368C65.2692 32.2554 65.0734 32.3083 64.9864 32.329L62.207 20.6554ZM58.8598 22.2732C57.4527 23.4245 56.4091 25.1886 56.3267 27.3309L68.3178 27.7921C68.2902 28.5107 68.1072 29.2701 67.7312 29.9895C67.3618 30.6962 66.8874 31.2099 66.4586 31.5607L58.8598 22.2732ZM56.3271 27.3208C56.2253 29.8568 56.1758 32.8515 56.1758 36.292H68.1758C68.1758 32.9551 68.224 30.1296 68.3174 27.8023L56.3271 27.3208ZM56.1758 36.292C56.1758 39.7134 56.2253 42.6983 56.3271 45.2339L68.3174 44.7524C68.224 42.4248 68.1758 39.6088 68.1758 36.292H56.1758ZM56.3267 45.2238C56.4082 47.3437 57.4269 49.0615 58.7375 50.1933L66.5809 41.1114C66.9722 41.4494 67.4113 41.9424 67.7564 42.6177C68.1089 43.3073 68.2902 44.0452 68.3178 44.7626L56.3267 45.2238ZM58.8598 50.2961C60.0468 51.2673 61.3303 51.6906 62.207 51.8993L64.9864 40.2257C65.0514 40.2411 65.2223 40.286 65.4596 40.3898C65.6952 40.4928 66.0586 40.6813 66.4586 41.0086L58.8598 50.2961ZM62.207 51.8993C62.6777 52.0114 63.1401 52.1125 63.5673 52.1888L65.6768 40.3757C65.5571 40.3543 65.336 40.3089 64.9864 40.2257L62.207 51.8993ZM63.8022 52.226C64.2249 52.2842 64.7014 52.3334 65.2009 52.3769L66.2405 40.422C65.8416 40.3873 65.5857 40.3583 65.4419 40.3385L63.8022 52.226ZM59.8998 47.8546C59.8813 47.7804 59.8535 47.6575 59.8294 47.4948C59.8059 47.3357 59.7793 47.0956 59.7793 46.7949H71.7793C71.7793 46.0185 71.6467 45.3649 71.5416 44.9442L59.8998 47.8546ZM59.7793 46.7949C59.7793 46.3485 59.8334 45.9887 59.8812 45.7501C59.9301 45.5053 59.9873 45.3144 60.0286 45.1905L71.4128 48.9853C71.5517 48.5686 71.7793 47.7806 71.7793 46.7949H59.7793ZM65.9323 41.0916C64.1981 41.0304 62.4234 41 60.6084 41V53C62.2895 53 63.923 53.0282 65.5091 53.0842L65.9323 41.0916ZM60.6084 41C58.7935 41 57.0232 41.0304 55.2979 41.0917L55.7236 53.0841C57.2991 53.0282 58.9272 53 60.6084 53V41ZM61.2028 45.1905C61.2441 45.3144 61.3013 45.5053 61.3503 45.7501C61.398 45.9887 61.4521 46.3485 61.4521 46.7949H49.4521C49.4521 47.7806 49.6798 48.5686 49.8186 48.9853L61.2028 45.1905ZM61.4521 46.7949C61.4521 46.938 61.4443 47.1652 61.402 47.4508C61.3606 47.7307 61.2745 48.1454 61.0816 48.6278L49.9399 44.1711C49.5014 45.2673 49.4521 46.2566 49.4521 46.7949H61.4521ZM56.0305 52.3769C56.53 52.3334 57.0066 52.2842 57.4292 52.226L55.7896 40.3385C55.6457 40.3583 55.3899 40.3873 54.991 40.422L56.0305 52.3769ZM57.6288 52.195C58.0788 52.1174 58.5572 52.0141 59.0391 51.8993L56.2597 40.2257C55.9213 40.3062 55.7063 40.3494 55.5899 40.3695L57.6288 52.195ZM59.0391 51.8993C59.9158 51.6906 61.1992 51.2673 62.3863 50.2961L54.7875 41.0086C55.1875 40.6813 55.5509 40.4928 55.7865 40.3898C56.0237 40.286 56.1947 40.2411 56.2597 40.2257L59.0391 51.8993ZM62.5086 50.1933C63.8687 49.0187 64.9092 47.2089 64.9092 44.9932H52.9092C52.9092 44.2426 53.0754 43.4555 53.4383 42.7131C53.793 41.9877 54.257 41.464 54.6652 41.1114L62.5086 50.1933ZM64.9077 45.1276C64.9859 41.6353 65.0354 38.9659 65.0553 37.1336L53.056 37.0031C53.0369 38.7646 52.9887 41.3784 52.9107 44.8587L64.9077 45.1276ZM59.2502 31.0715C57.3791 31.0108 55.5125 30.9805 53.6504 30.9805V42.9805C55.382 42.9805 57.119 43.0087 58.8612 43.0652L59.2502 31.0715ZM53.6504 30.9805C52.4816 30.9805 50.7975 31.0008 48.6204 31.04L48.8366 43.0381C50.9954 42.9992 52.5926 42.9805 53.6504 42.9805V30.9805ZM42.7285 37.0391C42.7285 39.2114 42.7844 41.9356 42.893 45.1931L54.8863 44.7933C54.7801 41.6054 54.7285 39.0268 54.7285 37.0391H42.7285ZM42.8941 45.2238C42.9756 47.3437 43.9943 49.0615 45.3048 50.1933L53.1483 41.1114C53.5396 41.4494 53.9787 41.9424 54.3238 42.6177C54.6762 43.3073 54.8576 44.0452 54.8852 44.7626L42.8941 45.2238ZM45.4271 50.2961C46.5895 51.2471 47.8431 51.6759 48.7277 51.8916L51.5712 40.2334C51.6448 40.2513 51.8186 40.2987 52.0552 40.4038C52.2911 40.5087 52.6418 40.6943 53.026 41.0086L45.4271 50.2961ZM48.7597 51.8993C49.2304 52.0114 49.6929 52.1125 50.1201 52.1888L52.2295 40.3757C52.1099 40.3543 51.8887 40.3089 51.5391 40.2257L48.7597 51.8993ZM50.355 52.226C50.7776 52.2842 51.2541 52.3334 51.7537 52.3769L52.7932 40.422C52.3943 40.3873 52.1384 40.3583 51.9946 40.3385L50.355 52.226ZM46.39 47.5761C46.3984 47.6181 46.3924 47.5933 46.3822 47.5241C46.3768 47.488 46.3665 47.4143 46.3567 47.3144C46.3482 47.2268 46.332 47.0396 46.332 46.7949H58.332C58.332 46.0377 58.1786 45.3311 58.1569 45.2227L46.39 47.5761ZM46.332 46.7949C46.332 46.3485 46.3862 45.9887 46.4339 45.7501C46.4829 45.5053 46.54 45.3144 46.5813 45.1905L57.9655 48.9853C58.1044 48.5686 58.332 47.7806 58.332 46.7949H46.332ZM52.4851 41.0916C50.7512 41.0304 48.9814 41 47.1758 41V53C48.8467 53 50.4753 53.0282 52.0618 53.0842L52.4851 41.0916ZM47.1758 41C45.3515 41 43.5807 41.0304 41.864 41.0917L42.2923 53.0841C43.8568 53.0282 45.4844 53 47.1758 53V41ZM47.7702 45.1905C47.8115 45.3144 47.8687 45.5053 47.9177 45.7501C47.9654 45.9887 48.0195 46.3485 48.0195 46.7949H36.0195C36.0195 47.7806 36.2471 48.5686 36.386 48.9853L47.7702 45.1905ZM48.0195 46.7949C48.0195 46.938 48.0117 47.1652 47.9694 47.4508C47.9279 47.7307 47.8419 48.1454 47.649 48.6278L36.5073 44.1711C36.0688 45.2673 36.0195 46.2566 36.0195 46.7949H48.0195ZM42.5979 52.3769C43.0978 52.3334 43.5818 52.2832 44.0106 52.2219L42.3136 40.3425C42.1956 40.3594 41.9568 40.3873 41.5583 40.422L42.5979 52.3769ZM44.1816 52.195C44.6437 52.1153 45.1275 52.0091 45.6092 51.8916L42.7658 40.2334C42.4467 40.3112 42.247 40.3515 42.1427 40.3695L44.1816 52.195ZM45.5772 51.8993C46.4539 51.6906 47.7373 51.2673 48.9244 50.2961L41.3256 41.0086C41.7256 40.6813 42.089 40.4928 42.3246 40.3898C42.5618 40.286 42.7328 40.2411 42.7978 40.2257L45.5772 51.8993ZM49.0467 50.1933C50.3572 49.0615 51.3759 47.3437 51.4575 45.2238L39.4663 44.7626C39.4939 44.0452 39.6753 43.3073 40.0278 42.6177C40.3729 41.9424 40.812 41.4494 41.2033 41.1114L49.0467 50.1933ZM51.4575 45.223C51.5777 42.0886 51.6377 38.9309 51.6377 35.75H39.6377C39.6377 38.78 39.5805 41.7844 39.4663 44.7633L51.4575 45.223ZM51.6377 35.75C51.6377 32.53 51.5881 29.7112 51.4858 27.3064L39.4966 27.8166C39.5896 30.0017 39.6377 32.6418 39.6377 35.75H51.6377ZM51.4868 27.3309C51.4044 25.1886 50.3608 23.4245 48.9537 22.2732L41.3549 31.5607C40.9261 31.2099 40.4517 30.6962 40.0823 29.9895C39.7062 29.2701 39.5233 28.5107 39.4956 27.7921L51.4868 27.3309ZM49.076 22.3761C47.8656 21.3307 46.534 20.8762 45.6065 20.6554L42.8271 32.329C42.74 32.3083 42.5442 32.2554 42.2824 32.1368C42.0203 32.018 41.6397 31.8095 41.2326 31.4579L49.076 22.3761ZM45.6385 20.6631C45.1181 20.5361 44.5636 20.4196 44.0112 20.3434L42.3716 32.2308C42.3712 32.2308 42.4063 32.2357 42.4835 32.2512C42.5592 32.2663 42.662 32.2889 42.7951 32.3213L45.6385 20.6631ZM44.2462 20.3805C43.7212 20.2868 43.1602 20.2242 42.6272 20.1778L41.5876 32.1327C41.7593 32.1476 41.8921 32.1616 41.9909 32.1736C42.0928 32.186 42.1371 32.1937 42.1367 32.1937L44.2462 20.3805ZM47.9645 24.8537C47.9605 24.8353 47.9725 24.8865 47.9881 24.9839C47.9962 25.0347 48.0094 25.1229 48.0212 25.2382C48.032 25.3442 48.0488 25.5391 48.0488 25.7891H36.0488C36.0488 26.6028 36.2217 27.3281 36.2503 27.4569L47.9645 24.8537ZM48.0488 25.7891C48.0488 26.4811 47.9129 27.024 47.7995 27.3642L36.4153 23.5694C36.2238 24.144 36.0488 24.9017 36.0488 25.7891H48.0488ZM77.542 34.1973L75.1116 39.683L75.1243 39.6886L75.1371 39.6942L77.542 34.1973ZM80.7939 37.8008L75.1217 39.7567L75.1252 39.7669L75.1287 39.777L80.7939 37.8008ZM79.5195 45.5059L75.0598 41.4921L75.0436 41.5101L75.0275 41.5282L79.5195 45.5059ZM72.3271 46.9268L69.8968 52.4125L69.9384 52.4309L69.9803 52.4487L72.3271 46.9268ZM70.3496 45.5059L65.8652 49.492L65.881 49.5099L65.897 49.5276L70.3496 45.5059ZM69.0752 43.3232L63.41 45.2995L63.4202 45.3287L63.4307 45.3579L69.0752 43.3232ZM69.0752 37.8008L74.7404 39.777L74.7439 39.7669L74.7474 39.7567L69.0752 37.8008ZM70.3203 35.6182L65.8677 31.5964L65.8497 31.6164L65.8319 31.6365L70.3203 35.6182ZM72.5469 36.0869L67.4387 32.9395L67.4271 32.9582L67.4157 32.9771L72.5469 36.0869ZM72.5469 45.0225L67.4157 48.1323L67.4342 48.1628L67.4531 48.1931L72.5469 45.0225ZM77.3076 45.0078L72.1994 41.8603L72.1879 41.8791L72.1764 41.898L77.3076 45.0078ZM76.2822 35.0029L73.1586 40.1257L73.2046 40.1538L73.2512 40.181L76.2822 35.0029ZM74.9346 39.6846C75.0643 39.6846 75.1335 39.696 75.1539 39.7C75.1723 39.7036 75.1536 39.7016 75.1116 39.683L79.9724 28.7115C78.3317 27.9847 76.617 27.6846 74.9346 27.6846V39.6846ZM75.1371 39.6942C75.165 39.7064 75.1625 39.7083 75.1419 39.6937C75.1325 39.6869 75.1216 39.6784 75.1103 39.6683C75.0989 39.6581 75.0892 39.6483 75.0816 39.6399L83.9868 31.5964C82.8439 30.3311 81.4716 29.3674 79.9469 28.7003L75.1371 39.6942ZM75.0816 39.6399C75.0634 39.6198 75.0578 39.6087 75.0627 39.6173C75.0684 39.627 75.0915 39.6691 75.1217 39.7567L86.4662 35.8448C85.9367 34.3095 85.1278 32.8597 83.9868 31.5964L75.0816 39.6399ZM75.1287 39.777C75.1752 39.9102 75.2334 40.1515 75.2334 40.5547H87.2334C87.2334 38.9657 86.9986 37.371 86.4591 35.8245L75.1287 39.777ZM75.2334 40.5547C75.2334 41.009 75.1698 41.2529 75.135 41.3533C75.1056 41.4383 75.0824 41.4669 75.0598 41.4921L83.9793 49.5196C86.2953 46.9463 87.2334 43.7718 87.2334 40.5547H75.2334ZM75.0275 41.5282C75.0258 41.5301 75.045 41.5086 75.0864 41.4787C75.1283 41.4485 75.1717 41.4251 75.2072 41.4103C75.2414 41.396 75.2469 41.3985 75.2102 41.4053C75.1716 41.4124 75.0834 41.4248 74.9346 41.4248V53.4248C78.3355 53.4248 81.5895 52.2187 84.0115 49.4835L75.0275 41.5282ZM74.9346 41.4248C74.8034 41.4248 74.7255 41.4135 74.6907 41.4068C74.6575 41.4005 74.6557 41.397 74.674 41.4048L69.9803 52.4487C71.5927 53.134 73.2736 53.4248 74.9346 53.4248V41.4248ZM74.7575 41.441C74.7448 41.4354 74.7397 41.4324 74.7407 41.433C74.7417 41.4335 74.747 41.4366 74.7552 41.4426C74.7635 41.4485 74.7726 41.4557 74.7816 41.4638C74.7906 41.4719 74.7976 41.479 74.8022 41.4841L65.897 49.5276C67.0273 50.779 68.383 51.7418 69.8968 52.4125L74.7575 41.441ZM74.8341 41.5197C74.8303 41.5154 74.8194 41.5027 74.8023 41.4734C74.7846 41.4432 74.7545 41.3852 74.7197 41.2886L63.4307 45.3579C63.9704 46.855 64.7695 48.2594 65.8652 49.492L74.8341 41.5197ZM74.7404 41.347C74.696 41.2197 74.6357 40.9747 74.6357 40.5547H62.6357C62.6357 42.1464 62.8685 43.7471 63.41 45.2995L74.7404 41.347ZM74.6357 40.5547C74.6357 40.1515 74.6939 39.9102 74.7404 39.777L63.41 35.8245C62.8705 37.371 62.6357 38.9657 62.6357 40.5547H74.6357ZM74.7474 39.7567C74.7811 39.6591 74.808 39.6082 74.8178 39.591C74.827 39.575 74.8249 39.5816 74.8088 39.5999L65.8319 31.6365C64.7157 32.8947 63.9249 34.3312 63.403 35.8448L74.7474 39.7567ZM74.7729 39.6399C74.7653 39.6483 74.7556 39.6581 74.7442 39.6683C74.7329 39.6784 74.722 39.6869 74.7125 39.6937C74.692 39.7083 74.6895 39.7064 74.7174 39.6942L69.9076 28.7003C68.3829 29.3674 67.0106 30.3311 65.8677 31.5964L74.7729 39.6399ZM74.7174 39.6942C74.6884 39.7069 74.6802 39.7062 74.7053 39.7012C74.7323 39.696 74.8051 39.6846 74.9346 39.6846V27.6846C73.2505 27.6846 71.5423 27.9851 69.9076 28.7003L74.7174 39.6942ZM74.9346 28.6367C71.5325 28.6367 68.9455 30.494 67.4387 32.9395L77.6551 39.2344C77.5625 39.3846 77.2785 39.7794 76.7053 40.1275C76.0986 40.496 75.4554 40.6367 74.9346 40.6367V28.6367ZM67.4157 32.9771C65.9722 35.3588 65.668 38.1861 65.668 40.5547H77.668C77.668 39.8204 77.7231 39.3502 77.7749 39.0871C77.8292 38.8108 77.8506 38.9121 77.6781 39.1967L67.4157 32.9771ZM65.668 40.5547C65.668 42.9233 65.9722 45.7506 67.4157 48.1323L77.6781 41.9127C77.8506 42.1973 77.8292 42.2986 77.7749 42.0223C77.7231 41.7591 77.668 41.289 77.668 40.5547H65.668ZM67.4531 48.1931C68.9731 50.6351 71.5616 52.458 74.9346 52.458V40.458C75.4437 40.458 76.0786 40.5941 76.6822 40.9569C77.2544 41.301 77.5426 41.6943 77.6407 41.8518L67.4531 48.1931ZM74.9346 52.458C78.3451 52.458 80.9401 50.5905 82.4388 48.1176L72.1764 41.898C72.273 41.7387 72.5625 41.3325 73.1462 40.9758C73.7631 40.5988 74.4141 40.458 74.9346 40.458V52.458ZM82.4158 48.1553C83.8879 45.7661 84.2012 42.9302 84.2012 40.5547H72.2012C72.2012 41.2778 72.1457 41.7366 72.095 41.989C72.0421 42.253 72.0236 42.1458 72.1994 41.8603L82.4158 48.1553ZM84.2012 40.5547C84.2012 39.2591 84.1024 37.952 83.8381 36.6966L72.0955 39.1687C72.1437 39.3976 72.2012 39.8385 72.2012 40.5547H84.2012ZM83.8381 36.6966C83.5926 35.5306 83.1894 34.2691 82.4978 33.0766L72.1174 39.0972C72.083 39.0379 72.0609 38.9926 72.0484 38.9652C72.0359 38.9379 72.032 38.926 72.0344 38.9326C72.0367 38.9391 72.0443 38.9613 72.0554 39.0014C72.0665 39.0414 72.0803 39.0966 72.0955 39.1687L83.8381 36.6966ZM82.4978 33.0766C81.8065 31.8847 80.7836 30.6855 79.3133 29.8248L73.2512 40.181C72.5816 39.7891 72.2423 39.3126 72.1174 39.0972L82.4978 33.0766ZM79.4059 29.8802C78.0055 29.0263 76.4634 28.6367 74.9346 28.6367V40.6367C74.4019 40.6367 73.7581 40.4913 73.1586 40.1257L79.4059 29.8802ZM84.1777 25.4668L84.3919 19.4706L79.9053 19.3104L78.4856 23.5694L84.1777 25.4668ZM94.373 25.4668L100.194 24.0116L99.0153 19.2972L94.1589 19.4706L94.373 25.4668ZM94.373 26.1553L94.8928 32.1327L99.2758 31.7516L100.23 27.4569L94.373 26.1553ZM93.2744 26.2871L94.1229 32.2268L94.2086 32.2146L94.2939 32.1999L93.2744 26.2871ZM92.249 26.4922L90.8593 20.6554L90.8433 20.6592L90.8273 20.6631L92.249 26.4922ZM91.3262 26.917L95.1256 31.5607L95.1874 31.5101L95.2479 31.4579L91.3262 26.917ZM90.9893 27.5615L84.9937 27.3309L84.9936 27.3323L90.9893 27.5615ZM90.96 46.1064L84.9615 46.2433L85.0953 52.1064H90.96V46.1064ZM95.4863 46.1064V52.1064H95.6902L95.8936 52.0926L95.4863 46.1064ZM99.3389 45.4766L97.6971 39.7055L99.3389 45.4766ZM102.166 44.2461L105.479 49.2484L105.487 49.2434L105.494 49.2384L102.166 44.2461ZM104.041 42.6787L99.605 38.6387L99.6014 38.6427L104.041 42.6787ZM105.33 40.8477L107.484 35.2476L102.544 33.3475L100.042 38.0122L105.33 40.8477ZM105.828 41.2432L111.109 44.0919L112.546 41.4276L111.257 38.6884L105.828 41.2432ZM104.891 43.0449L99.5013 40.4076L99.4785 40.4542L99.4565 40.5013L104.891 43.0449ZM104.173 44.8613L98.5108 42.876L98.5033 42.8975L98.4959 42.9192L104.173 44.8613ZM103.675 47V53H109.028L109.636 47.6813L103.675 47ZM84.1484 47.0879L78.4563 48.9853L79.869 53.2231L84.3339 53.085L84.1484 47.0879ZM84.1484 46.3994L83.6287 40.422L79.1472 40.8117L78.265 45.2227L84.1484 46.3994ZM85.2324 46.2822L86.081 52.2219L86.1666 52.2097L86.2519 52.195L85.2324 46.2822ZM86.2578 46.0625L84.8681 40.2257L84.8521 40.2295L84.8361 40.2334L86.2578 46.0625ZM87.1953 45.6523L90.9947 50.2961L91.0566 50.2455L91.117 50.1933L87.1953 45.6523ZM87.5322 44.9932L93.5278 45.2238L93.5278 45.223L87.5322 44.9932ZM87.5615 27.5615L81.566 27.7921L81.5664 27.8044L81.5669 27.8166L87.5615 27.5615ZM87.2246 26.917L83.3029 31.4579L83.3634 31.5101L83.4252 31.5607L87.2246 26.917ZM86.2871 26.4922L84.8654 32.3213L84.8814 32.3252L84.8974 32.329L86.2871 26.4922ZM85.2617 26.2871L84.207 32.1937L84.3241 32.2146L84.4419 32.2308L85.2617 26.2871ZM84.1777 26.1553L78.3206 27.4569L79.275 31.7516L83.658 32.1327L84.1777 26.1553ZM83.9636 31.463C86.1755 31.542 87.9579 31.584 89.2754 31.584V19.584C88.171 19.584 86.555 19.5479 84.3919 19.4706L83.9636 31.463ZM89.2754 31.584C90.5929 31.584 92.3753 31.542 94.5872 31.463L94.1589 19.4706C91.9958 19.5479 90.3798 19.584 89.2754 19.584V31.584ZM88.5522 26.922C88.5515 26.9194 88.5476 26.9034 88.5416 26.8764C88.5358 26.8505 88.5256 26.8027 88.5138 26.7379C88.5026 26.6762 88.4849 26.5718 88.4691 26.437C88.4546 26.3143 88.4316 26.084 88.4316 25.7891H100.432C100.432 24.8855 100.214 24.0909 100.194 24.0116L88.5522 26.922ZM88.4316 25.7891C88.4316 25.5391 88.4484 25.3442 88.4593 25.2382C88.4711 25.1229 88.4842 25.0347 88.4923 24.9839C88.5079 24.8865 88.52 24.8353 88.5159 24.8537L100.23 27.4569C100.259 27.3281 100.432 26.6028 100.432 25.7891H88.4316ZM93.8533 20.1778C93.3191 20.2243 92.7691 20.2857 92.255 20.3743L94.2939 32.1999C94.3462 32.1908 94.5285 32.1644 94.8928 32.1327L93.8533 20.1778ZM92.4259 20.3474C91.9026 20.4222 91.3658 20.5348 90.8593 20.6554L93.6387 32.329C93.7872 32.2937 93.903 32.2685 93.9897 32.2512C94.0324 32.2426 94.0651 32.2366 94.0885 32.2325C94.1121 32.2284 94.1232 32.2268 94.1229 32.2268L92.4259 20.3474ZM90.8273 20.6631C89.8908 20.8915 88.5897 21.3524 87.4045 22.3761L95.2479 31.4579C94.4923 32.1105 93.8065 32.2882 93.6708 32.3213L90.8273 20.6631ZM87.5267 22.2732C86.1197 23.4245 85.0761 25.1886 84.9937 27.3309L96.9848 27.7921C96.9572 28.5107 96.7742 29.2701 96.3982 29.9895C96.0288 30.6962 95.5544 31.2099 95.1256 31.5607L87.5267 22.2732ZM84.9936 27.3323C84.8642 30.7171 84.7988 33.8852 84.7988 36.834H96.7988C96.7988 34.0601 96.8604 31.0465 96.9849 27.7908L84.9936 27.3323ZM84.7988 36.834C84.7988 38.3895 84.8544 41.5509 84.9615 46.2433L96.9584 45.9696C96.8506 41.2479 96.7988 38.2277 96.7988 36.834H84.7988ZM90.96 52.1064H95.4863V40.1064H90.96V52.1064ZM95.8936 52.0926C97.6587 51.9725 99.3679 51.7064 100.981 51.2476L97.6971 39.7055C97.0442 39.8913 96.185 40.045 95.0791 40.1203L95.8936 52.0926ZM100.981 51.2476C102.536 50.8051 104.083 50.1729 105.479 49.2484L98.8528 39.2438C98.7448 39.3153 98.4074 39.5035 97.6971 39.7055L100.981 51.2476ZM105.494 49.2384C106.563 48.5257 107.59 47.6948 108.481 46.7147L99.6014 38.6427C99.5157 38.7369 99.2922 38.9509 98.8378 39.2538L105.494 49.2384ZM108.477 46.7187C109.319 45.7947 110.031 44.7773 110.618 43.6831L100.042 38.0122C99.9064 38.2657 99.7596 38.4689 99.605 38.6387L108.477 46.7187ZM103.176 46.4477C102.674 46.2545 101.238 45.5794 100.399 43.7979L111.257 38.6884C110.262 36.5749 108.494 35.6361 107.484 35.2476L103.176 46.4477ZM100.548 38.3944C100.13 39.1679 99.7758 39.8468 99.5013 40.4076L110.28 45.6822C110.455 45.3251 110.725 44.8028 111.109 44.0919L100.548 38.3944ZM99.4565 40.5013C99.1226 41.2146 98.8081 42.0282 98.5108 42.876L109.835 46.8467C110.065 46.1905 110.229 45.7932 110.325 45.5886L99.4565 40.5013ZM98.4959 42.9192C98.1212 44.0145 97.8471 45.151 97.7136 46.3187L109.636 47.6813C109.659 47.4818 109.717 47.1926 109.85 46.8035L98.4959 42.9192ZM103.675 41H90.96V53H103.675V41ZM90.96 41C88.2738 41 85.9381 41.0297 83.963 41.0908L84.3339 53.085C86.1479 53.0289 88.3532 53 90.96 53V41ZM89.8405 45.1905C89.8818 45.3144 89.939 45.5053 89.988 45.7501C90.0357 45.9887 90.0898 46.3485 90.0898 46.7949H78.0898C78.0898 47.7806 78.3175 48.5686 78.4563 48.9853L89.8405 45.1905ZM90.0898 46.7949C90.0898 47.0396 90.0737 47.2268 90.0652 47.3144C90.0554 47.4143 90.0451 47.488 90.0397 47.5241C90.0295 47.5933 90.0235 47.6181 90.0319 47.5761L78.265 45.2227C78.2433 45.3311 78.0898 46.0377 78.0898 46.7949H90.0898ZM84.6682 52.3769C85.1682 52.3334 85.6521 52.2832 86.081 52.2219L84.3839 40.3425C84.2659 40.3594 84.0272 40.3873 83.6287 40.422L84.6682 52.3769ZM86.2519 52.195C86.714 52.1153 87.1978 52.0091 87.6795 51.8916L84.8361 40.2334C84.517 40.3112 84.3173 40.3515 84.213 40.3695L86.2519 52.195ZM87.6475 51.8993C88.5242 51.6906 89.8076 51.2673 90.9947 50.2961L83.3959 41.0086C83.7959 40.6813 84.1593 40.4928 84.3949 40.3898C84.6321 40.286 84.8031 40.2411 84.8681 40.2257L87.6475 51.8993ZM91.117 50.1933C92.4276 49.0615 93.4463 47.3437 93.5278 45.2238L81.5367 44.7626C81.5642 44.0452 81.7456 43.3073 82.0981 42.6177C82.4432 41.9424 82.8823 41.4494 83.2736 41.1114L91.117 50.1933ZM93.5278 45.223C93.648 42.0886 93.708 38.9309 93.708 35.75H81.708C81.708 38.78 81.6508 41.7844 81.5366 44.7633L93.5278 45.223ZM93.708 35.75C93.708 32.53 93.6584 29.7112 93.5561 27.3064L81.5669 27.8166C81.6599 30.0017 81.708 32.6418 81.708 35.75H93.708ZM93.5571 27.3309C93.4747 25.1886 92.4311 23.4245 91.024 22.2732L83.4252 31.5607C82.9964 31.2099 82.522 30.6962 82.1526 29.9895C81.7766 29.2701 81.5936 28.5107 81.566 27.7921L93.5571 27.3309ZM91.1463 22.3761C89.9359 21.3307 88.6043 20.8762 87.6768 20.6554L84.8974 32.329C84.8104 32.3083 84.6145 32.2554 84.3527 32.1368C84.0906 32.018 83.71 31.8095 83.3029 31.4579L91.1463 22.3761ZM87.7088 20.6631C87.1884 20.5361 86.6339 20.4196 86.0815 20.3434L84.4419 32.2308C84.4415 32.2308 84.4766 32.2357 84.5538 32.2512C84.6295 32.2663 84.7323 32.2889 84.8654 32.3213L87.7088 20.6631ZM86.3165 20.3805C85.7916 20.2868 85.2306 20.2242 84.6975 20.1778L83.658 32.1327C83.8296 32.1476 83.9624 32.1616 84.0613 32.1736C84.1631 32.186 84.2074 32.1937 84.207 32.1937L86.3165 20.3805ZM90.0349 24.8537C90.0308 24.8353 90.0428 24.8865 90.0584 24.9839C90.0666 25.0347 90.0797 25.1229 90.0915 25.2382C90.1024 25.3442 90.1191 25.5391 90.1191 25.7891H78.1191C78.1191 26.6028 78.292 27.3281 78.3206 27.4569L90.0349 24.8537ZM90.1191 25.7891C90.1191 26.4811 89.9832 27.024 89.8698 27.3642L78.4856 23.5694C78.2941 24.144 78.1191 24.9017 78.1191 25.7891H90.1191ZM107.586 25.4668L107.8 19.4706L103.314 19.3104L101.894 23.5694L107.586 25.4668ZM117.781 25.4668L123.602 24.0116L122.424 19.2972L117.567 19.4706L117.781 25.4668ZM117.781 26.1553L118.301 32.1327L122.684 31.7516L123.638 27.4569L117.781 26.1553ZM116.683 26.2871L117.531 32.2268L117.617 32.2146L117.702 32.1999L116.683 26.2871ZM115.657 26.4922L114.268 20.6554L114.251 20.6592L114.235 20.6631L115.657 26.4922ZM114.734 26.917L118.534 31.5607L118.596 31.5101L118.656 31.4579L114.734 26.917ZM114.397 27.5615L108.402 27.3309L108.402 27.3323L114.397 27.5615ZM114.368 46.1064L108.37 46.2433L108.504 52.1064H114.368V46.1064ZM118.895 46.1064V52.1064H119.098L119.302 52.0926L118.895 46.1064ZM122.747 45.4766L121.105 39.7055L122.747 45.4766ZM125.574 44.2461L128.887 49.2484L128.895 49.2434L128.902 49.2384L125.574 44.2461ZM127.449 42.6787L123.013 38.6387L123.01 38.6427L127.449 42.6787ZM128.738 40.8477L130.892 35.2476L125.952 33.3475L123.451 38.0122L128.738 40.8477ZM129.236 41.2432L134.517 44.0919L135.954 41.4276L134.665 38.6884L129.236 41.2432ZM128.299 43.0449L122.91 40.4076L122.887 40.4542L122.865 40.5013L128.299 43.0449ZM127.581 44.8613L121.919 42.876L121.911 42.8975L121.904 42.9192L127.581 44.8613ZM127.083 47V53H132.436L133.044 47.6813L127.083 47ZM107.557 47.0879L101.865 48.9853L103.277 53.2231L107.742 53.085L107.557 47.0879ZM107.557 46.3994L107.037 40.422L102.555 40.8117L101.673 45.2227L107.557 46.3994ZM108.641 46.2822L109.489 52.2219L109.575 52.2097L109.66 52.195L108.641 46.2822ZM109.666 46.0625L108.276 40.2257L108.26 40.2295L108.244 40.2334L109.666 46.0625ZM110.604 45.6523L114.403 50.2961L114.465 50.2455L114.525 50.1933L110.604 45.6523ZM110.94 44.9932L116.936 45.2238L116.936 45.223L110.94 44.9932ZM110.97 27.5615L104.974 27.7921L104.975 27.8044L104.975 27.8166L110.97 27.5615ZM110.633 26.917L106.711 31.4579L106.772 31.5101L106.833 31.5607L110.633 26.917ZM109.695 26.4922L108.274 32.3213L108.29 32.3252L108.306 32.329L109.695 26.4922ZM108.67 26.2871L107.615 32.1937L107.732 32.2146L107.85 32.2308L108.67 26.2871ZM107.586 26.1553L101.729 27.4569L102.683 31.7516L107.066 32.1327L107.586 26.1553ZM107.372 31.463C109.584 31.542 111.366 31.584 112.684 31.584V19.584C111.579 19.584 109.963 19.5479 107.8 19.4706L107.372 31.463ZM112.684 31.584C114.001 31.584 115.784 31.542 117.995 31.463L117.567 19.4706C115.404 19.5479 113.788 19.584 112.684 19.584V31.584ZM111.96 26.922C111.96 26.9194 111.956 26.9034 111.95 26.8764C111.944 26.8505 111.934 26.8027 111.922 26.7379C111.911 26.6762 111.893 26.5718 111.877 26.437C111.863 26.3143 111.84 26.084 111.84 25.7891H123.84C123.84 24.8855 123.622 24.0909 123.602 24.0116L111.96 26.922ZM111.84 25.7891C111.84 25.5391 111.857 25.3442 111.867 25.2382C111.879 25.1229 111.892 25.0347 111.901 24.9839C111.916 24.8865 111.928 24.8353 111.924 24.8537L123.638 27.4569C123.667 27.3281 123.84 26.6028 123.84 25.7891H111.84ZM117.261 20.1778C116.727 20.2243 116.177 20.2857 115.663 20.3743L117.702 32.1999C117.754 32.1908 117.937 32.1644 118.301 32.1327L117.261 20.1778ZM115.834 20.3474C115.311 20.4222 114.774 20.5348 114.268 20.6554L117.047 32.329C117.195 32.2937 117.311 32.2685 117.398 32.2512C117.441 32.2426 117.473 32.2366 117.497 32.2325C117.52 32.2284 117.531 32.2268 117.531 32.2268L115.834 20.3474ZM114.235 20.6631C113.299 20.8915 111.998 21.3524 110.813 22.3761L118.656 31.4579C117.9 32.1105 117.215 32.2882 117.079 32.3213L114.235 20.6631ZM110.935 22.2732C109.528 23.4245 108.484 25.1886 108.402 27.3309L120.393 27.7921C120.365 28.5107 120.182 29.2701 119.806 29.9895C119.437 30.6962 118.963 31.2099 118.534 31.5607L110.935 22.2732ZM108.402 27.3323C108.272 30.7171 108.207 33.8852 108.207 36.834H120.207C120.207 34.0601 120.269 31.0465 120.393 27.7908L108.402 27.3323ZM108.207 36.834C108.207 38.3895 108.263 41.5509 108.37 46.2433L120.367 45.9696C120.259 41.2479 120.207 38.2277 120.207 36.834H108.207ZM114.368 52.1064H118.895V40.1064H114.368V52.1064ZM119.302 52.0926C121.067 51.9725 122.776 51.7064 124.389 51.2476L121.105 39.7055C120.452 39.8913 119.593 40.045 118.487 40.1203L119.302 52.0926ZM124.389 51.2476C125.944 50.8051 127.491 50.1729 128.887 49.2484L122.261 39.2438C122.153 39.3153 121.816 39.5035 121.105 39.7055L124.389 51.2476ZM128.902 49.2384C129.971 48.5257 130.998 47.6948 131.889 46.7147L123.01 38.6427C122.924 38.7369 122.7 38.9509 122.246 39.2538L128.902 49.2384ZM131.885 46.7187C132.727 45.7947 133.439 44.7773 134.026 43.6831L123.451 38.0122C123.315 38.2657 123.168 38.4689 123.013 38.6387L131.885 46.7187ZM126.584 46.4477C126.082 46.2545 124.646 45.5794 123.807 43.7979L134.665 38.6884C133.671 36.5749 131.902 35.6361 130.892 35.2476L126.584 46.4477ZM123.956 38.3944C123.538 39.1679 123.184 39.8468 122.91 40.4076L133.688 45.6822C133.863 45.3251 134.133 44.8028 134.517 44.0919L123.956 38.3944ZM122.865 40.5013C122.531 41.2146 122.216 42.0282 121.919 42.876L133.243 46.8467C133.473 46.1905 133.637 45.7932 133.733 45.5886L122.865 40.5013ZM121.904 42.9192C121.529 44.0145 121.255 45.151 121.122 46.3187L133.044 47.6813C133.067 47.4818 133.125 47.1926 133.258 46.8035L121.904 42.9192ZM127.083 41H114.368V53H127.083V41ZM114.368 41C111.682 41 109.346 41.0297 107.371 41.0908L107.742 53.085C109.556 53.0289 111.761 53 114.368 53V41ZM113.249 45.1905C113.29 45.3144 113.347 45.5053 113.396 45.7501C113.444 45.9887 113.498 46.3485 113.498 46.7949H101.498C101.498 47.7806 101.726 48.5686 101.865 48.9853L113.249 45.1905ZM113.498 46.7949C113.498 47.0396 113.482 47.2268 113.473 47.3144C113.464 47.4143 113.453 47.488 113.448 47.5241C113.438 47.5933 113.432 47.6181 113.44 47.5761L101.673 45.2227C101.651 45.3311 101.498 46.0377 101.498 46.7949H113.498ZM108.076 52.3769C108.576 52.3334 109.06 52.2832 109.489 52.2219L107.792 40.3425C107.674 40.3594 107.435 40.3873 107.037 40.422L108.076 52.3769ZM109.66 52.195C110.122 52.1153 110.606 52.0091 111.088 51.8916L108.244 40.2334C107.925 40.3112 107.725 40.3515 107.621 40.3695L109.66 52.195ZM111.056 51.8993C111.932 51.6906 113.216 51.2673 114.403 50.2961L106.804 41.0086C107.204 40.6813 107.568 40.4928 107.803 40.3898C108.04 40.286 108.211 40.2411 108.276 40.2257L111.056 51.8993ZM114.525 50.1933C115.836 49.0615 116.854 47.3437 116.936 45.2238L104.945 44.7626C104.972 44.0452 105.154 43.3073 105.506 42.6177C105.851 41.9424 106.29 41.4494 106.682 41.1114L114.525 50.1933ZM116.936 45.223C117.056 42.0886 117.116 38.9309 117.116 35.75H105.116C105.116 38.78 105.059 41.7844 104.945 44.7633L116.936 45.223ZM117.116 35.75C117.116 32.53 117.067 29.7112 116.964 27.3064L104.975 27.8166C105.068 30.0017 105.116 32.6418 105.116 35.75H117.116ZM116.965 27.3309C116.883 25.1886 115.839 23.4245 114.432 22.2732L106.833 31.5607C106.405 31.2099 105.93 30.6962 105.561 29.9895C105.185 29.2701 105.002 28.5107 104.974 27.7921L116.965 27.3309ZM114.555 22.3761C113.344 21.3307 112.012 20.8762 111.085 20.6554L108.306 32.329C108.219 32.3083 108.023 32.2554 107.761 32.1368C107.499 32.018 107.118 31.8095 106.711 31.4579L114.555 22.3761ZM111.117 20.6631C110.597 20.5361 110.042 20.4196 109.49 20.3434L107.85 32.2308C107.85 32.2308 107.885 32.2357 107.962 32.2512C108.038 32.2663 108.141 32.2889 108.274 32.3213L111.117 20.6631ZM109.725 20.3805C109.2 20.2868 108.639 20.2242 108.106 20.1778L107.066 32.1327C107.238 32.1476 107.371 32.1616 107.469 32.1736C107.571 32.186 107.616 32.1937 107.615 32.1937L109.725 20.3805ZM113.443 24.8537C113.439 24.8353 113.451 24.8865 113.467 24.9839C113.475 25.0347 113.488 25.1229 113.5 25.2382C113.511 25.3442 113.527 25.5391 113.527 25.7891H101.527C101.527 26.6028 101.7 27.3281 101.729 27.4569L113.443 24.8537ZM113.527 25.7891C113.527 26.4811 113.391 27.024 113.278 27.3642L101.894 23.5694C101.702 24.144 101.527 24.9017 101.527 25.7891H113.527ZM128.855 34.0068L129.128 28.013L124.868 27.8194L123.285 31.7785L128.855 34.0068ZM136.458 34.0068L142.279 32.5516L141.087 27.785L136.179 28.0133L136.458 34.0068ZM136.458 34.6953L136.857 40.682L141.219 40.3913L142.279 36.1505L136.458 34.6953ZM135.755 34.7686L136.417 40.7319L136.58 40.7138L136.741 40.6869L135.755 34.7686ZM135.066 34.8857L133.851 29.0102L133.83 29.0145L133.809 29.0189L135.066 34.8857ZM134.437 35.1494L130.688 30.4642L130.609 30.5277L130.532 30.5939L134.437 35.1494ZM134.349 36.1162L128.579 37.7645L128.665 38.0646L128.782 38.3541L134.349 36.1162ZM137.322 43.5137L131.755 45.7515L133.268 49.5137H137.322V43.5137ZM137.41 43.5137V49.5137H141.54L143.015 45.6556L137.41 43.5137ZM140.237 36.1162L134.666 33.8879L134.649 33.9309L134.633 33.9742L140.237 36.1162ZM138.699 34.6953L132.878 36.1505L133.935 40.3784L138.283 40.6808L138.699 34.6953ZM138.699 34.0068L139.007 28.0147L134.076 27.7619L132.878 32.5516L138.699 34.0068ZM143.958 34.0068L149.65 32.1095L148.214 27.8024L143.679 28.0133L143.958 34.0068ZM143.958 34.6953L144.198 40.6905L148.916 40.5018L149.841 35.872L143.958 34.6953ZM141.585 36.1162L147.121 38.4308L147.136 38.393L147.152 38.355L141.585 36.1162ZM137.059 46.9414L131.523 44.6268L128.046 52.9414H137.059V46.9414ZM137.088 46.9414L142.694 49.0798L145.798 40.9414H137.088V46.9414ZM135.462 51.2041L141.066 53.3487L141.068 53.3425L135.462 51.2041ZM133.763 54.4121L129.407 50.2856L129.388 50.306L129.369 50.3264L133.763 54.4121ZM130.13 54.6611L126.094 59.1008L126.119 59.1233L126.144 59.1456L130.13 54.6611ZM132.181 51.6582L127.696 55.6444L127.737 55.6899L127.778 55.7347L132.181 51.6582ZM131.917 53.665L128.643 48.6371L125.14 50.9182L126.066 54.9948L131.917 53.665ZM133.279 53.4453L128.543 49.7617L128.519 49.793L128.495 49.8247L133.279 53.4453ZM134.349 51.1748L128.758 48.9973L128.747 49.0249L128.736 49.0526L134.349 51.1748ZM135.975 47L141.566 49.1775L142.447 46.9153L141.507 44.677L135.975 47ZM131.404 36.1162L136.936 33.7932L136.917 33.7463L136.896 33.6998L131.404 36.1162ZM130.95 35.4863L126.818 39.8363L126.876 39.892L126.936 39.9461L130.95 35.4863ZM130.232 35.0615L128.039 40.646L128.157 40.6924L128.276 40.7338L130.232 35.0615ZM129.544 34.8418L128.017 40.6442L128.162 40.6823L128.308 40.7131L129.544 34.8418ZM128.855 34.6953L123.489 37.3786L124.836 40.0724L127.801 40.6019L128.855 34.6953ZM128.583 40.0006C129.965 40.0635 131.359 40.0947 132.767 40.0947V28.0947C131.537 28.0947 130.324 28.0674 129.128 28.013L128.583 40.0006ZM132.767 40.0947C134.065 40.0947 135.389 40.0631 136.737 40.0004L136.179 28.0133C135.008 28.0678 133.87 28.0947 132.767 28.0947V40.0947ZM130.637 35.462C130.627 35.4197 130.602 35.3149 130.577 35.1635C130.555 35.0265 130.517 34.7452 130.517 34.373H142.517C142.517 33.546 142.356 32.8595 142.279 32.5516L130.637 35.462ZM130.517 34.373C130.517 34.0781 130.54 33.8478 130.554 33.7251C130.57 33.5903 130.588 33.4859 130.599 33.4242C130.611 33.3594 130.621 33.3116 130.627 33.2857C130.633 33.2587 130.636 33.2427 130.637 33.2401L142.279 36.1505C142.299 36.0712 142.517 35.2766 142.517 34.373H130.517ZM136.059 28.7086C135.677 28.734 135.222 28.7745 134.768 28.8502L136.741 40.6869C136.706 40.6927 136.684 40.6957 136.677 40.6967C136.669 40.6977 136.671 40.6973 136.684 40.696C136.712 40.6931 136.768 40.688 136.857 40.682L136.059 28.7086ZM135.092 28.8053C134.652 28.8542 134.218 28.9342 133.851 29.0102L136.282 40.7613C136.37 40.7431 136.427 40.7326 136.458 40.7274C136.472 40.7249 136.477 40.7244 136.472 40.7251C136.467 40.7258 136.448 40.7284 136.417 40.7319L135.092 28.8053ZM133.809 29.0189C133.035 29.1848 131.831 29.5501 130.688 30.4642L138.185 39.8346C137.335 40.5144 136.551 40.7039 136.324 40.7526L133.809 29.0189ZM130.532 30.5939C129.193 31.7418 128.231 33.4956 128.231 35.5742H140.231C140.231 36.3429 140.066 37.164 139.686 37.952C139.312 38.7273 138.811 39.3027 138.341 39.705L130.532 30.5939ZM128.231 35.5742C128.231 36.2956 128.363 36.8882 128.396 37.0436C128.454 37.3102 128.521 37.5612 128.579 37.7645L140.118 34.4679C140.098 34.3978 140.107 34.4217 140.125 34.5076C140.135 34.5521 140.156 34.6535 140.176 34.7939C140.193 34.9104 140.231 35.1964 140.231 35.5742H128.231ZM128.782 38.3541L131.755 45.7515L142.889 41.2758L139.916 33.8784L128.782 38.3541ZM137.322 49.5137H137.41V37.5137H137.322V49.5137ZM143.015 45.6556L145.842 38.2582L134.633 33.9742L131.806 41.3717L143.015 45.6556ZM145.808 38.3446C146.062 37.7096 146.384 36.706 146.384 35.4863H134.384C134.384 35.0276 134.446 34.661 134.503 34.4166C134.561 34.1693 134.626 33.9893 134.666 33.8879L145.808 38.3446ZM146.384 35.4863C146.384 32.0539 143.962 30.2013 142.513 29.5206C141.221 28.9139 139.915 28.7654 139.116 28.7098L138.283 40.6808C138.607 40.7034 138.143 40.7258 137.412 40.3827C137.002 40.19 136.245 39.7595 135.565 38.8968C134.811 37.9395 134.384 36.7355 134.384 35.4863H146.384ZM144.52 33.2401C144.521 33.2427 144.525 33.2587 144.531 33.2857C144.536 33.3116 144.547 33.3594 144.558 33.4242C144.57 33.4859 144.587 33.5903 144.603 33.7251C144.618 33.8478 144.641 34.0781 144.641 34.373H132.641C132.641 35.2766 132.859 36.0712 132.878 36.1505L144.52 33.2401ZM144.641 34.373C144.641 34.7452 144.602 35.0265 144.58 35.1635C144.556 35.3149 144.531 35.4197 144.52 35.462L132.878 32.5516C132.801 32.8595 132.641 33.546 132.641 34.373H144.641ZM138.392 39.999C139.476 40.0546 140.366 40.0947 140.838 40.0947V28.0947C140.854 28.0947 140.824 28.0948 140.721 28.0918C140.628 28.0891 140.501 28.0846 140.337 28.0778C140.009 28.0643 139.568 28.0435 139.007 28.0147L138.392 39.999ZM140.838 40.0947C141.786 40.0947 142.928 40.0612 144.237 40.0004L143.679 28.0133C142.469 28.0696 141.53 28.0947 140.838 28.0947V40.0947ZM138.266 35.9042C138.177 35.6375 138.017 35.0744 138.017 34.3145H150.017C150.017 33.3787 149.817 32.6105 149.65 32.1095L138.266 35.9042ZM138.017 34.3145C138.017 34.1619 138.023 34.0373 138.028 33.9533C138.034 33.8663 138.04 33.7945 138.046 33.7431C138.056 33.6435 138.067 33.5716 138.072 33.5413C138.081 33.4822 138.085 33.4667 138.075 33.5186L149.841 35.872C149.85 35.8302 150.017 35.0835 150.017 34.3145H138.017ZM143.718 28.7001C142.419 28.7521 140.859 29.0461 139.367 29.9394C137.789 30.8842 136.661 32.2789 136.018 33.8774L147.152 38.355C146.87 39.0551 146.318 39.7638 145.532 40.2349C144.831 40.6546 144.276 40.6874 144.198 40.6905L143.718 28.7001ZM136.049 33.8016L131.523 44.6268L142.594 49.256L147.121 38.4308L136.049 33.8016ZM137.059 52.9414H137.088V40.9414H137.059V52.9414ZM131.482 44.803L129.856 49.0657L141.068 53.3425L142.694 49.0798L131.482 44.803ZM129.858 49.0595C129.611 49.7056 129.415 50.1303 129.281 50.3842C129.216 50.507 129.183 50.5555 129.187 50.5496C129.188 50.5487 129.257 50.4436 129.407 50.2856L138.118 58.5386C139.528 57.0502 140.437 54.9902 141.066 53.3487L129.858 49.0595ZM129.369 50.3264C129.658 50.0156 130.059 49.7135 130.557 49.5047C131.047 49.2996 131.479 49.2471 131.771 49.2471V61.2471C134.124 61.2471 136.422 60.3632 138.157 58.4978L129.369 50.3264ZM131.771 49.2471C132.045 49.2471 132.437 49.2891 132.888 49.4501C133.348 49.6146 133.768 49.8673 134.116 50.1767L126.144 59.1456C127.808 60.6248 129.825 61.2471 131.771 61.2471V49.2471ZM134.166 50.2215C134.569 50.5883 134.934 51.0772 135.18 51.6647C135.421 52.2397 135.485 52.7565 135.485 53.123H123.485C123.485 55.2724 124.289 57.4598 126.094 59.1008L134.166 50.2215ZM135.485 53.123C135.485 53.7044 135.29 54.8929 134.274 55.9396L125.663 47.5819C124.003 49.2927 123.485 51.3894 123.485 53.123H135.485ZM134.274 55.9396C133.905 56.3199 133.414 56.6789 132.809 56.9297C132.208 57.1787 131.637 57.2627 131.17 57.2627V45.2627C129.131 45.2627 127.158 46.0418 125.663 47.5819L134.274 55.9396ZM131.17 57.2627C130.798 57.2627 130.226 57.2074 129.566 56.949C128.876 56.6791 128.224 56.2386 127.696 55.6444L136.665 47.672C135.022 45.8234 132.869 45.2627 131.17 45.2627V57.2627ZM127.778 55.7347C127.469 55.4007 127.145 54.9428 126.903 54.3547C126.659 53.7587 126.547 53.141 126.547 52.5518H138.547C138.547 50.5778 137.762 48.855 136.583 47.5818L127.778 55.7347ZM126.547 52.5518C126.547 51.8562 126.713 51.0303 127.167 50.227C127.613 49.4401 128.188 48.9334 128.643 48.6371L135.191 58.693C137.171 57.4036 138.547 55.2114 138.547 52.5518H126.547ZM126.066 54.9948C126.381 56.3784 127.209 57.8739 128.746 58.899C130.141 59.8288 131.548 59.9873 132.4 59.9873V47.9873C132.98 47.9873 134.169 48.0921 135.403 48.9144C136.779 49.8322 137.502 51.1666 137.768 52.3353L126.066 54.9948ZM132.4 59.9873C135.331 59.9873 137.192 58.2185 138.064 57.066L128.495 49.8247C128.82 49.3948 130.095 47.9873 132.4 47.9873V59.9873ZM138.015 57.129C138.927 55.9568 139.56 54.3558 139.961 53.297L128.736 49.0526C128.549 49.5496 128.411 49.8716 128.324 50.0575C128.281 50.1481 128.267 50.1695 128.283 50.1412C128.292 50.1261 128.377 49.9756 128.543 49.7617L138.015 57.129ZM139.94 53.3523L141.566 49.1775L130.384 44.8225L128.758 48.9973L139.94 53.3523ZM141.507 44.677L136.936 33.7932L125.872 38.4392L130.443 49.323L141.507 44.677ZM136.896 33.6998C136.452 32.6896 135.801 31.7798 134.964 31.0266L126.936 39.9461C126.49 39.5444 126.142 39.0545 125.912 38.5326L136.896 33.6998ZM135.083 31.1363C134.198 30.2962 133.192 29.7353 132.188 29.3893L128.276 40.7338C127.839 40.583 127.311 40.3054 126.818 39.8363L135.083 31.1363ZM132.426 29.477C131.991 29.3061 131.419 29.1049 130.78 28.9705L128.308 40.7131C128.158 40.6814 128.061 40.6515 128.031 40.642C127.998 40.6313 127.998 40.6302 128.039 40.646L132.426 29.477ZM131.071 29.0393C130.678 28.9358 130.279 28.8546 129.91 28.7887L127.801 40.6019C127.884 40.6167 127.944 40.6287 127.984 40.6372C128.025 40.6459 128.034 40.6487 128.017 40.6442L131.071 29.0393ZM134.222 32.012C134.511 32.5898 134.647 33.1104 134.715 33.4828C134.783 33.8586 134.797 34.1671 134.797 34.373H122.797C122.797 34.9672 122.863 36.1275 123.489 37.3786L134.222 32.012ZM134.797 34.373C134.797 34.7114 134.759 35.4047 134.426 36.2352L123.285 31.7785C122.874 32.8042 122.797 33.7417 122.797 34.373H134.797ZM33.1426 65.4961L33.3567 59.4999L28.5003 59.3265L27.3217 64.0409L33.1426 65.4961ZM43.2939 65.5107L42.8948 71.4975L42.964 71.5021L43.0333 71.5051L43.2939 65.5107ZM44.8027 65.6572L43.9688 71.599L43.9759 71.6L43.9829 71.601L44.8027 65.6572ZM47.6299 66.5508L44.716 71.7957L44.7404 71.8092L44.7648 71.8225L47.6299 66.5508ZM48.7432 67.415L44.2441 71.3848L44.2765 71.4214L44.3094 71.4576L48.7432 67.415ZM46.5459 74.3145L44.2221 68.7827L40.5459 70.3271V74.3145H46.5459ZM46.5459 74.4316H40.5459V79.4336L45.4663 80.3337L46.5459 74.4316ZM50.5596 76.4238L46.3962 80.7443L46.406 80.7537L46.4158 80.7631L50.5596 76.4238ZM51.7168 82.7227L46.2467 80.2573L46.2386 80.2752L46.2307 80.2931L51.7168 82.7227ZM46.6338 86.3555L45.1395 80.5445L46.6338 86.3555ZM44.2754 86.7803L44.938 92.7436L44.9667 92.7404L44.9954 92.7369L44.2754 86.7803ZM42.0195 86.9707L42.2069 92.9678L42.2537 92.9663L42.3005 92.9641L42.0195 86.9707ZM33.1133 87.0879L27.4212 88.9853L28.8338 93.2231L33.2988 93.085L33.1133 87.0879ZM33.1133 86.3994L32.5163 80.4292L28.1002 80.8708L27.2298 85.2227L33.1133 86.3994ZM34.5342 86.2236L33.6079 80.2956L33.5933 80.2978L33.5788 80.3002L34.5342 86.2236ZM35.2812 86.0625L37.088 91.784L37.1761 91.7562L37.2634 91.7257L35.2812 86.0625ZM36.3359 85.4619L31.618 81.755L31.5333 81.8629L31.4535 81.9745L36.3359 85.4619ZM36.4971 84.9932L30.5015 84.7633L30.4971 84.8782V84.9932H36.4971ZM36.5264 67.5615L30.5308 67.7921L30.5313 67.8044L30.5318 67.8166L36.5264 67.5615ZM36.1895 66.917L32.2847 71.4725L32.3369 71.5172L32.39 71.5607L36.1895 66.917ZM34.2412 66.3164L33.3289 72.2466L33.4409 72.2639L33.5535 72.2769L34.2412 66.3164ZM33.1426 66.1846L27.2855 67.4862L28.225 71.7139L32.5335 72.1536L33.1426 66.1846ZM39.7637 75.75L39.1463 69.7818L33.7637 70.3387V75.75H39.7637ZM39.7637 76.834H33.7637V76.8867L33.7646 76.9394L39.7637 76.834ZM39.9248 86.0039L33.9257 86.1093L34.0293 92.0039H39.9248V86.0039ZM41.668 85.9746L41.8986 91.9702L41.9561 91.968L42.0135 91.9646L41.668 85.9746ZM43.3379 85.7988L44.1998 91.7366L44.2466 91.7298L44.2933 91.7223L43.3379 85.7988ZM46.2676 84.7734L49.3873 89.8986L49.4275 89.8741L49.4674 89.849L46.2676 84.7734ZM48.0547 82.3711L53.7762 84.1779L53.7807 84.1637L53.7851 84.1495L48.0547 82.3711ZM47.9814 78.6357L42.4313 80.9153L42.4386 80.9329L42.446 80.9506L47.9814 78.6357ZM47.0293 77.2734L42.9507 81.674L43.0063 81.7255L43.0631 81.7756L47.0293 77.2734ZM45.5498 76.3506L43.2089 81.8751L43.2255 81.8821L43.2421 81.889L45.5498 76.3506ZM43.6602 75.8232L42.7156 81.7484L42.7287 81.7505L43.6602 75.8232ZM39.9541 66.5068L39.3034 60.5422L34.0756 61.1125L33.9557 66.37L39.9541 66.5068ZM39.7637 74.8564L33.7652 74.7196L33.6253 80.8564H39.7637V74.8564ZM44.4951 67.3564L40.8589 72.129L40.8725 72.1394L40.8861 72.1497L44.4951 67.3564ZM32.9284 71.4923C34.646 71.5536 36.4266 71.584 38.2695 71.584V59.584C36.5578 59.584 34.9204 59.5558 33.3567 59.4999L32.9284 71.4923ZM38.2695 71.584C39.2017 71.584 40.1055 71.5623 40.9792 71.5175L40.3646 59.5333C39.7148 59.5666 39.017 59.584 38.2695 59.584V71.584ZM40.9792 71.5175C41.3594 71.498 41.6444 71.4835 41.8358 71.474C41.9321 71.4691 42.0009 71.4658 42.0449 71.4637C42.0556 71.4632 42.064 71.4628 42.0703 71.4625C42.0734 71.4623 42.0757 71.4622 42.0774 71.4621C42.0791 71.4621 42.0798 71.462 42.0797 71.462C42.0796 71.4621 42.0778 71.4621 42.0748 71.4623C42.0721 71.4624 42.0661 71.4626 42.0578 71.4629C42.051 71.4632 42.0342 71.4638 42.0122 71.4644C42.0069 71.4646 41.9349 71.4668 41.8438 71.4668V59.4668C41.6195 59.4668 40.9418 59.5037 40.3646 59.5333L40.9792 71.5175ZM41.8438 71.4668C42.263 71.4668 42.611 71.4785 42.8948 71.4975L43.6931 59.524C43.0979 59.4844 42.4792 59.4668 41.8438 59.4668V71.4668ZM43.0333 71.5051C43.2504 71.5145 43.5576 71.5413 43.9688 71.599L45.6367 59.7155C44.9346 59.6169 44.236 59.546 43.5546 59.5164L43.0333 71.5051ZM43.9829 71.601C44.2978 71.6444 44.4687 71.6898 44.5291 71.7086L48.0939 60.2504C47.2754 59.9957 46.4405 59.8263 45.6226 59.7135L43.9829 71.601ZM44.5291 71.7086C44.5417 71.7125 44.6034 71.7332 44.716 71.7957L50.5437 61.3058C49.7774 60.8801 48.9603 60.5199 48.0939 60.2504L44.5291 71.7086ZM44.7648 71.8225C44.6912 71.7825 44.4812 71.6535 44.2441 71.3848L53.2422 63.4453C52.4192 62.5125 51.467 61.8073 50.495 61.279L44.7648 71.8225ZM44.3094 71.4576C44.0283 71.1492 43.9064 70.8809 43.8669 70.7768L55.0843 66.5142C54.6737 65.4336 54.0635 64.3449 53.1769 63.3725L44.3094 71.4576ZM43.8669 70.7768C43.7561 70.4852 43.7539 70.2949 43.7539 70.2861H55.7539C55.7539 69.0665 55.5662 67.7824 55.0843 66.5142L43.8669 70.7768ZM43.7539 70.2861C43.7539 70.1262 43.7794 69.885 43.8756 69.6033C43.9729 69.3186 44.1134 69.0778 44.2584 68.8958C44.5324 68.5517 44.6759 68.5921 44.2221 68.7827L48.8697 79.8462C50.5546 79.1384 52.3021 78.0581 53.6454 76.3713C55.0628 74.5915 55.7539 72.4773 55.7539 70.2861H43.7539ZM40.5459 74.3145V74.4316H52.5459V74.3145H40.5459ZM45.4663 80.3337C46.0174 80.4345 46.2495 80.6029 46.3962 80.7443L54.7229 72.1034C52.7212 70.1744 50.2775 69.0147 47.6255 68.5296L45.4663 80.3337ZM46.4158 80.7631C46.404 80.7518 46.3712 80.7179 46.3312 80.6599C46.2907 80.6012 46.2546 80.5347 46.2268 80.4668C46.1669 80.3207 46.1855 80.2693 46.1855 80.3936H58.1855C58.1855 77.28 57.0684 74.3431 54.7034 72.0846L46.4158 80.7631ZM46.1855 80.3936C46.1855 80.4591 46.1797 80.4695 46.1863 80.4366C46.1933 80.4016 46.2105 80.3376 46.2467 80.2573L57.1869 85.188C57.8914 83.6249 58.1855 81.9924 58.1855 80.3936H46.1855ZM46.2307 80.2931C46.2179 80.3221 46.2231 80.3036 46.2575 80.2538C46.2929 80.2025 46.3517 80.1287 46.4383 80.0474L54.6515 88.7963C55.7913 87.7264 56.6201 86.4683 57.2029 85.1522L46.2307 80.2931ZM46.4383 80.0474C46.5198 79.971 46.4927 80.0247 46.2382 80.1417L51.2482 91.0458C52.439 90.4987 53.613 89.7712 54.6515 88.7963L46.4383 80.0474ZM46.2382 80.1417C45.8008 80.3426 45.4358 80.4683 45.1395 80.5445L48.128 92.1664C49.1989 91.891 50.2402 91.5089 51.2482 91.0458L46.2382 80.1417ZM45.1395 80.5445C44.7674 80.6402 44.2486 80.7398 43.5554 80.8236L44.9954 92.7369C46.0795 92.6059 47.133 92.4223 48.128 92.1664L45.1395 80.5445ZM43.6128 80.817C42.8135 80.9058 42.1961 80.9558 41.7386 80.9773L42.3005 92.9641C43.0929 92.927 43.9794 92.8501 44.938 92.7436L43.6128 80.817ZM41.8321 80.9736C41.282 80.9908 40.6476 81 39.9248 81V93C40.745 93 41.5071 92.9896 42.2069 92.9678L41.8321 80.9736ZM39.9248 81C37.2386 81 34.9029 81.0297 32.9278 81.0908L33.2988 93.085C35.1127 93.0289 37.318 93 39.9248 93V81ZM38.8054 85.1905C38.8467 85.3144 38.9039 85.5053 38.9528 85.7501C39.0005 85.9887 39.0547 86.3485 39.0547 86.7949H27.0547C27.0547 87.7806 27.2823 88.5686 27.4212 88.9853L38.8054 85.1905ZM39.0547 86.7949C39.0547 87.0396 39.0385 87.2268 39.03 87.3144C39.0202 87.4143 39.0099 87.488 39.0046 87.5241C38.9943 87.5933 38.9884 87.6181 38.9968 87.5761L27.2298 85.2227C27.2081 85.3311 27.0547 86.0377 27.0547 86.7949H39.0547ZM33.7103 92.3696C34.0129 92.3394 34.2718 92.3125 34.479 92.2895L33.1538 80.3629C33.0094 80.3789 32.7996 80.4009 32.5163 80.4292L33.7103 92.3696ZM34.479 92.2895C34.7982 92.254 35.1488 92.202 35.4896 92.1471L33.5788 80.3002C33.3141 80.3429 33.1862 80.3593 33.1538 80.3629L34.479 92.2895ZM35.4604 92.1517C35.9115 92.0812 36.4933 91.9718 37.088 91.784L33.4745 80.341C33.543 80.3194 33.5958 80.3049 33.6289 80.2964C33.6626 80.2877 33.6838 80.283 33.6903 80.2816C33.701 80.2793 33.6765 80.2849 33.6079 80.2956L35.4604 92.1517ZM37.2634 91.7257C37.6807 91.5796 38.0803 91.4121 38.4614 91.2306L33.3022 80.3963C33.288 80.4031 33.2806 80.4062 33.2798 80.4065C33.279 80.4069 33.2855 80.4041 33.2991 80.3993L37.2634 91.7257ZM38.4614 91.2306C39.2753 90.8431 40.3573 90.1547 41.2183 88.9493L31.4535 81.9745C32.1192 81.0425 32.8985 80.5886 33.3022 80.3963L38.4614 91.2306ZM41.0538 89.1688C42.0017 87.9625 42.4971 86.4973 42.4971 84.9932H30.4971C30.4971 83.8406 30.885 82.6879 31.618 81.755L41.0538 89.1688ZM42.4927 85.223C42.6128 82.0886 42.6729 78.9309 42.6729 75.75H30.6729C30.6729 78.78 30.6157 81.7844 30.5015 84.7633L42.4927 85.223ZM42.6729 75.75C42.6729 72.53 42.6233 69.7112 42.5209 67.3064L30.5318 67.8166C30.6248 70.0017 30.6729 72.6418 30.6729 75.75H42.6729ZM42.5219 67.3309C42.4395 65.1886 41.396 63.4245 39.9889 62.2732L32.39 71.5607C31.9612 71.2099 31.4869 70.6962 31.1175 69.9895C30.7414 69.2701 30.5584 68.5107 30.5308 67.7921L42.5219 67.3309ZM40.0942 62.3615C38.8458 61.2914 37.4689 60.8623 36.611 60.6628L33.8929 72.3509C33.8333 72.337 33.6518 72.2913 33.3964 72.1796C33.1447 72.0695 32.733 71.8568 32.2847 71.4725L40.0942 62.3615ZM36.611 60.6628C36.0977 60.5434 35.5096 60.4229 34.929 60.356L33.5535 72.2769C33.5003 72.2707 33.5013 72.2687 33.5734 72.2822C33.6409 72.295 33.7454 72.3166 33.8929 72.3509L36.611 60.6628ZM35.1536 60.3862C34.747 60.3236 34.2606 60.2675 33.7517 60.2156L32.5335 72.1536C32.9816 72.1993 33.2276 72.2311 33.3289 72.2466L35.1536 60.3862ZM38.9997 64.883C38.9956 64.8646 39.0077 64.9158 39.0233 65.0132C39.0314 65.064 39.0445 65.1522 39.0563 65.2675C39.0672 65.3735 39.084 65.5684 39.084 65.8184H27.084C27.084 66.6321 27.2568 67.3574 27.2855 67.4862L38.9997 64.883ZM39.084 65.8184C39.084 66.1133 39.061 66.3436 39.0466 66.4663C39.0307 66.6011 39.0131 66.7055 39.0019 66.7672C38.9901 66.832 38.9798 66.8798 38.9741 66.9057C38.9681 66.9327 38.9641 66.9487 38.9634 66.9513L27.3217 64.0409C27.3019 64.1202 27.084 64.9148 27.084 65.8184H39.084ZM33.7637 75.75V76.834H45.7637V75.75H33.7637ZM33.7646 76.9394L33.9257 86.1093L45.9239 85.8985L45.7627 76.7286L33.7646 76.9394ZM39.9248 92.0039C40.6354 92.0039 41.2958 91.9934 41.8986 91.9702L41.4374 79.979C41.0245 79.9949 40.5228 80.0039 39.9248 80.0039V92.0039ZM42.0135 91.9646C42.7245 91.9236 43.4561 91.8446 44.1998 91.7366L42.476 79.8611C42.0087 79.9289 41.627 79.967 41.3224 79.9846L42.0135 91.9646ZM44.2933 91.7223C45.1508 91.584 46.0327 91.3835 46.891 91.0849L42.9488 79.751C42.9088 79.7649 42.736 79.8184 42.3825 79.8754L44.2933 91.7223ZM46.891 91.0849C47.7808 90.7755 48.6131 90.3699 49.3873 89.8986L43.1479 79.6482C43.0236 79.7239 42.9575 79.748 42.9488 79.751L46.891 91.0849ZM49.4674 89.849C50.4684 89.2179 51.4069 88.3986 52.181 87.3576L42.5514 80.1971C42.7592 79.9178 42.9652 79.7626 43.0678 79.6979L49.4674 89.849ZM52.181 87.3576C52.9428 86.3331 53.4437 85.2309 53.7762 84.1779L42.3332 80.5643C42.3142 80.6246 42.356 80.4599 42.5514 80.1971L52.181 87.3576ZM53.7851 84.1495C54.1691 82.9119 54.3184 81.6643 54.3184 80.4668H42.3184C42.3184 80.6755 42.2918 80.6974 42.3243 80.5927L53.7851 84.1495ZM54.3184 80.4668C54.3184 79.1249 54.0967 77.7074 53.5169 76.3209L42.446 80.9506C42.3154 80.6383 42.3184 80.4415 42.3184 80.4668H54.3184ZM53.5316 76.3562C52.9859 75.0276 52.1527 73.7907 50.9955 72.7713L43.0631 81.7756C42.7262 81.4788 42.5278 81.1502 42.4313 80.9153L53.5316 76.3562ZM51.1079 72.8729C50.112 71.9498 48.9918 71.2848 47.8575 70.8121L43.2421 81.889C43.2797 81.9047 43.1459 81.8549 42.9507 81.674L51.1079 72.8729ZM47.8907 70.8261C46.8182 70.3716 45.7092 70.0716 44.5916 69.896L42.7287 81.7505C42.9783 81.7897 43.1291 81.8413 43.2089 81.8751L47.8907 70.8261ZM44.6047 69.8981C43.5704 69.7332 42.5126 69.6621 41.4482 69.6621V81.6621C41.9855 81.6621 42.4023 81.6985 42.7156 81.7484L44.6047 69.8981ZM41.4482 69.6621C40.6807 69.6621 39.9131 69.7025 39.1463 69.7818L40.3811 81.7182C40.7471 81.6803 41.1025 81.6621 41.4482 81.6621V69.6621ZM33.9557 66.37L33.7652 74.7196L45.7621 74.9933L45.9525 66.6436L33.9557 66.37ZM39.7637 80.8564C42.3513 80.8564 45.3917 80.3911 47.8908 78.48C50.6944 76.3361 51.7402 73.2303 51.7402 70.2861H39.7402C39.7402 70.4017 39.7212 70.2215 39.8665 69.8881C40.0273 69.5192 40.2949 69.1821 40.6014 68.9477C40.8757 68.738 41.0344 68.7215 40.8964 68.7567C40.7506 68.7939 40.397 68.8564 39.7637 68.8564V80.8564ZM51.7402 70.2861C51.7402 67.6501 50.8475 64.6288 48.1041 62.5632L40.8861 72.1497C40.4413 71.8148 40.1022 71.3639 39.907 70.9045C39.7304 70.4891 39.7402 70.2323 39.7402 70.2861H51.7402ZM48.1314 62.5839C45.9711 60.9379 43.4682 60.4189 41.2139 60.4189V72.4189C41.4485 72.4189 41.4956 72.4466 41.4112 72.4225C41.3132 72.3945 41.1018 72.3141 40.8589 72.129L48.1314 62.5839ZM41.2139 60.4189C40.5883 60.4189 39.9174 60.4752 39.3034 60.5422L40.6048 72.4714C40.8162 72.4484 40.9755 72.4343 41.0895 72.4264C41.2096 72.418 41.2437 72.4189 41.2139 72.4189V60.4189ZM80.0029 74.1973L77.5725 79.683L77.5853 79.6886L77.598 79.6942L80.0029 74.1973ZM83.2549 77.8008L77.5826 79.7567L77.5861 79.7669L77.5897 79.777L83.2549 77.8008ZM81.9805 85.5059L77.5207 81.4921L77.5045 81.5101L77.4885 81.5282L81.9805 85.5059ZM74.7881 86.9268L72.3577 92.4125L72.3993 92.4309L72.4412 92.4487L74.7881 86.9268ZM72.8105 85.5059L68.3261 89.492L68.3419 89.5099L68.3579 89.5276L72.8105 85.5059ZM71.5361 83.3232L65.8709 85.2995L65.8811 85.3287L65.8916 85.3579L71.5361 83.3232ZM71.5361 77.8008L77.2013 79.777L77.2049 79.7669L77.2084 79.7567L71.5361 77.8008ZM72.7812 75.6182L68.3286 71.5964L68.3106 71.6164L68.2928 71.6365L72.7812 75.6182ZM75.0078 76.0869L69.8996 72.9395L69.8881 72.9582L69.8766 72.9771L75.0078 76.0869ZM75.0078 85.0225L69.8766 88.1323L69.8951 88.1628L69.914 88.1931L75.0078 85.0225ZM79.7686 85.0078L74.6604 81.8603L74.6488 81.8791L74.6374 81.898L79.7686 85.0078ZM78.7432 75.0029L75.6195 80.1257L75.6656 80.1538L75.7121 80.181L78.7432 75.0029ZM77.3955 79.6846C77.5253 79.6846 77.5944 79.696 77.6149 79.7C77.6333 79.7036 77.6146 79.7016 77.5725 79.683L82.4333 68.7115C80.7927 67.9847 79.0779 67.6846 77.3955 67.6846V79.6846ZM77.598 79.6942C77.626 79.7064 77.6234 79.7083 77.6029 79.6937C77.5935 79.6869 77.5826 79.6784 77.5712 79.6683C77.5598 79.6581 77.5501 79.6483 77.5425 79.6399L86.4477 71.5964C85.3048 70.3311 83.9325 69.3674 82.4078 68.7003L77.598 79.6942ZM77.5425 79.6399C77.5244 79.6198 77.5187 79.6087 77.5237 79.6173C77.5293 79.627 77.5524 79.6691 77.5826 79.7567L88.9271 75.8448C88.3977 74.3095 87.5887 72.8597 86.4477 71.5964L77.5425 79.6399ZM77.5897 79.777C77.6362 79.9102 77.6943 80.1515 77.6943 80.5547H89.6943C89.6943 78.9657 89.4595 77.371 88.9201 75.8245L77.5897 79.777ZM77.6943 80.5547C77.6943 81.009 77.6307 81.2529 77.596 81.3533C77.5665 81.4383 77.5434 81.4669 77.5207 81.4921L86.4402 89.5196C88.7562 86.9463 89.6943 83.7718 89.6943 80.5547H77.6943ZM77.4885 81.5282C77.4868 81.5301 77.506 81.5086 77.5473 81.4787C77.5893 81.4485 77.6327 81.4251 77.6681 81.4103C77.7023 81.396 77.7078 81.3985 77.6711 81.4053C77.6326 81.4124 77.5443 81.4248 77.3955 81.4248V93.4248C80.7964 93.4248 84.0505 92.2187 86.4725 89.4835L77.4885 81.5282ZM77.3955 81.4248C77.2644 81.4248 77.1864 81.4135 77.1516 81.4068C77.1184 81.4005 77.1166 81.397 77.1349 81.4048L72.4412 92.4487C74.0536 93.134 75.7346 93.4248 77.3955 93.4248V81.4248ZM77.2185 81.441C77.2057 81.4354 77.2006 81.4324 77.2016 81.433C77.2027 81.4335 77.2079 81.4366 77.2162 81.4426C77.2244 81.4485 77.2335 81.4557 77.2425 81.4638C77.2516 81.4719 77.2585 81.479 77.2632 81.4841L68.3579 89.5276C69.4882 90.779 70.8439 91.7418 72.3577 92.4125L77.2185 81.441ZM77.295 81.5197C77.2912 81.5154 77.2803 81.5027 77.2632 81.4734C77.2456 81.4432 77.2154 81.3852 77.1806 81.2886L65.8916 85.3579C66.4313 86.855 67.2304 88.2594 68.3261 89.492L77.295 81.5197ZM77.2013 81.347C77.1569 81.2197 77.0967 80.9747 77.0967 80.5547H65.0967C65.0967 82.1464 65.3294 83.7471 65.8709 85.2995L77.2013 81.347ZM77.0967 80.5547C77.0967 80.1515 77.1549 79.9102 77.2013 79.777L65.8709 75.8245C65.3315 77.371 65.0967 78.9657 65.0967 80.5547H77.0967ZM77.2084 79.7567C77.242 79.6591 77.2689 79.6082 77.2787 79.591C77.2879 79.575 77.2858 79.5816 77.2697 79.5999L68.2928 71.6365C67.1767 72.8947 66.3859 74.3312 65.8639 75.8448L77.2084 79.7567ZM77.2339 79.6399C77.2262 79.6483 77.2165 79.6581 77.2052 79.6683C77.1938 79.6784 77.1829 79.6869 77.1735 79.6937C77.153 79.7083 77.1504 79.7064 77.1784 79.6942L72.3685 68.7003C70.8439 69.3674 69.4715 70.3311 68.3286 71.5964L77.2339 79.6399ZM77.1784 79.6942C77.1493 79.7069 77.1411 79.7062 77.1663 79.7012C77.1933 79.696 77.266 79.6846 77.3955 79.6846V67.6846C75.7115 67.6846 74.0032 67.9851 72.3685 68.7003L77.1784 79.6942ZM77.3955 68.6367C73.9934 68.6367 71.4064 70.494 69.8996 72.9395L80.116 79.2344C80.0234 79.3846 79.7394 79.7794 79.1662 80.1275C78.5595 80.496 77.9163 80.6367 77.3955 80.6367V68.6367ZM69.8766 72.9771C68.4332 75.3588 68.1289 78.1861 68.1289 80.5547H80.1289C80.1289 79.8204 80.184 79.3502 80.2358 79.0871C80.2902 78.8108 80.3115 78.9121 80.139 79.1967L69.8766 72.9771ZM68.1289 80.5547C68.1289 82.9233 68.4332 85.7506 69.8766 88.1323L80.139 81.9127C80.3115 82.1973 80.2902 82.2986 80.2358 82.0223C80.184 81.7591 80.1289 81.289 80.1289 80.5547H68.1289ZM69.914 88.1931C71.434 90.6351 74.0226 92.458 77.3955 92.458V80.458C77.9047 80.458 78.5396 80.5941 79.1431 80.9569C79.7154 81.301 80.0036 81.6943 80.1016 81.8518L69.914 88.1931ZM77.3955 92.458C80.806 92.458 83.401 90.5905 84.8997 88.1176L74.6374 81.898C74.7339 81.7387 75.0234 81.3325 75.6071 80.9758C76.224 80.5988 76.875 80.458 77.3955 80.458V92.458ZM84.8767 88.1553C86.3488 85.7661 86.6621 82.9302 86.6621 80.5547H74.6621C74.6621 81.2778 74.6066 81.7366 74.556 81.989C74.503 82.253 74.4845 82.1458 74.6604 81.8603L84.8767 88.1553ZM86.6621 80.5547C86.6621 79.2591 86.5633 77.952 86.299 76.6966L74.5564 79.1687C74.6046 79.3976 74.6621 79.8385 74.6621 80.5547H86.6621ZM86.299 76.6966C86.0536 75.5306 85.6504 74.2691 84.9587 73.0766L74.5784 79.0972C74.5439 79.0379 74.5218 78.9926 74.5093 78.9652C74.4969 78.9379 74.493 78.926 74.4953 78.9326C74.4976 78.9391 74.5053 78.9613 74.5163 79.0014C74.5274 79.0414 74.5413 79.0966 74.5564 79.1687L86.299 76.6966ZM84.9587 73.0766C84.2674 71.8847 83.2445 70.6855 81.7742 69.8248L75.7121 80.181C75.0426 79.7891 74.7033 79.3126 74.5784 79.0972L84.9587 73.0766ZM81.8668 69.8802C80.4665 69.0263 78.9243 68.6367 77.3955 68.6367V80.6367C76.8628 80.6367 76.2191 80.4913 75.6195 80.1257L81.8668 69.8802ZM103.997 74.1973L101.567 79.683L101.579 79.6886L101.592 79.6942L103.997 74.1973ZM107.249 77.8008L101.577 79.7567L101.58 79.7669L101.584 79.777L107.249 77.8008ZM105.975 85.5059L101.515 81.4921L101.499 81.5101L101.483 81.5282L105.975 85.5059ZM98.7822 86.9268L96.3518 92.4125L96.3935 92.4309L96.4354 92.4487L98.7822 86.9268ZM96.8047 85.5059L92.3202 89.492L92.3361 89.5099L92.3521 89.5276L96.8047 85.5059ZM95.5303 83.3232L89.8651 85.2995L89.8753 85.3287L89.8858 85.3579L95.5303 83.3232ZM95.5303 77.8008L101.195 79.777L101.199 79.7669L101.203 79.7567L95.5303 77.8008ZM96.7754 75.6182L92.3228 71.5964L92.3048 71.6164L92.2869 71.6365L96.7754 75.6182ZM99.002 76.0869L93.8938 72.9395L93.8822 72.9582L93.8708 72.9771L99.002 76.0869ZM99.002 85.0225L93.8708 88.1323L93.8893 88.1628L93.9081 88.1931L99.002 85.0225ZM103.763 85.0078L98.6545 81.8603L98.6429 81.8791L98.6315 81.898L103.763 85.0078ZM102.737 75.0029L99.6137 80.1257L99.6597 80.1538L99.7062 80.181L102.737 75.0029ZM101.39 79.6846C101.519 79.6846 101.589 79.696 101.609 79.7C101.627 79.7036 101.609 79.7016 101.567 79.683L106.427 68.7115C104.787 67.9847 103.072 67.6846 101.39 67.6846V79.6846ZM101.592 79.6942C101.62 79.7064 101.618 79.7083 101.597 79.6937C101.588 79.6869 101.577 79.6784 101.565 79.6683C101.554 79.6581 101.544 79.6483 101.537 79.6399L110.442 71.5964C109.299 70.3311 107.927 69.3674 106.402 68.7003L101.592 79.6942ZM101.537 79.6399C101.519 79.6198 101.513 79.6087 101.518 79.6173C101.523 79.627 101.547 79.6691 101.577 79.7567L112.921 75.8448C112.392 74.3095 111.583 72.8597 110.442 71.5964L101.537 79.6399ZM101.584 79.777C101.63 79.9102 101.688 80.1515 101.688 80.5547H113.688C113.688 78.9657 113.454 77.371 112.914 75.8245L101.584 79.777ZM101.688 80.5547C101.688 81.009 101.625 81.2529 101.59 81.3533C101.561 81.4383 101.537 81.4669 101.515 81.4921L110.434 89.5196C112.75 86.9463 113.688 83.7718 113.688 80.5547H101.688ZM101.483 81.5282C101.481 81.5301 101.5 81.5086 101.541 81.4787C101.583 81.4485 101.627 81.4251 101.662 81.4103C101.696 81.396 101.702 81.3985 101.665 81.4053C101.627 81.4124 101.538 81.4248 101.39 81.4248V93.4248C104.791 93.4248 108.045 92.2187 110.467 89.4835L101.483 81.5282ZM101.39 81.4248C101.259 81.4248 101.181 81.4135 101.146 81.4068C101.113 81.4005 101.111 81.397 101.129 81.4048L96.4354 92.4487C98.0477 93.134 99.7287 93.4248 101.39 93.4248V81.4248ZM101.213 81.441C101.2 81.4354 101.195 81.4324 101.196 81.433C101.197 81.4335 101.202 81.4366 101.21 81.4426C101.219 81.4485 101.228 81.4557 101.237 81.4638C101.246 81.4719 101.253 81.479 101.257 81.4841L92.3521 89.5276C93.4824 90.779 94.8381 91.7418 96.3518 92.4125L101.213 81.441ZM101.289 81.5197C101.285 81.5154 101.274 81.5027 101.257 81.4734C101.24 81.4432 101.21 81.3852 101.175 81.2886L89.8858 85.3579C90.4255 86.855 91.2246 88.2594 92.3202 89.492L101.289 81.5197ZM101.195 81.347C101.151 81.2197 101.091 80.9747 101.091 80.5547H89.0908C89.0908 82.1464 89.3235 83.7471 89.8651 85.2995L101.195 81.347ZM101.091 80.5547C101.091 80.1515 101.149 79.9102 101.195 79.777L89.8651 75.8245C89.3256 77.371 89.0908 78.9657 89.0908 80.5547H101.091ZM101.203 79.7567C101.236 79.6591 101.263 79.6082 101.273 79.591C101.282 79.575 101.28 79.5816 101.264 79.5999L92.2869 71.6365C91.1708 72.8947 90.38 74.3312 89.858 75.8448L101.203 79.7567ZM101.228 79.6399C101.22 79.6483 101.211 79.6581 101.199 79.6683C101.188 79.6784 101.177 79.6869 101.168 79.6937C101.147 79.7083 101.145 79.7064 101.172 79.6942L96.3627 68.7003C94.838 69.3674 93.4657 70.3311 92.3228 71.5964L101.228 79.6399ZM101.172 79.6942C101.143 79.7069 101.135 79.7062 101.16 79.7012C101.187 79.696 101.26 79.6846 101.39 79.6846V67.6846C99.7056 67.6846 97.9974 67.9851 96.3627 68.7003L101.172 79.6942ZM101.39 68.6367C97.9875 68.6367 95.4006 70.494 93.8938 72.9395L104.11 79.2344C104.018 79.3846 103.734 79.7794 103.16 80.1275C102.554 80.496 101.91 80.6367 101.39 80.6367V68.6367ZM93.8708 72.9771C92.4273 75.3588 92.123 78.1861 92.123 80.5547H104.123C104.123 79.8204 104.178 79.3502 104.23 79.0871C104.284 78.8108 104.306 78.9121 104.133 79.1967L93.8708 72.9771ZM92.123 80.5547C92.123 82.9233 92.4273 85.7506 93.8708 88.1323L104.133 81.9127C104.306 82.1973 104.284 82.2986 104.23 82.0223C104.178 81.7591 104.123 81.289 104.123 80.5547H92.123ZM93.9081 88.1931C95.4281 90.6351 98.0167 92.458 101.39 92.458V80.458C101.899 80.458 102.534 80.5941 103.137 80.9569C103.709 81.301 103.998 81.6943 104.096 81.8518L93.9081 88.1931ZM101.39 92.458C104.8 92.458 107.395 90.5905 108.894 88.1176L98.6315 81.898C98.728 81.7387 99.0176 81.3325 99.6013 80.9758C100.218 80.5988 100.869 80.458 101.39 80.458V92.458ZM108.871 88.1553C110.343 85.7661 110.656 82.9302 110.656 80.5547H98.6562C98.6562 81.2778 98.6008 81.7366 98.5501 81.989C98.4972 82.253 98.4786 82.1458 98.6545 81.8603L108.871 88.1553ZM110.656 80.5547C110.656 79.2591 110.557 77.952 110.293 76.6966L98.5506 79.1687C98.5988 79.3976 98.6562 79.8385 98.6562 80.5547H110.656ZM110.293 76.6966C110.048 75.5306 109.645 74.2691 108.953 73.0766L98.5725 79.0972C98.5381 79.0379 98.5159 78.9926 98.5035 78.9652C98.491 78.9379 98.4871 78.926 98.4894 78.9326C98.4918 78.9391 98.4994 78.9613 98.5105 79.0014C98.5216 79.0414 98.5354 79.0966 98.5506 79.1687L110.293 76.6966ZM108.953 73.0766C108.262 71.8847 107.239 70.6855 105.768 69.8248L99.7062 80.181C99.0367 79.7891 98.6974 79.3126 98.5725 79.0972L108.953 73.0766ZM105.861 69.8802C104.461 69.0263 102.918 68.6367 101.39 68.6367V80.6367C100.857 80.6367 100.213 80.4913 99.6137 80.1257L105.861 69.8802ZM135.271 86.3994L134.661 80.4305L130.472 80.859L129.451 84.9442L135.271 86.3994ZM136.238 84.9932L131.507 88.6834L131.547 88.7337L131.587 88.7832L136.238 84.9932ZM132.239 79.8662L136.97 76.176L135.169 73.8662H132.239V79.8662ZM131.521 79.8662V73.8662H125.521V79.8662H131.521ZM131.609 84.9932H137.609V84.8311L137.601 84.6693L131.609 84.9932ZM131.8 85.6523L126.848 89.0404L126.951 89.1915L127.064 89.336L131.8 85.6523ZM132.386 86.0625L130.232 91.6626L130.267 91.676L130.302 91.689L132.386 86.0625ZM133.03 86.2822L131.337 92.0384L131.531 92.0955L131.729 92.1393L133.03 86.2822ZM133.719 86.3994L139.085 83.7161L137.671 80.8878L134.539 80.4557L133.719 86.3994ZM133.719 87.0879L133.446 93.0817L136.831 93.2356L138.711 90.4161L133.719 87.0879ZM126.336 87.0879L120.515 88.5431L121.705 93.3046L126.608 93.0817L126.336 87.0879ZM126.336 86.3994L125.614 80.443L121.304 80.9654L120.452 85.2227L126.336 86.3994ZM127.112 86.2822L128.289 92.1657L128.396 92.1443L128.502 92.1191L127.112 86.2822ZM127.874 86.0625L126.084 80.3356L126.058 80.3438L126.032 80.3522L127.874 86.0625ZM128.577 85.6523L133.062 89.6385L133.115 89.5785L133.167 89.5172L128.577 85.6523ZM128.826 84.9932L122.831 84.7509L122.831 84.7626L128.826 84.9932ZM128.87 75.8525L122.87 75.8639L122.87 75.864L128.87 75.8525ZM128.855 67.2246H134.855V63.7653L131.862 62.0321L128.855 67.2246ZM126.043 66.624L120.443 68.7779L121.83 72.3849L125.688 72.6135L126.043 66.624ZM126.043 65.9355L125.477 59.9623L121.777 60.3128L120.443 63.7817L126.043 65.9355ZM130.979 64.7344L133.243 59.1778L130.902 58.224L128.584 59.2331L130.979 64.7344ZM131.492 65.1299L137.492 65.1171L137.489 63.7075L136.859 62.4466L131.492 65.1299ZM131.521 78.9287L125.521 78.9414L125.534 84.9287H131.521V78.9287ZM132.283 78.9287V84.9287H134.68L136.417 83.2776L132.283 78.9287ZM135.242 76.1162L139.376 80.4651L139.59 80.2616L139.783 80.0379L135.242 76.1162ZM134.129 74.6953L128.308 76.1505L129.326 80.2229L133.501 80.6623L134.129 74.6953ZM134.129 74.0068L134.406 68.0132L129.499 67.7868L128.308 72.5516L134.129 74.0068ZM140.281 74.0068L145.973 72.1095L144.538 67.8024L140.002 68.0133L140.281 74.0068ZM140.281 74.6953L140.951 80.6578L145.305 80.1686L146.165 75.872L140.281 74.6953ZM138.128 75.1348L139.996 80.8366L140.04 80.8222L140.084 80.807L138.128 75.1348ZM136.59 76.1162L140.859 80.3323L140.868 80.3231L140.877 80.314L136.59 76.1162ZM134.261 78.4746L129.992 74.2586L126.263 78.0346L129.555 82.1969L134.261 78.4746ZM139.417 84.9932L144.173 81.3349L144.148 81.3027L144.123 81.2708L139.417 84.9932ZM142.054 86.3994L147.937 85.2227L147.111 81.0909L142.944 80.4658L142.054 86.3994ZM142.054 87.0879L141.775 93.0814L146.31 93.2923L147.746 88.9853L142.054 87.0879ZM135.271 87.0879L129.451 88.5431L130.642 93.3097L135.55 93.0814L135.271 87.0879ZM135.882 92.3683C136.581 92.2968 137.823 92.1171 139.065 91.4538C140.523 90.6748 142.561 88.814 142.561 85.7109H130.561C130.561 84.5584 130.921 83.4203 131.6 82.4715C132.227 81.5962 132.954 81.1131 133.412 80.8689C134.224 80.4352 134.821 80.4141 134.661 80.4305L135.882 92.3683ZM142.561 85.7109C142.561 83.512 141.499 81.9509 140.89 81.2031L131.587 88.7832C131.407 88.5628 130.561 87.4802 130.561 85.7109H142.561ZM140.969 81.303L136.97 76.176L127.508 83.5564L131.507 88.6834L140.969 81.303ZM132.239 73.8662H131.521V85.8662H132.239V73.8662ZM125.521 79.8662C125.521 82.2149 125.55 84.0608 125.618 85.317L137.601 84.6693C137.551 83.7576 137.521 82.1855 137.521 79.8662H125.521ZM125.609 84.9932C125.609 86.2941 125.952 87.731 126.848 89.0404L136.752 82.2642C137.394 83.2026 137.609 84.2 137.609 84.9932H125.609ZM127.064 89.336C128.005 90.5464 129.185 91.2598 130.232 91.6626L134.54 80.4624C135.079 80.6699 135.868 81.1099 136.536 81.9687L127.064 89.336ZM130.302 91.689C130.626 91.8089 130.984 91.9346 131.337 92.0384L134.723 80.526C134.742 80.5316 134.731 80.5287 134.681 80.5116C134.633 80.4953 134.563 80.4708 134.47 80.436L130.302 91.689ZM131.729 92.1393C132.128 92.2281 132.536 92.2931 132.899 92.3431L134.539 80.4557C134.446 80.4429 134.382 80.4328 134.341 80.4259C134.298 80.4186 134.299 80.4177 134.332 80.4251L131.729 92.1393ZM128.352 89.0827C128.008 88.3943 127.807 87.6005 127.807 86.7656H139.807C139.807 85.6769 139.547 84.6389 139.085 83.7161L128.352 89.0827ZM127.807 86.7656C127.807 85.9506 128.005 84.8415 128.726 83.7597L138.711 90.4161C139.549 89.1585 139.807 87.8346 139.807 86.7656H127.807ZM133.991 81.0941C132.622 81.0318 131.31 81 130.057 81V93C131.108 93 132.237 93.0268 133.446 93.0817L133.991 81.0941ZM130.057 81C128.767 81 127.436 81.0317 126.063 81.0941L126.608 93.0817C127.814 93.0269 128.963 93 130.057 93V81ZM132.157 85.6327C132.157 85.6353 132.161 85.6512 132.167 85.6783C132.173 85.7042 132.183 85.752 132.195 85.8168C132.206 85.8784 132.224 85.9829 132.24 86.1177C132.254 86.2404 132.277 86.4707 132.277 86.7656H120.277C120.277 87.6692 120.495 88.4637 120.515 88.5431L132.157 85.6327ZM132.277 86.7656C132.277 86.9473 132.269 87.0925 132.262 87.1791C132.256 87.2717 132.248 87.3466 132.242 87.3966C132.231 87.4935 132.22 87.562 132.217 87.5854C132.209 87.6325 132.207 87.6375 132.219 87.5761L120.452 85.2227C120.426 85.3566 120.394 85.5203 120.367 85.6895C120.361 85.7318 120.277 86.2072 120.277 86.7656H132.277ZM127.058 92.3558C127.451 92.3082 127.88 92.2476 128.289 92.1657L125.936 80.3987C125.955 80.3949 125.939 80.3986 125.876 80.408C125.816 80.4171 125.73 80.4289 125.614 80.443L127.058 92.3558ZM128.502 92.1191C128.915 92.0207 129.331 91.897 129.716 91.7728L126.032 80.3522C125.929 80.3856 125.85 80.4095 125.794 80.4257C125.736 80.4425 125.714 80.4474 125.723 80.4454L128.502 92.1191ZM129.664 91.7894C130.626 91.4886 131.952 90.8872 133.062 89.6385L124.093 81.6662C124.89 80.7691 125.747 80.4411 126.084 80.3356L129.664 91.7894ZM133.167 89.5172C134.226 88.2595 134.763 86.7437 134.822 85.2238L122.831 84.7626C122.87 83.7505 123.241 82.6741 123.988 81.7875L133.167 89.5172ZM134.821 85.2354C134.867 84.1081 134.88 80.8978 134.87 75.8411L122.87 75.864C122.88 81.0612 122.864 83.9447 122.831 84.7509L134.821 85.2354ZM134.87 75.8411C134.86 70.6999 134.855 67.8324 134.855 67.2246H122.855C122.855 67.8473 122.86 70.7318 122.87 75.8639L134.87 75.8411ZM131.862 62.0321C130.015 60.9631 127.866 60.7215 126.398 60.6345L125.688 72.6135C125.91 72.6267 126.088 72.6434 126.226 72.6604C126.364 72.6775 126.447 72.693 126.482 72.7005C126.519 72.7084 126.481 72.7026 126.386 72.6695C126.295 72.6376 126.101 72.5628 125.849 72.4172L131.862 62.0321ZM131.643 64.4701C131.791 64.8552 131.97 65.4765 131.97 66.2725H119.97C119.97 67.2833 120.197 68.1389 120.443 68.7779L131.643 64.4701ZM131.97 66.2725C131.97 67.1388 131.762 67.7794 131.643 68.0894L120.443 63.7817C120.226 64.3456 119.97 65.2108 119.97 66.2725H131.97ZM126.609 71.9088C128.979 71.6843 131.26 71.1564 133.375 70.2356L128.584 59.2331C127.828 59.5623 126.818 59.8352 125.477 59.9623L126.609 71.9088ZM128.716 70.2909C128.496 70.2013 128.095 70.015 127.641 69.6645C127.175 69.3055 126.575 68.7112 126.126 67.8132L136.859 62.4466C135.827 60.3831 134.06 59.5104 133.243 59.1778L128.716 70.2909ZM125.492 65.1426L125.521 78.9414L137.521 78.916L137.492 65.1171L125.492 65.1426ZM131.521 84.9287H132.283V72.9287H131.521V84.9287ZM136.417 83.2776L139.376 80.4651L131.109 71.7673L128.15 74.5798L136.417 83.2776ZM139.783 80.0379C140.654 79.0295 141.521 77.4699 141.521 75.457H129.521C129.521 73.8934 130.201 72.7733 130.701 72.1945L139.783 80.0379ZM141.521 75.457C141.521 72.4088 139.561 70.521 138.053 69.6959C136.783 69.0005 135.5 68.8065 134.757 68.7283L133.501 80.6623C133.686 80.6818 133.098 80.6636 132.292 80.2221C131.835 79.9723 131.123 79.4848 130.515 78.6146C129.859 77.6765 129.521 76.5668 129.521 75.457H141.521ZM139.95 73.2401C139.95 73.2427 139.954 73.2587 139.96 73.2857C139.966 73.3116 139.976 73.3594 139.988 73.4242C139.999 73.4859 140.017 73.5903 140.033 73.7251C140.047 73.8478 140.07 74.0781 140.07 74.373H128.07C128.07 75.2766 128.288 76.0712 128.308 76.1505L139.95 73.2401ZM140.07 74.373C140.07 74.7452 140.032 75.0265 140.01 75.1635C139.985 75.3149 139.96 75.4197 139.95 75.462L128.308 72.5516C128.231 72.8595 128.07 73.546 128.07 74.373H140.07ZM133.852 80.0005C135.161 80.0608 136.276 80.0947 137.161 80.0947V68.0947C136.543 68.0947 135.636 68.07 134.406 68.0132L133.852 80.0005ZM137.161 80.0947C138.11 80.0947 139.251 80.0612 140.56 80.0004L140.002 68.0133C138.792 68.0696 137.853 68.0947 137.161 68.0947V80.0947ZM134.589 75.9042C134.5 75.6375 134.34 75.0744 134.34 74.3145H146.34C146.34 73.3787 146.14 72.6105 145.973 72.1095L134.589 75.9042ZM134.34 74.3145C134.34 74.1619 134.346 74.0373 134.351 73.9533C134.357 73.8663 134.364 73.7945 134.369 73.7431C134.38 73.6435 134.39 73.5716 134.395 73.5413C134.404 73.4822 134.408 73.4667 134.398 73.5186L146.165 75.872C146.173 75.8302 146.34 75.0835 146.34 74.3145H134.34ZM139.611 68.7328C138.485 68.8594 137.298 69.0744 136.172 69.4625L140.084 80.807C140.073 80.8109 140.134 80.7892 140.291 80.7572C140.445 80.7258 140.662 80.6903 140.951 80.6578L139.611 68.7328ZM136.26 69.4329C134.689 69.9477 133.367 70.832 132.303 71.9185L140.877 80.314C140.731 80.4629 140.434 80.693 139.996 80.8366L136.26 69.4329ZM132.321 71.9002L129.992 74.2586L138.53 82.6907L140.859 80.3323L132.321 71.9002ZM129.555 82.1969L134.711 88.7155L144.123 81.2708L138.967 74.7523L129.555 82.1969ZM134.661 88.6514C136.403 90.9152 138.835 91.9837 141.164 92.333L142.944 80.4658C142.909 80.4606 143.073 80.48 143.339 80.6219C143.625 80.7741 143.926 81.0144 144.173 81.3349L134.661 88.6514ZM136.17 87.5761C136.179 87.6181 136.173 87.5933 136.162 87.5241C136.157 87.488 136.147 87.4143 136.137 87.3144C136.128 87.2268 136.112 87.0396 136.112 86.7949H148.112C148.112 86.0377 147.959 85.3311 147.937 85.2227L136.17 87.5761ZM136.112 86.7949C136.112 86.3485 136.166 85.9887 136.214 85.7501C136.263 85.5053 136.32 85.3144 136.362 85.1905L147.746 88.9853C147.885 88.5686 148.112 87.7806 148.112 86.7949H136.112ZM142.332 81.0944C141.001 81.0324 139.768 81 138.641 81V93C139.544 93 140.587 93.0262 141.775 93.0814L142.332 81.0944ZM138.641 81C137.54 81 136.321 81.0326 134.993 81.0944L135.55 93.0814C136.741 93.026 137.769 93 138.641 93V81ZM141.092 85.6327C141.099 85.6591 141.122 85.7535 141.146 85.8964C141.166 86.0145 141.213 86.3219 141.213 86.7363H129.213C129.213 87.5892 129.39 88.3022 129.451 88.5431L141.092 85.6327ZM141.213 86.7363C141.213 86.9914 141.195 87.1951 141.182 87.3217C141.167 87.4547 141.151 87.5602 141.139 87.6289C141.116 87.7611 141.095 87.844 141.092 87.8546L129.451 84.9442C129.409 85.1094 129.213 85.8578 129.213 86.7363H141.213Z" fill="#FACB22" fill-opacity="0.87"/>
<defs>
<filter id="filter0_f_2_15" x="0" y="0" width="177" height="112" filterUnits="userSpaceOnUse" color-interpolation-filters="sRGB">
<feFlood flood-opacity="0" result="BackgroundImageFix"/>
<feBlend mode="normal" in="SourceGraphic" in2="BackgroundImageFix" result="shape"/>
<feGaussianBlur stdDeviation="1.5" result="effect1_foregroundBlur_2_15"/>
</filter>
</defs>
</svg>
