<svg width="186" height="31" viewBox="0 0 186 31" fill="none" xmlns="http://www.w3.org/2000/svg">
<g filter="url(#filter0_i_2_3)">
<path d="M0.818182 24V0.727272H3.63636V11.0909H16.0455V0.727272H18.8636V24H16.0455V13.5909H3.63636V24H0.818182ZM40.233 24.3636C38.6572 24.3636 37.2746 23.9886 36.0852 23.2386C34.9034 22.4886 33.9792 21.4394 33.3125 20.0909C32.6534 18.7424 32.3239 17.1667 32.3239 15.3636C32.3239 13.5455 32.6534 11.9583 33.3125 10.6023C33.9792 9.24621 34.9034 8.19318 36.0852 7.44318C37.2746 6.69318 38.6572 6.31818 40.233 6.31818C41.8087 6.31818 43.1875 6.69318 44.3693 7.44318C45.5587 8.19318 46.483 9.24621 47.142 10.6023C47.8087 11.9583 48.142 13.5455 48.142 15.3636C48.142 17.1667 47.8087 18.7424 47.142 20.0909C46.483 21.4394 45.5587 22.4886 44.3693 23.2386C43.1875 23.9886 41.8087 24.3636 40.233 24.3636ZM40.233 21.9545C41.4299 21.9545 42.4148 21.6477 43.1875 21.0341C43.9602 20.4205 44.5322 19.6136 44.9034 18.6136C45.2746 17.6136 45.4602 16.5303 45.4602 15.3636C45.4602 14.197 45.2746 13.1098 44.9034 12.1023C44.5322 11.0947 43.9602 10.2803 43.1875 9.65909C42.4148 9.03788 41.4299 8.72727 40.233 8.72727C39.036 8.72727 38.0511 9.03788 37.2784 9.65909C36.5057 10.2803 35.9337 11.0947 35.5625 12.1023C35.1913 13.1098 35.0057 14.197 35.0057 15.3636C35.0057 16.5303 35.1913 17.6136 35.5625 18.6136C35.9337 19.6136 36.5057 20.4205 37.2784 21.0341C38.0511 21.6477 39.036 21.9545 40.233 21.9545ZM63.9176 0.727272V24H61.2358V0.727272H63.9176ZM80.5114 0.727272V24H77.8295V0.727272H80.5114ZM96.1506 30.5455C95.696 30.5455 95.2907 30.5076 94.9347 30.4318C94.5786 30.3636 94.3324 30.2955 94.196 30.2273L94.8778 27.8636C95.5294 28.0303 96.1051 28.0909 96.6051 28.0455C97.1051 28 97.5483 27.7765 97.9347 27.375C98.3286 26.9811 98.6884 26.3409 99.0142 25.4545L99.5142 24.0909L93.0597 6.54545H95.9688L100.787 20.4545H100.969L105.787 6.54545H108.696L101.287 26.5455C100.954 27.447 100.541 28.1932 100.048 28.7841C99.5559 29.3826 98.9839 29.8258 98.3324 30.1136C97.6884 30.4015 96.9612 30.5455 96.1506 30.5455ZM112.599 24V0.727272H120.736C122.357 0.727272 123.694 1.00758 124.747 1.56818C125.8 2.12121 126.584 2.86742 127.099 3.80682C127.615 4.73864 127.872 5.77273 127.872 6.90909C127.872 7.90909 127.694 8.73485 127.338 9.38636C126.99 10.0379 126.527 10.553 125.952 10.9318C125.384 11.3106 124.766 11.5909 124.099 11.7727V12C124.812 12.0455 125.527 12.2955 126.247 12.75C126.967 13.2045 127.569 13.8561 128.054 14.7045C128.539 15.553 128.781 16.5909 128.781 17.8182C128.781 18.9848 128.516 20.0341 127.986 20.9659C127.455 21.8977 126.618 22.6364 125.474 23.1818C124.33 23.7273 122.842 24 121.009 24H112.599ZM115.418 21.5H121.009C122.849 21.5 124.156 21.1439 124.929 20.4318C125.709 19.7121 126.099 18.8409 126.099 17.8182C126.099 17.0303 125.899 16.303 125.497 15.6364C125.096 14.9621 124.524 14.4242 123.781 14.0227C123.039 13.6136 122.16 13.4091 121.145 13.4091H115.418V21.5ZM115.418 10.9545H120.645C121.493 10.9545 122.259 10.7879 122.94 10.4545C123.63 10.1212 124.175 9.65151 124.577 9.04545C124.986 8.43939 125.19 7.72727 125.19 6.90909C125.19 5.88636 124.834 5.01894 124.122 4.30682C123.41 3.58712 122.281 3.22727 120.736 3.22727H115.418V10.9545ZM140.139 24.3636C138.563 24.3636 137.181 23.9886 135.991 23.2386C134.81 22.4886 133.885 21.4394 133.219 20.0909C132.56 18.7424 132.23 17.1667 132.23 15.3636C132.23 13.5455 132.56 11.9583 133.219 10.6023C133.885 9.24621 134.81 8.19318 135.991 7.44318C137.181 6.69318 138.563 6.31818 140.139 6.31818C141.715 6.31818 143.094 6.69318 144.276 7.44318C145.465 8.19318 146.389 9.24621 147.048 10.6023C147.715 11.9583 148.048 13.5455 148.048 15.3636C148.048 17.1667 147.715 18.7424 147.048 20.0909C146.389 21.4394 145.465 22.4886 144.276 23.2386C143.094 23.9886 141.715 24.3636 140.139 24.3636ZM140.139 21.9545C141.336 21.9545 142.321 21.6477 143.094 21.0341C143.866 20.4205 144.438 19.6136 144.81 18.6136C145.181 17.6136 145.366 16.5303 145.366 15.3636C145.366 14.197 145.181 13.1098 144.81 12.1023C144.438 11.0947 143.866 10.2803 143.094 9.65909C142.321 9.03788 141.336 8.72727 140.139 8.72727C138.942 8.72727 137.957 9.03788 137.185 9.65909C136.412 10.2803 135.84 11.0947 135.469 12.1023C135.098 13.1098 134.912 14.197 134.912 15.3636C134.912 16.5303 135.098 17.6136 135.469 18.6136C135.84 19.6136 136.412 20.4205 137.185 21.0341C137.957 21.6477 138.942 21.9545 140.139 21.9545ZM159.233 24.3636C157.657 24.3636 156.275 23.9886 155.085 23.2386C153.903 22.4886 152.979 21.4394 152.312 20.0909C151.653 18.7424 151.324 17.1667 151.324 15.3636C151.324 13.5455 151.653 11.9583 152.312 10.6023C152.979 9.24621 153.903 8.19318 155.085 7.44318C156.275 6.69318 157.657 6.31818 159.233 6.31818C160.809 6.31818 162.188 6.69318 163.369 7.44318C164.559 8.19318 165.483 9.24621 166.142 10.6023C166.809 11.9583 167.142 13.5455 167.142 15.3636C167.142 17.1667 166.809 18.7424 166.142 20.0909C165.483 21.4394 164.559 22.4886 163.369 23.2386C162.188 23.9886 160.809 24.3636 159.233 24.3636ZM159.233 21.9545C160.43 21.9545 161.415 21.6477 162.188 21.0341C162.96 20.4205 163.532 19.6136 163.903 18.6136C164.275 17.6136 164.46 16.5303 164.46 15.3636C164.46 14.197 164.275 13.1098 163.903 12.1023C163.532 11.0947 162.96 10.2803 162.188 9.65909C161.415 9.03788 160.43 8.72727 159.233 8.72727C158.036 8.72727 157.051 9.03788 156.278 9.65909C155.506 10.2803 154.934 11.0947 154.562 12.1023C154.191 13.1098 154.006 14.197 154.006 15.3636C154.006 16.5303 154.191 17.6136 154.562 18.6136C154.934 19.6136 155.506 20.4205 156.278 21.0341C157.051 21.6477 158.036 21.9545 159.233 21.9545ZM173.736 17.6364L173.69 14.3182H174.236L181.872 6.54545H185.19L177.054 14.7727H176.827L173.736 17.6364ZM171.236 24V0.727272H173.918V24H171.236ZM182.327 24L175.509 15.3636L177.418 13.5L185.736 24H182.327Z" fill="black"/>
</g>
<defs>
<filter id="filter0_i_2_3" x="-3.18182" y="0.727272" width="188.918" height="33.8182" filterUnits="userSpaceOnUse" color-interpolation-filters="sRGB">
<feFlood flood-opacity="0" result="BackgroundImageFix"/>
<feBlend mode="normal" in="SourceGraphic" in2="BackgroundImageFix" result="shape"/>
<feColorMatrix in="SourceAlpha" type="matrix" values="0 0 0 0 0 0 0 0 0 0 0 0 0 0 0 0 0 0 127 0" result="hardAlpha"/>
<feOffset dx="-120" dy="4"/>
<feGaussianBlur stdDeviation="2"/>
<feComposite in2="hardAlpha" operator="arithmetic" k2="-1" k3="1"/>
<feColorMatrix type="matrix" values="0 0 0 0 0 0 0 0 0 0 0 0 0 0 0 0 0 0 0.25 0"/>
<feBlend mode="normal" in2="shape" result="effect1_innerShadow_2_3"/>
</filter>
</defs>
</svg>
