<svg width="169" height="31" viewBox="0 0 169 31" fill="none" xmlns="http://www.w3.org/2000/svg">
<path d="M0.818182 24V0.727272H3.63636V11.0909H16.0455V0.727272H18.8636V24H16.0455V13.5909H3.63636V24H0.818182ZM31.233 24.3636C29.6572 24.3636 28.2746 23.9886 27.0852 23.2386C25.9034 22.4886 24.9792 21.4394 24.3125 20.0909C23.6534 18.7424 23.3239 17.1667 23.3239 15.3636C23.3239 13.5455 23.6534 11.9583 24.3125 10.6023C24.9792 9.24621 25.9034 8.19318 27.0852 7.44318C28.2746 6.69318 29.6572 6.31818 31.233 6.31818C32.8087 6.31818 34.1875 6.69318 35.3693 7.44318C36.5587 8.19318 37.483 9.24621 38.142 10.6023C38.8087 11.9583 39.142 13.5455 39.142 15.3636C39.142 17.1667 38.8087 18.7424 38.142 20.0909C37.483 21.4394 36.5587 22.4886 35.3693 23.2386C34.1875 23.9886 32.8087 24.3636 31.233 24.3636ZM31.233 21.9545C32.4299 21.9545 33.4148 21.6477 34.1875 21.0341C34.9602 20.4205 35.5322 19.6136 35.9034 18.6136C36.2746 17.6136 36.4602 16.5303 36.4602 15.3636C36.4602 14.197 36.2746 13.1098 35.9034 12.1023C35.5322 11.0947 34.9602 10.2803 34.1875 9.65909C33.4148 9.03788 32.4299 8.72727 31.233 8.72727C30.036 8.72727 29.0511 9.03788 28.2784 9.65909C27.5057 10.2803 26.9337 11.0947 26.5625 12.1023C26.1913 13.1098 26.0057 14.197 26.0057 15.3636C26.0057 16.5303 26.1913 17.6136 26.5625 18.6136C26.9337 19.6136 27.5057 20.4205 28.2784 21.0341C29.0511 21.6477 30.036 21.9545 31.233 21.9545ZM43.5994 24V0.727272H46.4176V21.5H57.2358V24H43.5994ZM61.5994 24V0.727272H64.4176V21.5H75.2358V24H61.5994ZM78.7756 30.5455C78.321 30.5455 77.9157 30.5076 77.5597 30.4318C77.2036 30.3636 76.9574 30.2955 76.821 30.2273L77.5028 27.8636C78.1544 28.0303 78.7301 28.0909 79.2301 28.0455C79.7301 28 80.1733 27.7765 80.5597 27.375C80.9536 26.9811 81.3134 26.3409 81.6392 25.4545L82.1392 24.0909L75.6847 6.54545H78.5938L83.4119 20.4545H83.5938L88.4119 6.54545H91.321L83.9119 26.5455C83.5786 27.447 83.1657 28.1932 82.6733 28.7841C82.1809 29.3826 81.6089 29.8258 80.9574 30.1136C80.3134 30.4015 79.5862 30.5455 78.7756 30.5455ZM95.2244 24V0.727272H103.361C104.982 0.727272 106.319 1.00758 107.372 1.56818C108.425 2.12121 109.209 2.86742 109.724 3.80682C110.24 4.73864 110.497 5.77273 110.497 6.90909C110.497 7.90909 110.319 8.73485 109.963 9.38636C109.615 10.0379 109.152 10.553 108.577 10.9318C108.009 11.3106 107.391 11.5909 106.724 11.7727V12C107.437 12.0455 108.152 12.2955 108.872 12.75C109.592 13.2045 110.194 13.8561 110.679 14.7045C111.164 15.553 111.406 16.5909 111.406 17.8182C111.406 18.9848 111.141 20.0341 110.611 20.9659C110.08 21.8977 109.243 22.6364 108.099 23.1818C106.955 23.7273 105.467 24 103.634 24H95.2244ZM98.0426 21.5H103.634C105.474 21.5 106.781 21.1439 107.554 20.4318C108.334 19.7121 108.724 18.8409 108.724 17.8182C108.724 17.0303 108.524 16.303 108.122 15.6364C107.721 14.9621 107.149 14.4242 106.406 14.0227C105.664 13.6136 104.785 13.4091 103.77 13.4091H98.0426V21.5ZM98.0426 10.9545H103.27C104.118 10.9545 104.884 10.7879 105.565 10.4545C106.255 10.1212 106.8 9.65151 107.202 9.04545C107.611 8.43939 107.815 7.72727 107.815 6.90909C107.815 5.88636 107.459 5.01894 106.747 4.30682C106.035 3.58712 104.906 3.22727 103.361 3.22727H98.0426V10.9545ZM122.764 24.3636C121.188 24.3636 119.806 23.9886 118.616 23.2386C117.435 22.4886 116.51 21.4394 115.844 20.0909C115.185 18.7424 114.855 17.1667 114.855 15.3636C114.855 13.5455 115.185 11.9583 115.844 10.6023C116.51 9.24621 117.435 8.19318 118.616 7.44318C119.806 6.69318 121.188 6.31818 122.764 6.31818C124.34 6.31818 125.719 6.69318 126.901 7.44318C128.09 8.19318 129.014 9.24621 129.673 10.6023C130.34 11.9583 130.673 13.5455 130.673 15.3636C130.673 17.1667 130.34 18.7424 129.673 20.0909C129.014 21.4394 128.09 22.4886 126.901 23.2386C125.719 23.9886 124.34 24.3636 122.764 24.3636ZM122.764 21.9545C123.961 21.9545 124.946 21.6477 125.719 21.0341C126.491 20.4205 127.063 19.6136 127.435 18.6136C127.806 17.6136 127.991 16.5303 127.991 15.3636C127.991 14.197 127.806 13.1098 127.435 12.1023C127.063 11.0947 126.491 10.2803 125.719 9.65909C124.946 9.03788 123.961 8.72727 122.764 8.72727C121.567 8.72727 120.582 9.03788 119.81 9.65909C119.037 10.2803 118.465 11.0947 118.094 12.1023C117.723 13.1098 117.537 14.197 117.537 15.3636C117.537 16.5303 117.723 17.6136 118.094 18.6136C118.465 19.6136 119.037 20.4205 119.81 21.0341C120.582 21.6477 121.567 21.9545 122.764 21.9545ZM141.858 24.3636C140.282 24.3636 138.9 23.9886 137.71 23.2386C136.528 22.4886 135.604 21.4394 134.938 20.0909C134.278 18.7424 133.949 17.1667 133.949 15.3636C133.949 13.5455 134.278 11.9583 134.938 10.6023C135.604 9.24621 136.528 8.19318 137.71 7.44318C138.9 6.69318 140.282 6.31818 141.858 6.31818C143.434 6.31818 144.813 6.69318 145.994 7.44318C147.184 8.19318 148.108 9.24621 148.767 10.6023C149.434 11.9583 149.767 13.5455 149.767 15.3636C149.767 17.1667 149.434 18.7424 148.767 20.0909C148.108 21.4394 147.184 22.4886 145.994 23.2386C144.813 23.9886 143.434 24.3636 141.858 24.3636ZM141.858 21.9545C143.055 21.9545 144.04 21.6477 144.812 21.0341C145.585 20.4205 146.157 19.6136 146.528 18.6136C146.9 17.6136 147.085 16.5303 147.085 15.3636C147.085 14.197 146.9 13.1098 146.528 12.1023C146.157 11.0947 145.585 10.2803 144.812 9.65909C144.04 9.03788 143.055 8.72727 141.858 8.72727C140.661 8.72727 139.676 9.03788 138.903 9.65909C138.131 10.2803 137.559 11.0947 137.188 12.1023C136.816 13.1098 136.631 14.197 136.631 15.3636C136.631 16.5303 136.816 17.6136 137.188 18.6136C137.559 19.6136 138.131 20.4205 138.903 21.0341C139.676 21.6477 140.661 21.9545 141.858 21.9545ZM156.361 17.6364L156.315 14.3182H156.861L164.497 6.54545H167.815L159.679 14.7727H159.452L156.361 17.6364ZM153.861 24V0.727272H156.543V24H153.861ZM164.952 24L158.134 15.3636L160.043 13.5L168.361 24H164.952Z" fill="#AEC184"/>
<path d="M0.818182 24H-3.18182V28H0.818182V24ZM0.818182 0.727272V-3.27273H-3.18182V0.727272H0.818182ZM3.63636 0.727272H7.63636V-3.27273H3.63636V0.727272ZM3.63636 11.0909H-0.363636V15.0909H3.63636V11.0909ZM16.0455 11.0909V15.0909H20.0455V11.0909H16.0455ZM16.0455 0.727272V-3.27273H12.0455V0.727272H16.0455ZM18.8636 0.727272H22.8636V-3.27273H18.8636V0.727272ZM18.8636 24V28H22.8636V24H18.8636ZM16.0455 24H12.0455V28H16.0455V24ZM16.0455 13.5909H20.0455V9.59091H16.0455V13.5909ZM3.63636 13.5909V9.59091H-0.363636V13.5909H3.63636ZM3.63636 24V28H7.63636V24H3.63636ZM4.81818 24V0.727272H-3.18182V24H4.81818ZM0.818182 4.72727H3.63636V-3.27273H0.818182V4.72727ZM-0.363636 0.727272V11.0909H7.63636V0.727272H-0.363636ZM3.63636 15.0909H16.0455V7.09091H3.63636V15.0909ZM20.0455 11.0909V0.727272H12.0455V11.0909H20.0455ZM16.0455 4.72727H18.8636V-3.27273H16.0455V4.72727ZM14.8636 0.727272V24H22.8636V0.727272H14.8636ZM18.8636 20H16.0455V28H18.8636V20ZM20.0455 24V13.5909H12.0455V24H20.0455ZM16.0455 9.59091H3.63636V17.5909H16.0455V9.59091ZM-0.363636 13.5909V24H7.63636V13.5909H-0.363636ZM3.63636 20H0.818182V28H3.63636V20ZM27.0852 23.2386L24.9419 26.616L24.9517 26.6221L27.0852 23.2386ZM24.3125 20.0909L20.7188 21.8474L20.7228 21.8555L20.7268 21.8636L24.3125 20.0909ZM24.3125 10.6023L20.7228 8.83752L20.7189 8.84562L20.7149 8.85373L24.3125 10.6023ZM27.0852 7.44318L24.9517 4.05968L24.9419 4.06586L27.0852 7.44318ZM35.3693 7.44318L33.226 10.8205L33.2358 10.8267L35.3693 7.44318ZM38.142 10.6023L34.5445 12.3508L34.5484 12.3589L34.5524 12.367L38.142 10.6023ZM38.142 20.0909L34.5563 18.3182L34.5523 18.3263L34.5483 18.3344L38.142 20.0909ZM35.3693 23.2386L33.2358 19.8551L33.226 19.8613L35.3693 23.2386ZM34.1875 21.0341L31.7 17.9016L31.7 17.9016L34.1875 21.0341ZM35.9034 18.6136L39.6534 20.0057L39.6534 20.0057L35.9034 18.6136ZM35.9034 12.1023L39.6568 10.7195L39.6568 10.7194L35.9034 12.1023ZM34.1875 9.65909L36.6937 6.54159L36.6937 6.54159L34.1875 9.65909ZM28.2784 9.65909L25.7722 6.54159L25.7722 6.54159L28.2784 9.65909ZM26.5625 12.1023L22.8091 10.7194L22.8091 10.7195L26.5625 12.1023ZM26.5625 18.6136L22.8125 20.0057L22.8125 20.0057L26.5625 18.6136ZM28.2784 21.0341L30.7659 17.9016L30.7659 17.9016L28.2784 21.0341ZM31.233 20.3636C30.3185 20.3636 29.6944 20.1551 29.2188 19.8551L24.9517 26.6221C26.8548 27.8222 28.9959 28.3636 31.233 28.3636V20.3636ZM29.2285 19.8613C28.7117 19.5334 28.2653 19.0608 27.8982 18.3182L20.7268 21.8636C21.693 23.818 23.0951 25.4439 24.9419 26.616L29.2285 19.8613ZM27.9062 18.3344C27.563 17.6321 27.3239 16.6789 27.3239 15.3636H19.3239C19.3239 17.6544 19.7439 19.8527 20.7188 21.8474L27.9062 18.3344ZM27.3239 15.3636C27.3239 14.0282 27.5648 13.0612 27.9101 12.3508L20.7149 8.85373C19.742 10.8554 19.3239 13.0627 19.3239 15.3636H27.3239ZM27.9022 12.367C28.271 11.6168 28.7173 11.1449 29.2285 10.8205L24.9419 4.06586C23.0895 5.24146 21.6873 6.87567 20.7228 8.83752L27.9022 12.367ZM29.2188 10.8267C29.6944 10.5267 30.3185 10.3182 31.233 10.3182V2.31818C28.9959 2.31818 26.8548 2.85964 24.9517 4.05969L29.2188 10.8267ZM31.233 10.3182C32.1479 10.3182 32.7633 10.5268 33.226 10.8205L37.5126 4.06586C35.6117 2.85952 33.4695 2.31818 31.233 2.31818V10.3182ZM33.2358 10.8267C33.7484 11.1499 34.1869 11.6151 34.5445 12.3508L41.7396 8.85373C40.779 6.87734 39.369 5.23644 37.5029 4.05969L33.2358 10.8267ZM34.5524 12.367C34.8997 13.0734 35.142 14.0345 35.142 15.3636H43.142C43.142 13.0564 42.7177 10.8432 41.7317 8.83752L34.5524 12.367ZM35.142 15.3636C35.142 16.6726 34.9016 17.6199 34.5563 18.3182L41.7278 21.8636C42.7159 19.865 43.142 17.6607 43.142 15.3636H35.142ZM34.5483 18.3344C34.1925 19.0624 33.7541 19.5283 33.2358 19.8551L37.5029 26.6221C39.3634 25.4489 40.7734 23.8164 41.7358 21.8474L34.5483 18.3344ZM33.226 19.8613C32.7633 20.155 32.1479 20.3636 31.233 20.3636V28.3636C33.4695 28.3636 35.6117 27.8223 37.5126 26.616L33.226 19.8613ZM31.233 25.9545C33.1346 25.9545 35.0536 25.4541 36.675 24.1665L31.7 17.9016C31.7175 17.8877 31.7224 17.8921 31.6796 17.9055C31.6283 17.9214 31.4912 17.9545 31.233 17.9545V25.9545ZM36.675 24.1665C38.0657 23.0622 39.0494 21.6327 39.6534 20.0057L32.1534 17.2216C32.015 17.5946 31.8548 17.7787 31.7 17.9016L36.675 24.1665ZM39.6534 20.0057C40.2048 18.5203 40.4602 16.9609 40.4602 15.3636H32.4602C32.4602 16.0997 32.3445 16.707 32.1534 17.2216L39.6534 20.0057ZM40.4602 15.3636C40.4602 13.766 40.2047 12.2066 39.6568 10.7195L32.15 13.4851C32.3446 14.0131 32.4602 14.628 32.4602 15.3636H40.4602ZM39.6568 10.7194C39.0564 9.08977 38.0784 7.65479 36.6937 6.54159L31.6813 12.7766C31.842 12.9058 32.008 13.0996 32.15 13.4851L39.6568 10.7194ZM36.6937 6.54159C35.0718 5.23765 33.1459 4.72727 31.233 4.72727V12.7273C31.4868 12.7273 31.6192 12.7602 31.6662 12.775C31.7047 12.7871 31.6982 12.7902 31.6813 12.7766L36.6937 6.54159ZM31.233 4.72727C29.3201 4.72727 27.3942 5.23765 25.7722 6.54159L30.7846 12.7766C30.7677 12.7902 30.7612 12.7871 30.7997 12.775C30.8467 12.7602 30.9791 12.7273 31.233 12.7273V4.72727ZM25.7722 6.54159C24.3875 7.65479 23.4095 9.08977 22.8091 10.7194L30.3159 13.4851C30.4579 13.0996 30.6239 12.9058 30.7846 12.7766L25.7722 6.54159ZM22.8091 10.7195C22.2612 12.2066 22.0057 13.766 22.0057 15.3636H30.0057C30.0057 14.628 30.1214 14.0131 30.3159 13.4851L22.8091 10.7195ZM22.0057 15.3636C22.0057 16.9609 22.2611 18.5203 22.8125 20.0057L30.3125 17.2216C30.1214 16.707 30.0057 16.0997 30.0057 15.3636H22.0057ZM22.8125 20.0057C23.4165 21.6327 24.4002 23.0622 25.7909 24.1665L30.7659 17.9016C30.6112 17.7787 30.4509 17.5946 30.3125 17.2216L22.8125 20.0057ZM25.7909 24.1665C27.4123 25.4541 29.3313 25.9545 31.233 25.9545V17.9545C30.9747 17.9545 30.8376 17.9214 30.7863 17.9055C30.7435 17.8921 30.7484 17.8877 30.7659 17.9016L25.7909 24.1665ZM43.5994 24H39.5994V28H43.5994V24ZM43.5994 0.727272V-3.27273H39.5994V0.727272H43.5994ZM46.4176 0.727272H50.4176V-3.27273H46.4176V0.727272ZM46.4176 21.5H42.4176V25.5H46.4176V21.5ZM57.2358 21.5H61.2358V17.5H57.2358V21.5ZM57.2358 24V28H61.2358V24H57.2358ZM47.5994 24V0.727272H39.5994V24H47.5994ZM43.5994 4.72727H46.4176V-3.27273H43.5994V4.72727ZM42.4176 0.727272V21.5H50.4176V0.727272H42.4176ZM46.4176 25.5H57.2358V17.5H46.4176V25.5ZM53.2358 21.5V24H61.2358V21.5H53.2358ZM57.2358 20H43.5994V28H57.2358V20ZM61.5994 24H57.5994V28H61.5994V24ZM61.5994 0.727272V-3.27273H57.5994V0.727272H61.5994ZM64.4176 0.727272H68.4176V-3.27273H64.4176V0.727272ZM64.4176 21.5H60.4176V25.5H64.4176V21.5ZM75.2358 21.5H79.2358V17.5H75.2358V21.5ZM75.2358 24V28H79.2358V24H75.2358ZM65.5994 24V0.727272H57.5994V24H65.5994ZM61.5994 4.72727H64.4176V-3.27273H61.5994V4.72727ZM60.4176 0.727272V21.5H68.4176V0.727272H60.4176ZM64.4176 25.5H75.2358V17.5H64.4176V25.5ZM71.2358 21.5V24H79.2358V21.5H71.2358ZM75.2358 20H61.5994V28H75.2358V20ZM77.5597 30.4318L78.3921 26.5194L78.3521 26.5109L78.312 26.5032L77.5597 30.4318ZM76.821 30.2273L72.9777 29.1186L72.0553 32.3165L75.0322 33.805L76.821 30.2273ZM77.5028 27.8636L78.4942 23.9884L74.735 23.0268L73.6595 26.755L77.5028 27.8636ZM79.2301 28.0455L78.868 24.0619L78.868 24.0619L79.2301 28.0455ZM80.5597 27.375L77.7312 24.5466L77.704 24.5738L77.6774 24.6015L80.5597 27.375ZM81.6392 25.4545L85.3937 26.8344L85.3947 26.8316L81.6392 25.4545ZM82.1392 24.0909L85.8947 25.4679L86.4004 24.0886L85.8932 22.7099L82.1392 24.0909ZM75.6847 6.54545V2.54545H69.9511L71.9306 7.92647L75.6847 6.54545ZM78.5938 6.54545L82.3734 5.23616L81.4413 2.54545H78.5938V6.54545ZM83.4119 20.4545L79.6323 21.7638L80.5644 24.4545H83.4119V20.4545ZM83.5938 20.4545V24.4545H86.4413L87.3734 21.7638L83.5938 20.4545ZM88.4119 6.54545V2.54545H85.5644L84.6323 5.23616L88.4119 6.54545ZM91.321 6.54545L95.0719 7.93499L97.0685 2.54545H91.321V6.54545ZM83.9119 26.5455L80.161 25.1559L80.1602 25.1583L83.9119 26.5455ZM82.6733 28.7841L79.6004 26.2234L79.5924 26.233L79.5844 26.2426L82.6733 28.7841ZM80.9574 30.1136L79.3407 26.4549L79.3328 26.4584L79.3249 26.4619L80.9574 30.1136ZM78.7756 26.5455C78.535 26.5455 78.4169 26.5247 78.3921 26.5194L76.7272 34.3442C77.4146 34.4905 78.1071 34.5455 78.7756 34.5455V26.5455ZM78.312 26.5032C78.2 26.4818 78.1616 26.4708 78.1755 26.4746C78.1843 26.4771 78.2244 26.4883 78.2869 26.5106C78.3448 26.5312 78.461 26.5751 78.6099 26.6496L75.0322 33.805C75.712 34.1449 76.4493 34.2919 76.8074 34.3604L78.312 26.5032ZM80.6643 31.3359L81.3461 28.9723L73.6595 26.755L72.9777 29.1186L80.6643 31.3359ZM76.5115 31.7388C77.4642 31.9826 78.5133 32.1271 79.5923 32.029L78.868 24.0619C78.9137 24.0577 78.9089 24.0631 78.842 24.0561C78.7752 24.049 78.6611 24.0311 78.4942 23.9884L76.5115 31.7388ZM79.5923 32.029C81.1577 31.8867 82.467 31.1617 83.4419 30.1485L77.6774 24.6015C77.759 24.5166 77.909 24.3869 78.1364 24.2722C78.3696 24.1546 78.6226 24.0842 78.868 24.0619L79.5923 32.029ZM83.3881 30.2034C84.3827 29.2089 84.9884 27.9372 85.3937 26.8344L77.8847 24.0747C77.7758 24.3711 77.6889 24.5491 77.6381 24.6394C77.5839 24.7359 77.6032 24.6746 77.7312 24.5466L83.3881 30.2034ZM85.3947 26.8316L85.8947 25.4679L78.3837 22.7139L77.8837 24.0775L85.3947 26.8316ZM85.8932 22.7099L79.4387 5.16444L71.9306 7.92647L78.3852 25.4719L85.8932 22.7099ZM75.6847 10.5455H78.5938V2.54545H75.6847V10.5455ZM74.8141 7.85474L79.6323 21.7638L87.1916 19.1453L82.3734 5.23616L74.8141 7.85474ZM83.4119 24.4545H83.5938V16.4545H83.4119V24.4545ZM87.3734 21.7638L92.1916 7.85474L84.6323 5.23616L79.8141 19.1453L87.3734 21.7638ZM88.4119 10.5455H91.321V2.54545H88.4119V10.5455ZM87.5701 5.15592L80.161 25.1559L87.6628 27.935L95.0719 7.93499L87.5701 5.15592ZM80.1602 25.1583C79.9469 25.735 79.739 26.057 79.6004 26.2234L85.7462 31.3448C86.5924 30.3293 87.2103 29.1589 87.6637 27.9327L80.1602 25.1583ZM79.5844 26.2426C79.4532 26.4022 79.3719 26.4411 79.3407 26.4549L82.574 33.7724C83.8459 33.2104 84.9086 32.363 85.7621 31.3255L79.5844 26.2426ZM79.3249 26.4619C79.2657 26.4884 79.1071 26.5455 78.7756 26.5455V34.5455C80.0652 34.5455 81.3612 34.3146 82.5899 33.7653L79.3249 26.4619ZM95.2244 24H91.2244V28H95.2244V24ZM95.2244 0.727272V-3.27273H91.2244V0.727272H95.2244ZM107.372 1.56818L105.492 5.099L105.502 5.10428L105.512 5.10951L107.372 1.56818ZM109.724 3.80682L106.217 5.73016L106.224 5.74214L109.724 3.80682ZM109.963 9.38636L106.453 7.46809L106.444 7.48389L106.436 7.49976L109.963 9.38636ZM108.577 10.9318L106.378 7.59015L106.368 7.59685L106.358 7.60362L108.577 10.9318ZM106.724 11.7727L105.672 7.91367L102.724 8.71754V11.7727H106.724ZM106.724 12H102.724V15.7528L106.47 15.9919L106.724 12ZM108.872 12.75L106.736 16.132L106.736 16.132L108.872 12.75ZM110.611 20.9659L114.087 22.9444L114.087 22.9444L110.611 20.9659ZM108.099 23.1818L106.378 19.5713L106.378 19.5713L108.099 23.1818ZM98.0426 21.5H94.0426V25.5H98.0426V21.5ZM107.554 20.4318L110.265 23.3732L110.266 23.3721L107.554 20.4318ZM108.122 15.6364L104.685 17.683L104.69 17.6915L104.696 17.7001L108.122 15.6364ZM106.406 14.0227L104.476 17.5261L104.49 17.5337L104.503 17.5411L106.406 14.0227ZM98.0426 13.4091V9.40909H94.0426V13.4091H98.0426ZM98.0426 10.9545H94.0426V14.9545H98.0426V10.9545ZM105.565 10.4545L103.824 6.85341L103.816 6.85719L103.809 6.86101L105.565 10.4545ZM107.202 9.04545L103.886 6.80756L103.877 6.82188L103.867 6.83628L107.202 9.04545ZM106.747 4.30682L103.904 7.12024L103.911 7.12776L103.919 7.13524L106.747 4.30682ZM98.0426 3.22727V-0.772728H94.0426V3.22727H98.0426ZM99.2244 24V0.727272H91.2244V24H99.2244ZM95.2244 4.72727H103.361V-3.27273H95.2244V4.72727ZM103.361 4.72727C104.551 4.72727 105.188 4.93705 105.492 5.099L109.252 -1.96263C107.45 -2.9219 105.413 -3.27273 103.361 -3.27273V4.72727ZM105.512 5.10951C105.949 5.33871 106.121 5.55517 106.217 5.73015L113.232 1.88349C112.297 0.179676 110.902 -1.09629 109.232 -1.97315L105.512 5.10951ZM106.224 5.74214C106.389 6.04168 106.497 6.4027 106.497 6.90909H114.497C114.497 5.14275 114.09 3.43559 113.225 1.8715L106.224 5.74214ZM106.497 6.90909C106.497 7.46171 106.395 7.5736 106.453 7.46809L113.473 11.3046C114.243 9.89609 114.497 8.35647 114.497 6.90909H106.497ZM106.436 7.49976C106.403 7.56197 106.381 7.5868 106.378 7.59035C106.375 7.59281 106.375 7.59274 106.377 7.59139C106.378 7.59003 106.379 7.58951 106.378 7.59015L110.775 14.2735C111.948 13.5018 112.85 12.4691 113.49 11.273L106.436 7.49976ZM106.358 7.60362C106.152 7.74105 105.929 7.8436 105.672 7.91367L107.777 15.6318C108.853 15.3382 109.865 14.8802 110.796 14.26L106.358 7.60362ZM102.724 11.7727V12H110.724V11.7727H102.724ZM106.47 15.9919C106.441 15.99 106.44 15.9853 106.477 15.998C106.516 16.0116 106.602 16.0473 106.736 16.132L111.008 9.36805C109.831 8.62479 108.477 8.10375 106.979 8.00812L106.47 15.9919ZM106.736 16.132C106.826 16.1884 106.997 16.324 107.206 16.6891L114.152 12.72C113.391 11.3881 112.358 10.2207 111.008 9.36804L106.736 16.132ZM107.206 16.6891C107.268 16.7971 107.406 17.1115 107.406 17.8182H115.406C115.406 16.0704 115.06 14.3089 114.152 12.72L107.206 16.6891ZM107.406 17.8182C107.406 18.354 107.292 18.711 107.134 18.9874L114.087 22.9444C114.991 21.3572 115.406 19.6156 115.406 17.8182H107.406ZM107.134 18.9874C107.078 19.0868 106.921 19.3121 106.378 19.5713L109.821 26.7924C111.565 25.9607 113.083 24.7087 114.087 22.9444L107.134 18.9874ZM106.378 19.5713C105.957 19.7721 105.117 20 103.634 20V28C105.816 28 107.954 27.6825 109.821 26.7924L106.378 19.5713ZM103.634 20H95.2244V28H103.634V20ZM98.0426 25.5H103.634V17.5H98.0426V25.5ZM103.634 25.5C105.789 25.5 108.368 25.1216 110.265 23.3732L104.843 17.4904C105.045 17.3046 105.151 17.3169 104.943 17.3736C104.73 17.4317 104.317 17.5 103.634 17.5V25.5ZM110.266 23.3721C111.832 21.9276 112.724 20.0049 112.724 17.8182H104.724C104.724 17.8183 104.725 17.7934 104.734 17.7498C104.743 17.7054 104.758 17.6548 104.781 17.6038C104.831 17.4925 104.879 17.4576 104.842 17.4915L110.266 23.3721ZM112.724 17.8182C112.724 16.3126 112.33 14.8704 111.549 13.5727L104.696 17.7001C104.706 17.7172 104.711 17.7284 104.714 17.7342C104.716 17.74 104.717 17.7436 104.718 17.7462C104.719 17.7481 104.724 17.7679 104.724 17.8182H112.724ZM111.559 13.5897C110.76 12.2487 109.636 11.2222 108.309 10.5043L104.503 17.5411C104.661 17.6263 104.681 17.6755 104.685 17.683L111.559 13.5897ZM108.337 10.5194C106.896 9.72579 105.327 9.40909 103.77 9.40909V17.4091C104.243 17.4091 104.431 17.5015 104.476 17.5261L108.337 10.5194ZM103.77 9.40909H98.0426V17.4091H103.77V9.40909ZM94.0426 13.4091V21.5H102.043V13.4091H94.0426ZM98.0426 14.9545H103.27V6.95455H98.0426V14.9545ZM103.27 14.9545C104.655 14.9545 106.032 14.679 107.322 14.0481L103.809 6.86101C103.735 6.89678 103.582 6.95455 103.27 6.95455V14.9545ZM107.307 14.0557C108.606 13.4271 109.717 12.4917 110.536 11.2546L103.867 6.83628C103.866 6.838 103.867 6.83581 103.871 6.83144C103.875 6.82705 103.879 6.82341 103.881 6.8212C103.884 6.81904 103.882 6.82071 103.875 6.82567C103.867 6.83072 103.851 6.84046 103.824 6.85341L107.307 14.0557ZM110.517 11.2833C111.424 9.93911 111.815 8.42635 111.815 6.90909H103.815C103.815 6.98314 103.806 6.99072 103.817 6.95253C103.823 6.9344 103.831 6.91035 103.844 6.8829C103.857 6.85541 103.871 6.82981 103.886 6.80756L110.517 11.2833ZM111.815 6.90909C111.815 4.84399 111.051 2.95363 109.576 1.47839L103.919 7.13524C103.927 7.14333 103.918 7.13569 103.901 7.11078C103.884 7.08532 103.865 7.051 103.848 7.01041C103.831 6.96991 103.822 6.93516 103.818 6.91165C103.813 6.88889 103.815 6.88623 103.815 6.90909H111.815ZM109.591 1.4934C107.812 -0.304487 105.422 -0.772728 103.361 -0.772728V7.22727C103.839 7.22727 104.079 7.28495 104.152 7.30819C104.205 7.32534 104.074 7.29182 103.904 7.12024L109.591 1.4934ZM103.361 -0.772728H98.0426V7.22727H103.361V-0.772728ZM94.0426 3.22727V10.9545H102.043V3.22727H94.0426ZM118.616 23.2386L116.473 26.616L116.483 26.6221L118.616 23.2386ZM115.844 20.0909L112.25 21.8474L112.254 21.8555L112.258 21.8636L115.844 20.0909ZM115.844 10.6023L112.254 8.83752L112.25 8.84562L112.246 8.85373L115.844 10.6023ZM118.616 7.44318L116.483 4.05968L116.473 4.06586L118.616 7.44318ZM126.901 7.44318L124.757 10.8205L124.767 10.8267L126.901 7.44318ZM129.673 10.6023L126.076 12.3508L126.08 12.3589L126.084 12.367L129.673 10.6023ZM129.673 20.0909L126.088 18.3182L126.084 18.3263L126.08 18.3344L129.673 20.0909ZM126.901 23.2386L124.767 19.8551L124.757 19.8613L126.901 23.2386ZM125.719 21.0341L123.231 17.9016L123.231 17.9016L125.719 21.0341ZM127.435 18.6136L131.185 20.0057L131.185 20.0057L127.435 18.6136ZM127.435 12.1023L131.188 10.7195L131.188 10.7194L127.435 12.1023ZM125.719 9.65909L128.225 6.54159L128.225 6.54159L125.719 9.65909ZM119.81 9.65909L117.303 6.54159L117.303 6.54159L119.81 9.65909ZM118.094 12.1023L114.34 10.7194L114.34 10.7195L118.094 12.1023ZM118.094 18.6136L114.344 20.0057L114.344 20.0057L118.094 18.6136ZM119.81 21.0341L122.297 17.9016L122.297 17.9016L119.81 21.0341ZM122.764 20.3636C121.85 20.3636 121.226 20.1551 120.75 19.8551L116.483 26.6221C118.386 27.8222 120.527 28.3636 122.764 28.3636V20.3636ZM120.76 19.8613C120.243 19.5334 119.797 19.0608 119.429 18.3182L112.258 21.8636C113.224 23.818 114.626 25.4439 116.473 26.616L120.76 19.8613ZM119.437 18.3344C119.094 17.6321 118.855 16.6789 118.855 15.3636H110.855C110.855 17.6544 111.275 19.8527 112.25 21.8474L119.437 18.3344ZM118.855 15.3636C118.855 14.0282 119.096 13.0612 119.441 12.3508L112.246 8.85373C111.273 10.8554 110.855 13.0627 110.855 15.3636H118.855ZM119.433 12.367C119.802 11.6168 120.249 11.1449 120.76 10.8205L116.473 4.06586C114.621 5.24146 113.219 6.87567 112.254 8.83752L119.433 12.367ZM120.75 10.8267C121.226 10.5267 121.85 10.3182 122.764 10.3182V2.31818C120.527 2.31818 118.386 2.85964 116.483 4.05969L120.75 10.8267ZM122.764 10.3182C123.679 10.3182 124.295 10.5268 124.757 10.8205L129.044 4.06586C127.143 2.85952 125.001 2.31818 122.764 2.31818V10.3182ZM124.767 10.8267C125.28 11.1499 125.718 11.6151 126.076 12.3508L133.271 8.85373C132.31 6.87734 130.9 5.23644 129.034 4.05969L124.767 10.8267ZM126.084 12.367C126.431 13.0734 126.673 14.0345 126.673 15.3636H134.673C134.673 13.0564 134.249 10.8432 133.263 8.83752L126.084 12.367ZM126.673 15.3636C126.673 16.6726 126.433 17.6199 126.088 18.3182L133.259 21.8636C134.247 19.865 134.673 17.6607 134.673 15.3636H126.673ZM126.08 18.3344C125.724 19.0624 125.285 19.5283 124.767 19.8551L129.034 26.6221C130.895 25.4489 132.305 23.8164 133.267 21.8474L126.08 18.3344ZM124.757 19.8613C124.295 20.155 123.679 20.3636 122.764 20.3636V28.3636C125.001 28.3636 127.143 27.8223 129.044 26.616L124.757 19.8613ZM122.764 25.9545C124.666 25.9545 126.585 25.4541 128.206 24.1665L123.231 17.9016C123.249 17.8877 123.254 17.8921 123.211 17.9055C123.16 17.9214 123.022 17.9545 122.764 17.9545V25.9545ZM128.206 24.1665C129.597 23.0622 130.581 21.6327 131.185 20.0057L123.685 17.2216C123.546 17.5946 123.386 17.7787 123.231 17.9016L128.206 24.1665ZM131.185 20.0057C131.736 18.5203 131.991 16.9609 131.991 15.3636H123.991C123.991 16.0997 123.876 16.707 123.685 17.2216L131.185 20.0057ZM131.991 15.3636C131.991 13.766 131.736 12.2066 131.188 10.7195L123.681 13.4851C123.876 14.0131 123.991 14.628 123.991 15.3636H131.991ZM131.188 10.7194C130.588 9.08977 129.61 7.65479 128.225 6.54159L123.213 12.7766C123.373 12.9058 123.539 13.0996 123.681 13.4851L131.188 10.7194ZM128.225 6.54159C126.603 5.23765 124.677 4.72727 122.764 4.72727V12.7273C123.018 12.7273 123.15 12.7602 123.197 12.775C123.236 12.7871 123.229 12.7902 123.213 12.7766L128.225 6.54159ZM122.764 4.72727C120.851 4.72727 118.925 5.23765 117.303 6.54159L122.316 12.7766C122.299 12.7902 122.292 12.7871 122.331 12.775C122.378 12.7602 122.51 12.7273 122.764 12.7273V4.72727ZM117.303 6.54159C115.919 7.65479 114.941 9.08977 114.34 10.7194L121.847 13.4851C121.989 13.0996 122.155 12.9058 122.316 12.7766L117.303 6.54159ZM114.34 10.7195C113.792 12.2066 113.537 13.766 113.537 15.3636H121.537C121.537 14.628 121.653 14.0131 121.847 13.4851L114.34 10.7195ZM113.537 15.3636C113.537 16.9609 113.792 18.5203 114.344 20.0057L121.844 17.2216C121.653 16.707 121.537 16.0997 121.537 15.3636H113.537ZM114.344 20.0057C114.948 21.6327 115.931 23.0622 117.322 24.1665L122.297 17.9016C122.142 17.7787 121.982 17.5946 121.844 17.2216L114.344 20.0057ZM117.322 24.1665C118.944 25.4541 120.863 25.9545 122.764 25.9545V17.9545C122.506 17.9545 122.369 17.9214 122.318 17.9055C122.275 17.8921 122.28 17.8877 122.297 17.9016L117.322 24.1665ZM137.71 23.2386L135.567 26.616L135.577 26.6221L137.71 23.2386ZM134.938 20.0909L131.344 21.8474L131.348 21.8555L131.352 21.8636L134.938 20.0909ZM134.938 10.6023L131.348 8.83752L131.344 8.84562L131.34 8.85373L134.938 10.6023ZM137.71 7.44318L135.577 4.05968L135.567 4.06586L137.71 7.44318ZM145.994 7.44318L143.851 10.8205L143.861 10.8267L145.994 7.44318ZM148.767 10.6023L145.169 12.3508L145.173 12.3589L145.177 12.367L148.767 10.6023ZM148.767 20.0909L145.181 18.3182L145.177 18.3263L145.173 18.3344L148.767 20.0909ZM145.994 23.2386L143.861 19.8551L143.851 19.8613L145.994 23.2386ZM144.812 21.0341L142.325 17.9016L142.325 17.9016L144.812 21.0341ZM146.528 18.6136L150.278 20.0057L150.278 20.0057L146.528 18.6136ZM146.528 12.1023L150.282 10.7195L150.282 10.7194L146.528 12.1023ZM144.812 9.65909L147.319 6.54159L147.319 6.54159L144.812 9.65909ZM138.903 9.65909L136.397 6.54159L136.397 6.54159L138.903 9.65909ZM137.188 12.1023L133.434 10.7194L133.434 10.7195L137.188 12.1023ZM137.188 18.6136L133.438 20.0057L133.438 20.0057L137.188 18.6136ZM138.903 21.0341L141.391 17.9016L141.391 17.9016L138.903 21.0341ZM141.858 20.3636C140.943 20.3636 140.319 20.1551 139.844 19.8551L135.577 26.6221C137.48 27.8222 139.621 28.3636 141.858 28.3636V20.3636ZM139.854 19.8613C139.337 19.5334 138.89 19.0608 138.523 18.3182L131.352 21.8636C132.318 23.818 133.72 25.4439 135.567 26.616L139.854 19.8613ZM138.531 18.3344C138.188 17.6321 137.949 16.6789 137.949 15.3636H129.949C129.949 17.6544 130.369 19.8527 131.344 21.8474L138.531 18.3344ZM137.949 15.3636C137.949 14.0282 138.19 13.0612 138.535 12.3508L131.34 8.85373C130.367 10.8554 129.949 13.0627 129.949 15.3636H137.949ZM138.527 12.367C138.896 11.6168 139.342 11.1449 139.854 10.8205L135.567 4.06586C133.714 5.24146 132.312 6.87567 131.348 8.83752L138.527 12.367ZM139.844 10.8267C140.319 10.5267 140.943 10.3182 141.858 10.3182V2.31818C139.621 2.31818 137.48 2.85964 135.577 4.05969L139.844 10.8267ZM141.858 10.3182C142.773 10.3182 143.388 10.5268 143.851 10.8205L148.138 4.06586C146.237 2.85952 144.094 2.31818 141.858 2.31818V10.3182ZM143.861 10.8267C144.373 11.1499 144.812 11.6151 145.169 12.3508L152.365 8.85373C151.404 6.87734 149.994 5.23644 148.128 4.05969L143.861 10.8267ZM145.177 12.367C145.525 13.0734 145.767 14.0345 145.767 15.3636H153.767C153.767 13.0564 153.343 10.8432 152.357 8.83752L145.177 12.367ZM145.767 15.3636C145.767 16.6726 145.527 17.6199 145.181 18.3182L152.353 21.8636C153.341 19.865 153.767 17.6607 153.767 15.3636H145.767ZM145.173 18.3344C144.818 19.0624 144.379 19.5283 143.861 19.8551L148.128 26.6221C149.988 25.4489 151.398 23.8164 152.361 21.8474L145.173 18.3344ZM143.851 19.8613C143.388 20.155 142.773 20.3636 141.858 20.3636V28.3636C144.094 28.3636 146.237 27.8223 148.138 26.616L143.851 19.8613ZM141.858 25.9545C143.76 25.9545 145.679 25.4541 147.3 24.1665L142.325 17.9016C142.343 17.8877 142.347 17.8921 142.305 17.9055C142.253 17.9214 142.116 17.9545 141.858 17.9545V25.9545ZM147.3 24.1665C148.691 23.0622 149.674 21.6327 150.278 20.0057L142.778 17.2216C142.64 17.5946 142.48 17.7787 142.325 17.9016L147.3 24.1665ZM150.278 20.0057C150.83 18.5203 151.085 16.9609 151.085 15.3636H143.085C143.085 16.0997 142.969 16.707 142.778 17.2216L150.278 20.0057ZM151.085 15.3636C151.085 13.766 150.83 12.2066 150.282 10.7195L142.775 13.4851C142.97 14.0131 143.085 14.628 143.085 15.3636H151.085ZM150.282 10.7194C149.681 9.08977 148.703 7.65479 147.319 6.54159L142.306 12.7766C142.467 12.9058 142.633 13.0996 142.775 13.4851L150.282 10.7194ZM147.319 6.54159C145.697 5.23765 143.771 4.72727 141.858 4.72727V12.7273C142.112 12.7273 142.244 12.7602 142.291 12.775C142.33 12.7871 142.323 12.7902 142.306 12.7766L147.319 6.54159ZM141.858 4.72727C139.945 4.72727 138.019 5.23765 136.397 6.54159L141.41 12.7766C141.393 12.7902 141.386 12.7871 141.425 12.775C141.472 12.7602 141.604 12.7273 141.858 12.7273V4.72727ZM136.397 6.54159C135.012 7.65479 134.035 9.08977 133.434 10.7194L140.941 13.4851C141.083 13.0996 141.249 12.9058 141.41 12.7766L136.397 6.54159ZM133.434 10.7195C132.886 12.2066 132.631 13.766 132.631 15.3636H140.631C140.631 14.628 140.746 14.0131 140.941 13.4851L133.434 10.7195ZM132.631 15.3636C132.631 16.9609 132.886 18.5203 133.438 20.0057L140.937 17.2216C140.746 16.707 140.631 16.0997 140.631 15.3636H132.631ZM133.438 20.0057C134.041 21.6327 135.025 23.0622 136.416 24.1665L141.391 17.9016C141.236 17.7787 141.076 17.5946 140.937 17.2216L133.438 20.0057ZM136.416 24.1665C138.037 25.4541 139.956 25.9545 141.858 25.9545V17.9545C141.6 17.9545 141.463 17.9214 141.411 17.9055C141.368 17.8921 141.373 17.8877 141.391 17.9016L136.416 24.1665ZM156.361 17.6364L152.361 17.6912L152.484 26.6807L159.079 20.5706L156.361 17.6364ZM156.315 14.3182V10.3182H152.26L152.316 14.373L156.315 14.3182ZM156.861 14.3182V18.3182H158.538L159.714 17.1215L156.861 14.3182ZM164.497 6.54545V2.54545H162.82L161.644 3.74217L164.497 6.54545ZM167.815 6.54545L170.659 9.35812L177.397 2.54545H167.815V6.54545ZM159.679 14.7727V18.7727H161.349L162.523 17.5854L159.679 14.7727ZM159.452 14.7727V10.7727H157.884L156.733 11.8385L159.452 14.7727ZM153.861 24H149.861V28H153.861V24ZM153.861 0.727272V-3.27273H149.861V0.727272H153.861ZM156.543 0.727272H160.543V-3.27273H156.543V0.727272ZM156.543 24V28H160.543V24H156.543ZM164.952 24L161.812 26.4786L163.013 28H164.952V24ZM158.134 15.3636L155.339 12.5013L152.763 15.0163L154.994 17.8422L158.134 15.3636ZM160.043 13.5L163.178 11.0161L160.423 7.53867L157.248 10.6377L160.043 13.5ZM168.361 24V28H176.633L171.496 21.5161L168.361 24ZM160.36 17.5816L160.315 14.2634L152.316 14.373L152.361 17.6912L160.36 17.5816ZM156.315 18.3182H156.861V10.3182H156.315V18.3182ZM159.714 17.1215L167.351 9.34874L161.644 3.74217L154.007 11.5149L159.714 17.1215ZM164.497 10.5455H167.815V2.54545H164.497V10.5455ZM164.971 3.73278L156.835 11.9601L162.523 17.5854L170.659 9.35812L164.971 3.73278ZM159.679 10.7727H159.452V18.7727H159.679V10.7727ZM156.733 11.8385L153.642 14.7021L159.079 20.5706L162.17 17.707L156.733 11.8385ZM157.861 24V0.727272H149.861V24H157.861ZM153.861 4.72727H156.543V-3.27273H153.861V4.72727ZM152.543 0.727272V24H160.543V0.727272H152.543ZM156.543 20H153.861V28H156.543V20ZM168.091 21.5214L161.273 12.8851L154.994 17.8422L161.812 26.4786L168.091 21.5214ZM160.928 18.2259L162.837 16.3623L157.248 10.6377L155.339 12.5013L160.928 18.2259ZM156.907 15.9839L165.225 26.4839L171.496 21.5161L163.178 11.0161L156.907 15.9839ZM168.361 20H164.952V28H168.361V20Z" fill="black" fill-opacity="0.85"/>
</svg>
